SplineFontDB: 3.0
FontName: GiveYouGlory
FullName: Give You Glory
FamilyName: Give You Glory
Weight: Book
Copyright: Copyright (c) 2010, Kimberly Geswein (kimberlygeswein.com). This Font Software is licensed under the SIL Open Font License, Version 1.1.  This license is available with a FAQ at:  http://scripts.sil.org/OFL
Version: 1.002
ItalicAngle: 0
UnderlinePosition: -52
UnderlineWidth: 51
Ascent: 819
Descent: 205
sfntRevision: 0x00010083
LayerCount: 2
Layer: 0 1 "Back"  1
Layer: 1 1 "Fore"  0
XUID: [1021 288 713564382 7431335]
FSType: 0
OS2Version: 3
OS2_WeightWidthSlopeOnly: 0
OS2_UseTypoMetrics: 1
CreationTime: 1284138840
ModificationTime: 1310121007
PfmFamily: 17
TTFWeight: 400
TTFWidth: 5
LineGap: 0
VLineGap: 0
Panose: 2 0 0 0 0 0 0 0 0 0
OS2TypoAscent: 201
OS2TypoAOffset: 1
OS2TypoDescent: -422
OS2TypoDOffset: 1
OS2TypoLinegap: 0
OS2WinAscent: 0
OS2WinAOffset: 1
OS2WinDescent: 0
OS2WinDOffset: 1
HheadAscent: 0
HheadAOffset: 1
HheadDescent: -3
HheadDOffset: 1
OS2SubXSize: 717
OS2SubYSize: 666
OS2SubXOff: 0
OS2SubYOff: 143
OS2SupXSize: 717
OS2SupYSize: 666
OS2SupXOff: 0
OS2SupYOff: 488
OS2StrikeYSize: 51
OS2StrikeYPos: 256
OS2Vendor: 'pyrs'
OS2CodePages: 00000093.00000000
OS2UnicodeRanges: a000002f.0000004a.00000000.00000000
DEI: 91125
TtTable: prep
PUSHW_1
 511
SCANCTRL
PUSHB_1
 4
SCANTYPE
EndTTInstrs
TtTable: fpgm
PUSHW_1
 0
FDEF
MPPEM
PUSHW_1
 9
LT
IF
PUSHB_2
 1
 1
INSTCTRL
EIF
PUSHW_1
 511
SCANCTRL
PUSHW_1
 68
SCVTCI
PUSHW_2
 9
 3
SDS
SDB
ENDF
PUSHW_1
 1
FDEF
DUP
DUP
RCVT
ROUND[Black]
WCVTP
PUSHB_1
 1
ADD
ENDF
PUSHW_1
 2
FDEF
PUSHW_1
 1
LOOPCALL
POP
ENDF
PUSHW_1
 3
FDEF
DUP
GC[cur]
PUSHB_1
 3
CINDEX
GC[cur]
GT
IF
SWAP
EIF
DUP
ROLL
DUP
ROLL
MD[grid]
ABS
ROLL
DUP
GC[cur]
DUP
ROUND[Grey]
SUB
ABS
PUSHB_1
 4
CINDEX
GC[cur]
DUP
ROUND[Grey]
SUB
ABS
GT
IF
SWAP
NEG
ROLL
EIF
MDAP[rnd]
DUP
PUSHB_1
 0
GTEQ
IF
ROUND[Black]
DUP
PUSHB_1
 0
EQ
IF
POP
PUSHB_1
 64
EIF
ELSE
ROUND[Black]
DUP
PUSHB_1
 0
EQ
IF
POP
PUSHB_1
 64
NEG
EIF
EIF
MSIRP[no-rp0]
ENDF
PUSHW_1
 4
FDEF
DUP

StartChar: exclam
Encoding: 33 33 4
Width: 142
Flags: W
LayerCount: 2
Fore
SplineSet
41 24 m 1,0,1
 28 39 28 39 32.5 53.5 c 128,-1,2
 37 68 37 68 48 87 c 1,3,4
 80 99 80 99 96.5 94 c 128,-1,5
 113 89 113 89 117 76 c 128,-1,6
 121 63 121 63 115 46.5 c 128,-1,7
 109 30 109 30 97 19 c 128,-1,8
 85 8 85 8 70 7 c 128,-1,9
 55 6 55 6 41 24 c 1,0,1
64 386 m 1,10,11
 62 444 62 444 68.5 505 c 128,-1,12
 75 566 75 566 71 623 c 0,13,14
 69 661 69 661 70 692.5 c 128,-1,15
 71 724 71 724 70 733 c 0,16,17
 69 743 69 743 65.5 756 c 128,-1,18
 62 769 62 769 61.5 782 c 128,-1,19
 61 795 61 795 65.5 805.5 c 128,-1,20
 70 816 70 816 85 820 c 0,21,22
 106 826 106 826 117 804 c 1,23,24
 118 780 118 780 118 734.5 c 128,-1,25
 118 689 118 689 118 639 c 128,-1,26
 118 589 118 589 118 543 c 128,-1,27
 118 497 118 497 119 473 c 0,28,29
 119 468 119 468 113.5 447.5 c 128,-1,30
 108 427 108 427 99.5 408 c 128,-1,31
 91 389 91 389 81.5 379 c 128,-1,32
 72 369 72 369 64 386 c 1,10,11
EndSplineSet
EndChar

StartChar: quotedbl
Encoding: 34 34 5
Width: 260
Flags: W
LayerCount: 2
Fore
SplineSet
32 488 m 0,0,1
 31 494 31 494 34 518 c 128,-1,2
 37 542 37 542 42.5 571.5 c 128,-1,3
 48 601 48 601 55.5 630.5 c 128,-1,4
 63 660 63 660 72 677.5 c 128,-1,5
 81 695 81 695 91 694 c 128,-1,6
 101 693 101 693 111 663 c 0,7,8
 115 651 115 651 110.5 625.5 c 128,-1,9
 106 600 106 600 99 571.5 c 128,-1,10
 92 543 92 543 85.5 517.5 c 128,-1,11
 79 492 79 492 79 481 c 1,12,13
 77 473 77 473 70 470.5 c 128,-1,14
 63 468 63 468 54.5 469 c 128,-1,15
 46 470 46 470 39.5 475 c 128,-1,16
 33 480 33 480 32 488 c 0,0,1
158 488 m 0,17,18
 141 496 141 496 143 518 c 128,-1,19
 145 540 145 540 156.5 565 c 128,-1,20
 168 590 168 590 185 612 c 128,-1,21
 202 634 202 634 216.5 644 c 128,-1,22
 231 654 231 654 238 645 c 128,-1,23
 245 636 245 636 237 599 c 0,24,25
 236 595 236 595 232.5 586 c 128,-1,26
 229 577 229 577 225.5 567 c 128,-1,27
 222 557 222 557 218.5 548.5 c 128,-1,28
 215 540 215 540 213 537 c 1,29,30
 223 523 223 523 220 511 c 128,-1,31
 217 499 217 499 207 492 c 128,-1,32
 197 485 197 485 183.5 483.5 c 128,-1,33
 170 482 170 482 158 488 c 0,17,18
EndSplineSet
EndChar

StartChar: numbersign
Encoding: 35 35 6
Width: 1016
Flags: W
LayerCount: 2
Fore
SplineSet
519 8 m 1,0,1
 518 11 518 11 516 14 c 0,2,3
 512 20 512 20 512 24 c 2,4,-1
 512 32 l 1,5,6
 525 33 525 33 535.5 47 c 128,-1,7
 546 61 546 61 553 82.5 c 128,-1,8
 560 104 560 104 564.5 129.5 c 128,-1,9
 569 155 569 155 571.5 177.5 c 128,-1,10
 574 200 574 200 574.5 216.5 c 128,-1,11
 575 233 575 233 574 237 c 1,12,-1
 566 237 l 1,13,14
 558 235 558 235 540.5 231.5 c 128,-1,15
 523 228 523 228 500.5 223.5 c 128,-1,16
 478 219 478 219 453.5 212.5 c 128,-1,17
 429 206 429 206 407 199 c 128,-1,18
 385 192 385 192 368.5 183.5 c 128,-1,19
 352 175 352 175 346 166 c 0,20,21
 344 163 344 163 344 150.5 c 128,-1,22
 344 138 344 138 344.5 120.5 c 128,-1,23
 345 103 345 103 344 84.5 c 128,-1,24
 343 66 343 66 339 52 c 128,-1,25
 335 38 335 38 327.5 31.5 c 128,-1,26
 320 25 320 25 307 32 c 0,27,28
 303 34 303 34 297 39.5 c 128,-1,29
 291 45 291 45 291 47 c 2,30,-1
 291 150 l 1,31,32
 285 147 285 147 269 140 c 128,-1,33
 253 133 253 133 236 125.5 c 128,-1,34
 219 118 219 118 203 111.5 c 128,-1,35
 187 105 187 105 181 102 c 0,36,37
 170 97 170 97 151.5 87 c 128,-1,38
 133 77 133 77 116.5 72.5 c 128,-1,39
 100 68 100 68 90 75 c 128,-1,40
 80 82 80 82 86 111 c 1,41,42
 137 142 137 142 186.5 161 c 128,-1,43
 236 180 236 180 291 205 c 1,44,45
 305 222 305 222 313 261 c 128,-1,46
 321 300 321 300 324 345.5 c 128,-1,47
 327 391 327 391 326.5 436.5 c 128,-1,48
 326 482 326 482 323 512 c 1,49,50
 285 503 285 503 250.5 485.5 c 128,-1,51
 216 468 216 468 183 449 c 128,-1,52
 150 430 150 430 116.5 412.5 c 128,-1,53
 83 395 83 395 47 386 c 0,54,55
 36 383 36 383 30.5 388.5 c 128,-1,56
 25 394 25 394 24 402 c 128,-1,57
 23 410 23 410 25.5 419 c 128,-1,58
 28 428 28 428 31 433 c 0,59,60
 55 466 55 466 95 484 c 128,-1,61
 135 502 135 502 179 514.5 c 128,-1,62
 223 527 223 527 265.5 540 c 128,-1,63
 308 553 308 553 338 575 c 1,64,65
 335 617 335 617 343 641 c 128,-1,66
 351 665 351 665 362 674.5 c 128,-1,67
 373 684 373 684 383 680 c 128,-1,68
 393 676 393 676 393 662 c 2,69,-1
 393 591 l 1,70,-1
 401 591 l 2,71,72
 404 591 404 591 414.5 593.5 c 128,-1,73
 425 596 425 596 437 598.5 c 128,-1,74
 449 601 449 601 459 603.5 c 128,-1,75
 469 606 469 606 472 606 c 0,76,77
 479 607 479 607 498.5 611 c 128,-1,78
 518 615 518 615 539 618.5 c 128,-1,79
 560 622 560 622 579 625.5 c 128,-1,80
 598 629 598 629 606 630 c 1,81,82
 616 633 616 633 618 648 c 128,-1,83
 620 663 620 663 622.5 679 c 128,-1,84
 625 695 625 695 632.5 705.5 c 128,-1,85
 640 716 640 716 662 709 c 0,86,87
 664 709 664 709 666.5 705.5 c 128,-1,88
 669 702 669 702 669 701 c 2,89,-1
 669 646 l 1,90,91
 694 644 694 644 720.5 649 c 128,-1,92
 747 654 747 654 773 660 c 128,-1,93
 799 666 799 666 824.5 668 c 128,-1,94
 850 670 850 670 873 662 c 0,95,96
 892 655 892 655 894.5 640.5 c 128,-1,97
 897 626 897 626 888 609 c 128,-1,98
 879 592 879 592 862 574.5 c 128,-1,99
 845 557 845 557 826.5 543.5 c 128,-1,100
 808 530 808 530 790.5 523 c 128,-1,101
 773 516 773 516 764 520 c 1,102,-1
 764 536 l 1,103,-1
 826 599 l 1,104,105
 817 599 817 599 790.5 600 c 128,-1,106
 764 601 764 601 735 599.5 c 128,-1,107
 706 598 706 598 681.5 592.5 c 128,-1,108
 657 587 657 587 653 575 c 1,109,110
 651 564 651 564 648 535 c 128,-1,111
 645 506 645 506 641 473 c 128,-1,112
 637 440 637 440 634 411 c 128,-1,113
 631 382 631 382 630 371 c 0,114,115
 630 368 630 368 629.5 360 c 128,-1,116
 629 352 629 352 629 343 c 128,-1,117
 629 334 629 334 629.5 326 c 128,-1,118
 630 318 630 318 630 315 c 1,119,-1
 645 315 l 1,120,121
 655 318 655 318 680 323.5 c 128,-1,122
 705 329 705 329 732.5 335 c 128,-1,123
 760 341 760 341 784.5 346.5 c 128,-1,124
 809 352 809 352 819 354 c 256,125,126
 829 356 829 356 847.5 362.5 c 128,-1,127
 866 369 866 369 887.5 375.5 c 128,-1,128
 909 382 909 382 931 385.5 c 128,-1,129
 953 389 953 389 970.5 386.5 c 128,-1,130
 988 384 988 384 998.5 373 c 128,-1,131
 1009 362 1009 362 1008 339 c 1,132,133
 995 317 995 317 971.5 315.5 c 128,-1,134
 948 314 948 314 929 323 c 1,135,136
 894 317 894 317 855 310 c 128,-1,137
 816 303 816 303 776 294 c 128,-1,138
 736 285 736 285 696.5 274.5 c 128,-1,139
 657 264 657 264 622 252 c 1,140,141
 615 210 615 210 611.5 185 c 128,-1,142
 608 160 608 160 604.5 138 c 128,-1,143
 601 116 601 116 596.5 90.5 c 128,-1,144
 592 65 592 65 583 24 c 1,145,146
 573 7 573 7 554.5 1.5 c 128,-1,147
 536 -4 536 -4 519 8 c 1,0,1
346 284 m 0,148,149
 346 281 346 281 345.5 273 c 128,-1,150
 345 265 345 265 345 256.5 c 128,-1,151
 345 248 345 248 345.5 240 c 128,-1,152
 346 232 346 232 346 228 c 1,153,154
 373 224 373 224 406 229.5 c 128,-1,155
 439 235 439 235 471.5 246 c 128,-1,156
 504 257 504 257 533.5 271 c 128,-1,157
 563 285 563 285 583 299 c 1,158,159
 584 312 584 312 587.5 344.5 c 128,-1,160
 591 377 591 377 595 413.5 c 128,-1,161
 599 450 599 450 602 482.5 c 128,-1,162
 605 515 605 515 606 527 c 0,163,164
 607 533 607 533 607 547.5 c 128,-1,165
 607 562 607 562 606 567 c 1,166,167
 581 570 581 570 550 568.5 c 128,-1,168
 519 567 519 567 487.5 561 c 128,-1,169
 456 555 456 555 427.5 544.5 c 128,-1,170
 399 534 399 534 378 520 c 1,171,172
 370 493 370 493 365 462 c 128,-1,173
 360 431 360 431 356.5 400.5 c 128,-1,174
 353 370 353 370 350.5 340 c 128,-1,175
 348 310 348 310 346 284 c 0,148,149
EndSplineSet
EndChar

StartChar: dollar
Encoding: 36 36 7
Width: 497
Flags: W
LayerCount: 2
Fore
SplineSet
189 -87 m 0,0,1
 121 -48 121 -48 81.5 11.5 c 128,-1,2
 42 71 42 71 31 138 c 128,-1,3
 20 205 20 205 37.5 274 c 128,-1,4
 55 343 55 343 102 402 c 0,5,6
 107 409 107 409 111.5 411 c 128,-1,7
 116 413 116 413 126 410 c 1,8,9
 132 394 132 394 124.5 372 c 128,-1,10
 117 350 117 350 104.5 323.5 c 128,-1,11
 92 297 92 297 79.5 266.5 c 128,-1,12
 67 236 67 236 62 202 c 128,-1,13
 57 168 57 168 65 131 c 128,-1,14
 73 94 73 94 102 56 c 0,15,16
 108 48 108 48 117 35.5 c 128,-1,17
 126 23 126 23 135 12 c 128,-1,18
 144 1 144 1 150.5 -7 c 128,-1,19
 157 -15 157 -15 158 -15 c 2,20,-1
 165 -15 l 1,21,22
 185 99 185 99 214.5 214.5 c 128,-1,23
 244 330 244 330 275 442 c 1,24,-1
 275 473 l 1,25,26
 257 502 257 502 238 541 c 128,-1,27
 219 580 219 580 206 622 c 128,-1,28
 193 664 193 664 189.5 705.5 c 128,-1,29
 186 747 186 747 199 780 c 128,-1,30
 212 813 212 813 245 834.5 c 128,-1,31
 278 856 278 856 339 859 c 1,32,33
 341 871 341 871 342.5 878 c 128,-1,34
 344 885 344 885 346 890.5 c 128,-1,35
 348 896 348 896 350.5 902.5 c 128,-1,36
 353 909 353 909 356 921 c 1,37,38
 373 935 373 935 381.5 935 c 128,-1,39
 390 935 390 935 393.5 927 c 128,-1,40
 397 919 397 919 396 905.5 c 128,-1,41
 395 892 395 892 392.5 878 c 128,-1,42
 390 864 390 864 387.5 852 c 128,-1,43
 385 840 385 840 386 835 c 1,44,45
 408 811 408 811 426 789 c 128,-1,46
 444 767 444 767 456 743 c 128,-1,47
 468 719 468 719 472.5 692 c 128,-1,48
 477 665 477 665 472 630 c 1,49,50
 467 621 467 621 453 612 c 128,-1,51
 439 603 439 603 423 599 c 128,-1,52
 407 595 407 595 391.5 598 c 128,-1,53
 376 601 376 601 369 615 c 0,54,55
 361 631 361 631 366.5 639 c 128,-1,56
 372 647 372 647 382.5 652 c 128,-1,57
 393 657 393 657 405.5 661.5 c 128,-1,58
 418 666 418 666 423.5 676.5 c 128,-1,59
 429 687 429 687 423.5 705 c 128,-1,60
 418 723 418 723 394 756 c 0,61,62
 389 764 389 764 381 771 c 128,-1,63
 373 778 373 778 362 772 c 1,64,65
 354 737 354 737 345.5 700.5 c 128,-1,66
 337 664 337 664 330.5 627.5 c 128,-1,67
 324 591 324 591 321.5 554 c 128,-1,68
 319 517 319 517 322 481 c 0,69,70
 325 452 325 452 341.5 423 c 128,-1,71
 358 394 358 394 377.5 364.5 c 128,-1,72
 397 335 397 335 415.5 305 c 128,-1,73
 434 275 434 275 441 244 c 0,74,75
 449 211 449 211 446.5 166 c 128,-1,76
 444 121 444 121 432 75 c 128,-1,77
 420 29 420 29 399 -12 c 128,-1,78
 378 -53 378 -53 347 -79 c 128,-1,79
 316 -105 316 -105 276.5 -109.5 c 128,-1,80
 237 -114 237 -114 189 -87 c 0,0,1
213 -47 m 1,81,82
 242 -77 242 -77 275.5 -67.5 c 128,-1,83
 309 -58 309 -58 337.5 -21.5 c 128,-1,84
 366 15 366 15 385.5 70.5 c 128,-1,85
 405 126 405 126 406 186.5 c 128,-1,86
 407 247 407 247 384.5 306.5 c 128,-1,87
 362 366 362 366 307 410 c 1,88,89
 290 378 290 378 281 339.5 c 128,-1,90
 272 301 272 301 267 259.5 c 128,-1,91
 262 218 262 218 259 175 c 128,-1,92
 256 132 256 132 251.5 92 c 128,-1,93
 247 52 247 52 238 16.5 c 128,-1,94
 229 -19 229 -19 213 -47 c 1,81,82
244 615 m 0,95,96
 246 610 246 610 251.5 599 c 128,-1,97
 257 588 257 588 263.5 575.5 c 128,-1,98
 270 563 270 563 275.5 551.5 c 128,-1,99
 281 540 281 540 283 536 c 1,100,-1
 292 544 l 1,101,102
 293 556 293 556 297.5 586.5 c 128,-1,103
 302 617 302 617 307 650.5 c 128,-1,104
 312 684 312 684 316 714 c 128,-1,105
 320 744 320 744 322 756 c 0,106,107
 322 759 322 759 323.5 764.5 c 128,-1,108
 325 770 325 770 326.5 776.5 c 128,-1,109
 328 783 328 783 329 788.5 c 128,-1,110
 330 794 330 794 331 796 c 1,111,112
 326 817 326 817 304 809 c 128,-1,113
 282 801 282 801 261 773.5 c 128,-1,114
 240 746 240 746 231 704 c 128,-1,115
 222 662 222 662 244 615 c 0,95,96
EndSplineSet
EndChar

StartChar: percent
Encoding: 37 37 8
Width: 740
Flags: W
LayerCount: 2
Fore
SplineSet
102 8 m 0,0,1
 101 13 101 13 101 28 c 128,-1,2
 101 43 101 43 102 47 c 1,3,4
 158 116 158 116 208 190 c 128,-1,5
 258 264 258 264 315 331 c 0,6,7
 342 362 342 362 372.5 394 c 128,-1,8
 403 426 403 426 436 456 c 128,-1,9
 469 486 469 486 504 512.5 c 128,-1,10
 539 539 539 539 574 559 c 0,11,12
 590 568 590 568 606.5 571 c 128,-1,13
 623 574 623 574 632.5 570.5 c 128,-1,14
 642 567 642 567 641.5 556 c 128,-1,15
 641 545 641 545 623 527 c 0,16,17
 600 504 600 504 570 482.5 c 128,-1,18
 540 461 540 461 509 440 c 128,-1,19
 478 419 478 419 448 398 c 128,-1,20
 418 377 418 377 394 354 c 0,21,22
 391 352 391 352 377.5 333 c 128,-1,23
 364 314 364 314 344 285.5 c 128,-1,24
 324 257 324 257 298.5 222 c 128,-1,25
 273 187 273 187 247 152 c 128,-1,26
 221 117 221 117 196 86 c 128,-1,27
 171 55 171 55 151 33.5 c 128,-1,28
 131 12 131 12 117.5 4 c 128,-1,29
 104 -4 104 -4 102 8 c 0,0,1
527 111 m 0,30,31
 513 125 513 125 514.5 147 c 128,-1,32
 516 169 516 169 525 190.5 c 128,-1,33
 534 212 534 212 547 229 c 128,-1,34
 560 246 560 246 570 248 c 128,-1,35
 580 250 580 250 582.5 233.5 c 128,-1,36
 585 217 585 217 574 173 c 1,37,-1
 574 158 l 1,38,39
 598 149 598 149 618 154.5 c 128,-1,40
 638 160 638 160 651.5 174 c 128,-1,41
 665 188 665 188 671 207.5 c 128,-1,42
 677 227 677 227 673.5 245.5 c 128,-1,43
 670 264 670 264 655.5 279 c 128,-1,44
 641 294 641 294 614 299 c 0,45,46
 606 301 606 301 599 299 c 128,-1,47
 592 297 592 297 585.5 293.5 c 128,-1,48
 579 290 579 290 572.5 287 c 128,-1,49
 566 284 566 284 559 284 c 0,50,51
 548 284 548 284 553.5 294 c 128,-1,52
 559 304 559 304 574.5 315.5 c 128,-1,53
 590 327 590 327 612 336 c 128,-1,54
 634 345 634 345 655 343 c 128,-1,55
 676 341 676 341 693.5 324.5 c 128,-1,56
 711 308 711 308 717 268 c 256,57,58
 723 228 723 228 713.5 196 c 128,-1,59
 704 164 704 164 683 142 c 128,-1,60
 662 120 662 120 630 109.5 c 128,-1,61
 598 99 598 99 559 102 c 0,62,63
 553 103 553 103 541 106 c 128,-1,64
 529 109 529 109 527 111 c 0,30,31
62 378 m 0,65,66
 30 399 30 399 22.5 427.5 c 128,-1,67
 15 456 15 456 23.5 486.5 c 128,-1,68
 32 517 32 517 54.5 546.5 c 128,-1,69
 77 576 77 576 106.5 598 c 128,-1,70
 136 620 136 620 168.5 632.5 c 128,-1,71
 201 645 201 645 230.5 641 c 128,-1,72
 260 637 260 637 282.5 614.5 c 128,-1,73
 305 592 305 592 315 544 c 0,74,75
 320 521 320 521 308.5 495.5 c 128,-1,76
 297 470 297 470 276 447.5 c 128,-1,77
 255 425 255 425 226.5 406 c 128,-1,78
 198 387 198 387 168.5 376.5 c 128,-1,79
 139 366 139 366 110.5 365.5 c 128,-1,80
 82 365 82 365 62 378 c 0,65,66
79 433 m 0,81,82
 90 415 90 415 116 417 c 128,-1,83
 142 419 142 419 171.5 433.5 c 128,-1,84
 201 448 201 448 227.5 471 c 128,-1,85
 254 494 254 494 264.5 517.5 c 128,-1,86
 275 541 275 541 263 561.5 c 128,-1,87
 251 582 251 582 205 591 c 0,88,89
 182 595 182 595 153.5 580.5 c 128,-1,90
 125 566 125 566 103.5 541.5 c 128,-1,91
 82 517 82 517 73 487.5 c 128,-1,92
 64 458 64 458 79 433 c 0,81,82
EndSplineSet
EndChar

StartChar: ampersand
Encoding: 38 38 9
Width: 583
Flags: W
LayerCount: 2
Fore
SplineSet
426 24 m 1,0,1
 417 38 417 38 414 55.5 c 128,-1,2
 411 73 411 73 410 92 c 128,-1,3
 409 111 409 111 408 130 c 128,-1,4
 407 149 407 149 402 166 c 1,5,6
 306 123 306 123 236 112.5 c 128,-1,7
 166 102 166 102 119 114 c 128,-1,8
 72 126 72 126 47 155 c 128,-1,9
 22 184 22 184 17 220 c 128,-1,10
 12 256 12 256 25 294 c 128,-1,11
 38 332 38 332 66.5 362 c 128,-1,12
 95 392 95 392 138.5 408.5 c 128,-1,13
 182 425 182 425 237 418 c 0,14,15
 259 415 259 415 278 404.5 c 128,-1,16
 297 394 297 394 313.5 380 c 128,-1,17
 330 366 330 366 346 350.5 c 128,-1,18
 362 335 362 335 379 323 c 1,19,-1
 386 323 l 1,20,21
 388 346 388 346 386 367.5 c 128,-1,22
 384 389 384 389 379.5 410.5 c 128,-1,23
 375 432 375 432 370 453.5 c 128,-1,24
 365 475 365 475 362 497 c 1,25,26
 384 526 384 526 397.5 524.5 c 128,-1,27
 411 523 411 523 419 502 c 128,-1,28
 427 481 427 481 430.5 447.5 c 128,-1,29
 434 414 434 414 436.5 378.5 c 128,-1,30
 439 343 439 343 441.5 312.5 c 128,-1,31
 444 282 444 282 450 268 c 1,32,33
 456 271 456 271 467 285 c 128,-1,34
 478 299 478 299 490 314 c 128,-1,35
 502 329 502 329 514.5 339.5 c 128,-1,36
 527 350 527 350 536 346 c 0,37,38
 556 338 556 338 559 325 c 128,-1,39
 562 312 562 312 554 296.5 c 128,-1,40
 546 281 546 281 531 265.5 c 128,-1,41
 516 250 516 250 500.5 236 c 128,-1,42
 485 222 485 222 472.5 211.5 c 128,-1,43
 460 201 460 201 457 197 c 0,44,45
 452 189 452 189 460 167.5 c 128,-1,46
 468 146 468 146 477.5 118 c 128,-1,47
 487 90 487 90 491 60.5 c 128,-1,48
 495 31 495 31 481 8 c 1,49,50
 462 3 462 3 448.5 5 c 128,-1,51
 435 7 435 7 426 24 c 1,0,1
87 173 m 0,52,53
 118 156 118 156 158.5 154 c 128,-1,54
 199 152 199 152 240.5 160 c 128,-1,55
 282 168 282 168 320.5 184 c 128,-1,56
 359 200 359 200 386 220 c 1,57,58
 389 229 389 229 386 239 c 128,-1,59
 383 249 383 249 378 258.5 c 128,-1,60
 373 268 373 268 366.5 277 c 128,-1,61
 360 286 360 286 354 292 c 0,62,63
 306 345 306 345 261 361 c 128,-1,64
 216 377 216 377 179 368 c 128,-1,65
 142 359 142 359 114 332 c 128,-1,66
 86 305 86 305 72.5 274 c 128,-1,67
 59 243 59 243 61.5 214.5 c 128,-1,68
 64 186 64 186 87 173 c 0,52,53
EndSplineSet
EndChar

StartChar: quotesingle
Encoding: 39 39 10
Width: 173
Flags: W
LayerCount: 2
Fore
SplineSet
99 457 m 0,0,1
 97 458 97 458 94.5 464 c 128,-1,2
 92 470 92 470 91 472 c 0,3,4
 89 486 89 486 79.5 520.5 c 128,-1,5
 70 555 70 555 61 593 c 128,-1,6
 52 631 52 631 47.5 664 c 128,-1,7
 43 697 43 697 51 709 c 0,8,9
 60 722 60 722 71 715 c 128,-1,10
 82 708 82 708 93.5 688.5 c 128,-1,11
 105 669 105 669 115 640 c 128,-1,12
 125 611 125 611 132 580.5 c 128,-1,13
 139 550 139 550 142 521.5 c 128,-1,14
 145 493 145 493 142 473.5 c 128,-1,15
 139 454 139 454 128.5 448 c 128,-1,16
 118 442 118 442 99 457 c 0,0,1
EndSplineSet
EndChar

StartChar: parenleft
Encoding: 40 40 11
Width: 268
Flags: W
LayerCount: 2
Fore
SplineSet
209 -157 m 0,0,1
 192 -136 192 -136 172 -100.5 c 128,-1,2
 152 -65 152 -65 131.5 -21 c 128,-1,3
 111 23 111 23 92.5 71 c 128,-1,4
 74 119 74 119 59 165.5 c 128,-1,5
 44 212 44 212 34.5 253 c 128,-1,6
 25 294 25 294 24 323 c 0,7,8
 22 360 22 360 22 391.5 c 128,-1,9
 22 423 22 423 24.5 452.5 c 128,-1,10
 27 482 27 482 32.5 511.5 c 128,-1,11
 38 541 38 541 47 575 c 0,12,13
 51 593 51 593 61.5 625.5 c 128,-1,14
 72 658 72 658 86.5 690.5 c 128,-1,15
 101 723 101 723 119.5 749 c 128,-1,16
 138 775 138 775 158 780 c 0,17,18
 172 783 172 783 180.5 773 c 128,-1,19
 189 763 189 763 189 749 c 0,20,21
 189 734 189 734 177.5 715.5 c 128,-1,22
 166 697 166 697 151 677.5 c 128,-1,23
 136 658 136 658 121.5 639.5 c 128,-1,24
 107 621 107 621 102 606 c 0,25,26
 89 564 89 564 83.5 503 c 128,-1,27
 78 442 78 442 81 372 c 128,-1,28
 84 302 84 302 95 229 c 128,-1,29
 106 156 106 156 125 91 c 128,-1,30
 144 26 144 26 171 -25 c 128,-1,31
 198 -76 198 -76 233 -102 c 1,32,33
 239 -105 239 -105 246 -102.5 c 128,-1,34
 253 -100 253 -100 261.5 -95.5 c 128,-1,35
 270 -91 270 -91 278.5 -87.5 c 128,-1,36
 287 -84 287 -84 296 -87 c 1,37,38
 298 -98 298 -98 294 -115 c 128,-1,39
 290 -132 290 -132 282.5 -148.5 c 128,-1,40
 275 -165 275 -165 264 -177 c 128,-1,41
 253 -189 253 -189 241 -189 c 1,42,43
 239 -188 239 -188 234.5 -183.5 c 128,-1,44
 230 -179 230 -179 224.5 -174 c 128,-1,45
 219 -169 219 -169 214.5 -164 c 128,-1,46
 210 -159 210 -159 209 -157 c 0,0,1
EndSplineSet
EndChar

StartChar: parenright
Encoding: 41 41 12
Width: 228
Flags: W
LayerCount: 2
Fore
SplineSet
58 -216 m 0,0,1
 55 -200 55 -200 58.5 -183 c 128,-1,2
 62 -166 62 -166 68 -148.5 c 128,-1,3
 74 -131 74 -131 80.5 -114 c 128,-1,4
 87 -97 87 -97 90 -82 c 1,5,6
 106 -55 106 -55 120 0.5 c 128,-1,7
 134 56 134 56 142 126.5 c 128,-1,8
 150 197 150 197 150 275.5 c 128,-1,9
 150 354 150 354 139.5 428 c 128,-1,10
 129 502 129 502 106 564 c 128,-1,11
 83 626 83 626 45 663 c 1,12,13
 27 657 27 657 20.5 667 c 128,-1,14
 14 677 14 677 17 692 c 128,-1,15
 20 707 20 707 30 722 c 128,-1,16
 40 737 40 737 55 740.5 c 128,-1,17
 70 744 70 744 88 731 c 128,-1,18
 106 718 106 718 124 678 c 0,19,20
 139 643 139 643 154 596.5 c 128,-1,21
 169 550 169 550 181 500.5 c 128,-1,22
 193 451 193 451 201.5 402.5 c 128,-1,23
 210 354 210 354 213 315 c 0,24,25
 213 309 213 309 210.5 279 c 128,-1,26
 208 249 208 249 202.5 205 c 128,-1,27
 197 161 197 161 189 107 c 128,-1,28
 181 53 181 53 171 -0.5 c 128,-1,29
 161 -54 161 -54 150 -103.5 c 128,-1,30
 139 -153 139 -153 126.5 -188.5 c 128,-1,31
 114 -224 114 -224 100.5 -241.5 c 128,-1,32
 87 -259 87 -259 74 -248 c 0,33,34
 73 -247 73 -247 70.5 -243 c 128,-1,35
 68 -239 68 -239 65.5 -234 c 128,-1,36
 63 -229 63 -229 61 -224 c 128,-1,37
 59 -219 59 -219 58 -216 c 0,0,1
EndSplineSet
EndChar

StartChar: asterisk
Encoding: 42 42 13
Width: 504
Flags: W
LayerCount: 2
Fore
SplineSet
141 8 m 0,0,1
 121 18 121 18 118.5 40.5 c 128,-1,2
 116 63 116 63 119.5 89.5 c 128,-1,3
 123 116 123 116 129 141 c 128,-1,4
 135 166 135 166 134 181 c 1,5,6
 115 184 115 184 98 176 c 128,-1,7
 81 168 81 168 62 166 c 0,8,9
 30 161 30 161 20 164 c 128,-1,10
 10 167 10 167 14.5 174 c 128,-1,11
 19 181 19 181 34.5 191 c 128,-1,12
 50 201 50 201 67 211 c 128,-1,13
 84 221 84 221 98.5 228 c 128,-1,14
 113 235 113 235 118 237 c 0,15,16
 120 238 120 238 126 240.5 c 128,-1,17
 132 243 132 243 134 244 c 1,18,19
 133 245 133 245 124.5 252 c 128,-1,20
 116 259 116 259 104.5 269 c 128,-1,21
 93 279 93 279 81.5 291 c 128,-1,22
 70 303 70 303 64.5 314 c 128,-1,23
 59 325 59 325 61 333.5 c 128,-1,24
 63 342 63 342 79 346 c 0,25,26
 82 347 82 347 91 347 c 128,-1,27
 100 347 100 347 102 346 c 0,28,29
 120 341 120 341 140.5 344.5 c 128,-1,30
 161 348 161 348 176.5 345.5 c 128,-1,31
 192 343 192 343 199 327 c 128,-1,32
 206 311 206 311 197 268 c 1,33,34
 208 271 208 271 212 283.5 c 128,-1,35
 216 296 216 296 218 311.5 c 128,-1,36
 220 327 220 327 221 343.5 c 128,-1,37
 222 360 222 360 226 372 c 128,-1,38
 230 384 230 384 239.5 388.5 c 128,-1,39
 249 393 249 393 267 386 c 0,40,41
 278 381 278 381 279 366.5 c 128,-1,42
 280 352 280 352 276.5 335 c 128,-1,43
 273 318 273 318 267.5 303 c 128,-1,44
 262 288 262 288 260 284 c 1,45,46
 278 281 278 281 302 284.5 c 128,-1,47
 326 288 326 288 351.5 295 c 128,-1,48
 377 302 377 302 401 310 c 128,-1,49
 425 318 425 318 441 323 c 1,50,51
 444 332 444 332 452.5 331.5 c 128,-1,52
 461 331 461 331 471 325 c 128,-1,53
 481 319 481 319 489.5 309 c 128,-1,54
 498 299 498 299 500 288.5 c 128,-1,55
 502 278 502 278 494.5 270 c 128,-1,56
 487 262 487 262 465 260 c 0,57,58
 455 259 455 259 433.5 257.5 c 128,-1,59
 412 256 412 256 385.5 253.5 c 128,-1,60
 359 251 359 251 332 247 c 128,-1,61
 305 243 305 243 283.5 237 c 128,-1,62
 262 231 262 231 250.5 223 c 128,-1,63
 239 215 239 215 244 205 c 0,64,65
 247 198 247 198 255 195 c 128,-1,66
 263 192 263 192 271.5 189.5 c 128,-1,67
 280 187 280 187 286 183.5 c 128,-1,68
 292 180 292 180 292 173 c 2,69,-1
 292 118 l 2,70,71
 292 106 292 106 282.5 105.5 c 128,-1,72
 273 105 273 105 261.5 110 c 128,-1,73
 250 115 250 115 240 122.5 c 128,-1,74
 230 130 230 130 228 134 c 1,75,76
 217 131 217 131 213 117 c 128,-1,77
 209 103 209 103 207.5 85 c 128,-1,78
 206 67 206 67 204 48.5 c 128,-1,79
 202 30 202 30 196 17 c 128,-1,80
 190 4 190 4 177.5 0 c 128,-1,81
 165 -4 165 -4 141 8 c 0,0,1
EndSplineSet
EndChar

StartChar: plus
Encoding: 43 43 14
Width: 606
Flags: W
LayerCount: 2
Fore
SplineSet
173 47 m 0,0,1
 170 59 170 59 175 69 c 128,-1,2
 180 79 180 79 188 87 c 1,3,4
 185 160 185 160 183 233 c 128,-1,5
 181 306 181 306 173 378 c 1,6,7
 158 380 158 380 139 373 c 128,-1,8
 120 366 120 366 101.5 357.5 c 128,-1,9
 83 349 83 349 66 342.5 c 128,-1,10
 49 336 49 336 39 339 c 0,11,12
 11 348 11 348 8.5 361 c 128,-1,13
 6 374 6 374 16.5 386 c 128,-1,14
 27 398 27 398 43.5 407 c 128,-1,15
 60 416 60 416 71 418 c 0,16,17
 76 419 76 419 89.5 422 c 128,-1,18
 103 425 103 425 118 429 c 128,-1,19
 133 433 133 433 146.5 436 c 128,-1,20
 160 439 160 439 165 441 c 1,21,22
 166 462 166 462 163 482 c 128,-1,23
 160 502 160 502 156 521.5 c 128,-1,24
 152 541 152 541 149.5 560 c 128,-1,25
 147 579 147 579 150 599 c 0,26,27
 152 614 152 614 160.5 619.5 c 128,-1,28
 169 625 169 625 178.5 623 c 128,-1,29
 188 621 188 621 196 612.5 c 128,-1,30
 204 604 204 604 205 591 c 0,31,32
 206 583 206 583 207 564 c 128,-1,33
 208 545 208 545 209 524 c 128,-1,34
 210 503 210 503 211 483.5 c 128,-1,35
 212 464 212 464 212 457 c 1,36,-1
 220 449 l 1,37,38
 220 449 220 449 244 452.5 c 128,-1,39
 268 456 268 456 300.5 461 c 128,-1,40
 333 466 333 466 367.5 471.5 c 128,-1,41
 402 477 402 477 425 480 c 0,42,43
 428 481 428 481 446 485.5 c 128,-1,44
 464 490 464 490 487 495 c 128,-1,45
 510 500 510 500 534 502.5 c 128,-1,46
 558 505 558 505 574 501.5 c 128,-1,47
 590 498 590 498 594.5 486 c 128,-1,48
 599 474 599 474 583 449 c 0,49,50
 582 447 582 447 579 444.5 c 128,-1,51
 576 442 576 442 574 441 c 1,52,53
 486 451 486 451 395 436.5 c 128,-1,54
 304 422 304 422 220 394 c 1,55,56
 219 379 219 379 221 344 c 128,-1,57
 223 309 223 309 225.5 265.5 c 128,-1,58
 228 222 228 222 231 175 c 128,-1,59
 234 128 234 128 235 89 c 128,-1,60
 236 50 236 50 234.5 25 c 128,-1,61
 233 0 233 0 228 0 c 2,62,-1
 188 0 l 1,63,64
 188 0 188 0 186 5.5 c 128,-1,65
 184 11 184 11 181.5 18.5 c 128,-1,66
 179 26 179 26 176.5 34 c 128,-1,67
 174 42 174 42 173 47 c 0,0,1
EndSplineSet
EndChar

StartChar: comma
Encoding: 44 44 15
Width: 200
Flags: W
LayerCount: 2
Fore
SplineSet
96 -267 m 0,0,1
 89 -262 89 -262 89 -247.5 c 128,-1,2
 89 -233 89 -233 94 -214 c 128,-1,3
 99 -195 99 -195 107 -172.5 c 128,-1,4
 115 -150 115 -150 123 -129 c 128,-1,5
 131 -108 131 -108 136.5 -90 c 128,-1,6
 142 -72 142 -72 143 -62 c 0,7,8
 144 -54 144 -54 143.5 -40 c 128,-1,9
 143 -26 143 -26 142 -12 c 128,-1,10
 141 2 141 2 139 14.5 c 128,-1,11
 137 27 137 27 135 32 c 0,12,13
 132 40 132 40 115.5 56.5 c 128,-1,14
 99 73 99 73 81 91 c 128,-1,15
 63 109 63 109 50 125.5 c 128,-1,16
 37 142 37 142 41 150 c 0,17,18
 55 178 55 178 76.5 173 c 128,-1,19
 98 168 98 168 119 140 c 128,-1,20
 140 112 140 112 157.5 66 c 128,-1,21
 175 20 175 20 182 -34 c 128,-1,22
 189 -88 189 -88 181 -145 c 128,-1,23
 173 -202 173 -202 143 -252 c 0,24,25
 132 -270 132 -270 123.5 -275 c 128,-1,26
 115 -280 115 -280 96 -267 c 0,0,1
EndSplineSet
EndChar

StartChar: hyphen
Encoding: 45 45 16
Width: 567
Flags: W
LayerCount: 2
Fore
SplineSet
24 260 m 0,0,1
 21 267 21 267 20.5 277 c 128,-1,2
 20 287 20 287 22.5 296 c 128,-1,3
 25 305 25 305 31 312.5 c 128,-1,4
 37 320 37 320 47 323 c 0,5,6
 60 326 60 326 99.5 328 c 128,-1,7
 139 330 139 330 191 331 c 128,-1,8
 243 332 243 332 300.5 332 c 128,-1,9
 358 332 358 332 407 331 c 128,-1,10
 456 330 456 330 489.5 328 c 128,-1,11
 523 326 523 326 527 323 c 0,12,13
 543 312 543 312 538.5 299.5 c 128,-1,14
 534 287 534 287 521 277 c 128,-1,15
 508 267 508 267 491 263 c 128,-1,16
 474 259 474 259 464 267 c 1,17,18
 414 268 414 268 360.5 264.5 c 128,-1,19
 307 261 307 261 252.5 256.5 c 128,-1,20
 198 252 198 252 144 249.5 c 128,-1,21
 90 247 90 247 39 252 c 0,22,23
 37 252 37 252 31 255 c 128,-1,24
 25 258 25 258 24 260 c 0,0,1
EndSplineSet
EndChar

StartChar: period
Encoding: 46 46 17
Width: 217
Flags: W
LayerCount: 2
Fore
SplineSet
123 32 m 0,0,1
 120 37 120 37 114 52.5 c 128,-1,2
 108 68 108 68 103.5 86 c 128,-1,3
 99 104 99 104 98.5 121.5 c 128,-1,4
 98 139 98 139 108 150 c 1,5,6
 147 145 147 145 167 128 c 128,-1,7
 187 111 187 111 192.5 90 c 128,-1,8
 198 69 198 69 192 48.5 c 128,-1,9
 186 28 186 28 174.5 16.5 c 128,-1,10
 163 5 163 5 149 6.5 c 128,-1,11
 135 8 135 8 123 32 c 0,0,1
EndSplineSet
EndChar

StartChar: slash
Encoding: 47 47 18
Width: 433
Flags: W
LayerCount: 2
Fore
SplineSet
15 8 m 0,0,1
 4 16 4 16 4 27 c 128,-1,2
 4 38 4 38 9 49 c 128,-1,3
 14 60 14 60 21.5 70.5 c 128,-1,4
 29 81 29 81 32 87 c 0,5,6
 63 148 63 148 89.5 202.5 c 128,-1,7
 116 257 116 257 143 308 c 128,-1,8
 170 359 170 359 200 409 c 128,-1,9
 230 459 230 459 268 512 c 1,10,11
 319 576 319 576 355 615 c 0,12,13
 370 631 370 631 383.5 643.5 c 128,-1,14
 397 656 397 656 405.5 659 c 128,-1,15
 414 662 414 662 416 654.5 c 128,-1,16
 418 647 418 647 410 623 c 0,17,18
 402 601 402 601 386.5 580.5 c 128,-1,19
 371 560 371 560 352 540.5 c 128,-1,20
 333 521 333 521 314.5 502 c 128,-1,21
 296 483 296 483 284 465 c 0,22,23
 252 418 252 418 227 376.5 c 128,-1,24
 202 335 202 335 179.5 292.5 c 128,-1,25
 157 250 157 250 135 204 c 128,-1,26
 113 158 113 158 87 102 c 0,27,28
 84 95 84 95 80 74.5 c 128,-1,29
 76 54 76 54 68 35 c 128,-1,30
 60 16 60 16 47.5 5.5 c 128,-1,31
 35 -5 35 -5 15 8 c 0,0,1
EndSplineSet
EndChar

StartChar: zero
Encoding: 48 48 19
Width: 410
Flags: W
LayerCount: 2
Fore
SplineSet
134 8 m 0,0,1
 100 18 100 18 76.5 57 c 128,-1,2
 53 96 53 96 39 150.5 c 128,-1,3
 25 205 25 205 19.5 268 c 128,-1,4
 14 331 14 331 15 389 c 128,-1,5
 16 447 16 447 22.5 493 c 128,-1,6
 29 539 29 539 39 559 c 0,7,8
 42 565 42 565 49.5 566.5 c 128,-1,9
 57 568 57 568 65 566.5 c 128,-1,10
 73 565 73 565 79.5 561 c 128,-1,11
 86 557 86 557 87 551 c 0,12,13
 92 519 92 519 87 477.5 c 128,-1,14
 82 436 82 436 75.5 389.5 c 128,-1,15
 69 343 69 343 64 295.5 c 128,-1,16
 59 248 59 248 64 205 c 128,-1,17
 69 162 69 162 88.5 127 c 128,-1,18
 108 92 108 92 150 71 c 0,19,20
 183 54 183 54 212.5 66.5 c 128,-1,21
 242 79 242 79 266.5 110.5 c 128,-1,22
 291 142 291 142 308.5 188 c 128,-1,23
 326 234 326 234 335.5 286.5 c 128,-1,24
 345 339 345 339 345 392.5 c 128,-1,25
 345 446 345 446 333.5 491.5 c 128,-1,26
 322 537 322 537 298.5 570 c 128,-1,27
 275 603 275 603 237 614 c 0,28,29
 198 626 198 626 174.5 612.5 c 128,-1,30
 151 599 151 599 126 567 c 1,31,32
 117 562 117 562 115 568 c 128,-1,33
 113 574 113 574 117 585.5 c 128,-1,34
 121 597 121 597 130.5 611 c 128,-1,35
 140 625 140 625 154.5 637 c 128,-1,36
 169 649 169 649 187.5 656.5 c 128,-1,37
 206 664 206 664 228 662 c 0,38,39
 277 657 277 657 310.5 623 c 128,-1,40
 344 589 344 589 362.5 537.5 c 128,-1,41
 381 486 381 486 385.5 423 c 128,-1,42
 390 360 390 360 381.5 296 c 128,-1,43
 373 232 373 232 352 173.5 c 128,-1,44
 331 115 331 115 299.5 73.5 c 128,-1,45
 268 32 268 32 226.5 12.5 c 128,-1,46
 185 -7 185 -7 134 8 c 0,0,1
EndSplineSet
EndChar

StartChar: one
Encoding: 49 49 20
Width: 141
Flags: W
LayerCount: 2
Fore
SplineSet
62 24 m 1,0,1
 51 155 51 155 42 280.5 c 128,-1,2
 33 406 33 406 24 536 c 0,3,4
 23 547 23 547 27.5 556.5 c 128,-1,5
 32 566 32 566 38.5 570.5 c 128,-1,6
 45 575 45 575 54 573 c 128,-1,7
 63 571 63 571 71 559 c 1,8,9
 70 512 70 512 77.5 446.5 c 128,-1,10
 85 381 85 381 94.5 312 c 128,-1,11
 104 243 104 243 111.5 179 c 128,-1,12
 119 115 119 115 118.5 71 c 128,-1,13
 118 27 118 27 105.5 11.5 c 128,-1,14
 93 -4 93 -4 62 24 c 1,0,1
EndSplineSet
EndChar

StartChar: two
Encoding: 50 50 21
Width: 678
Flags: W
LayerCount: 2
Fore
SplineSet
71 15 m 0,0,1
 69 23 69 23 69 40.5 c 128,-1,2
 69 58 69 58 71 63 c 256,3,4
 73 68 73 68 89.5 96 c 128,-1,5
 106 124 106 124 129.5 165.5 c 128,-1,6
 153 207 153 207 179 257 c 128,-1,7
 205 307 205 307 226.5 356 c 128,-1,8
 248 405 248 405 260 448 c 128,-1,9
 272 491 272 491 267.5 518.5 c 128,-1,10
 263 546 263 546 237 552.5 c 128,-1,11
 211 559 211 559 157 536 c 0,12,13
 133 525 133 525 121 508.5 c 128,-1,14
 109 492 109 492 100.5 473 c 128,-1,15
 92 454 92 454 82.5 435 c 128,-1,16
 73 416 73 416 54 401 c 1,17,18
 30 419 30 419 26.5 442 c 128,-1,19
 23 465 23 465 28.5 491 c 128,-1,20
 34 517 34 517 41.5 544.5 c 128,-1,21
 49 572 49 572 47 599 c 1,22,23
 49 608 49 608 56 612 c 128,-1,24
 63 616 63 616 71.5 617 c 128,-1,25
 80 618 80 618 88.5 616.5 c 128,-1,26
 97 615 97 615 102 614 c 1,27,28
 104 600 104 600 116 596 c 128,-1,29
 128 592 128 592 146 592 c 128,-1,30
 164 592 164 592 186 593.5 c 128,-1,31
 208 595 208 595 230.5 592.5 c 128,-1,32
 253 590 253 590 275 581 c 128,-1,33
 297 572 297 572 314 551 c 1,34,35
 319 490 319 490 303.5 429 c 128,-1,36
 288 368 288 368 262.5 309 c 128,-1,37
 237 250 237 250 206 194 c 128,-1,38
 175 138 175 138 150 87 c 1,39,-1
 150 71 l 1,40,41
 219 67 219 67 280.5 74.5 c 128,-1,42
 342 82 342 82 400.5 98 c 128,-1,43
 459 114 459 114 517 135.5 c 128,-1,44
 575 157 575 157 638 181 c 0,45,46
 640 182 640 182 645.5 182 c 128,-1,47
 651 182 651 182 653 181 c 1,48,49
 665 161 665 161 646.5 141 c 128,-1,50
 628 121 628 121 590 102.5 c 128,-1,51
 552 84 552 84 499.5 68 c 128,-1,52
 447 52 447 52 390 39 c 128,-1,53
 333 26 333 26 277 17.5 c 128,-1,54
 221 9 221 9 176 5 c 128,-1,55
 131 1 131 1 102 3.5 c 128,-1,56
 73 6 73 6 71 15 c 0,0,1
EndSplineSet
EndChar

StartChar: three
Encoding: 51 51 22
Width: 457
Flags: W
LayerCount: 2
Fore
SplineSet
141 8 m 0,0,1
 118 13 118 13 107 28.5 c 128,-1,2
 96 44 96 44 94.5 63 c 128,-1,3
 93 82 93 82 98.5 102 c 128,-1,4
 104 122 104 122 114.5 137 c 128,-1,5
 125 152 125 152 138.5 158.5 c 128,-1,6
 152 165 152 165 165 158 c 1,7,8
 170 146 170 146 165 135.5 c 128,-1,9
 160 125 160 125 154 114.5 c 128,-1,10
 148 104 148 104 144.5 93.5 c 128,-1,11
 141 83 141 83 150 71 c 0,12,13
 165 48 165 48 189.5 45.5 c 128,-1,14
 214 43 214 43 241 55 c 128,-1,15
 268 67 268 67 295.5 89.5 c 128,-1,16
 323 112 323 112 344 139 c 128,-1,17
 365 166 365 166 377 194 c 128,-1,18
 389 222 389 222 386 244 c 0,19,20
 382 274 382 274 361 290 c 128,-1,21
 340 306 340 306 312 311.5 c 128,-1,22
 284 317 284 317 255 313 c 128,-1,23
 226 309 226 309 205 299 c 0,24,25
 193 293 193 293 184.5 283 c 128,-1,26
 176 273 176 273 169 261 c 128,-1,27
 162 249 162 249 154 238 c 128,-1,28
 146 227 146 227 134 220 c 0,29,30
 119 212 119 212 110.5 218.5 c 128,-1,31
 102 225 102 225 98 237 c 128,-1,32
 94 249 94 249 95.5 262.5 c 128,-1,33
 97 276 97 276 102 284 c 0,34,35
 112 298 112 298 130 321 c 128,-1,36
 148 344 148 344 167 371.5 c 128,-1,37
 186 399 186 399 203.5 429 c 128,-1,38
 221 459 221 459 231.5 487.5 c 128,-1,39
 242 516 242 516 242.5 541 c 128,-1,40
 243 566 243 566 228 583 c 1,41,42
 196 590 196 590 172.5 579.5 c 128,-1,43
 149 569 149 569 131 549.5 c 128,-1,44
 113 530 113 530 100.5 504.5 c 128,-1,45
 88 479 88 479 79 457 c 0,46,47
 75 448 75 448 72.5 440.5 c 128,-1,48
 70 433 70 433 66 429 c 128,-1,49
 62 425 62 425 54 423.5 c 128,-1,50
 46 422 46 422 32 425 c 0,51,52
 26 426 26 426 26 441.5 c 128,-1,53
 26 457 26 457 29 480 c 128,-1,54
 32 503 32 503 37.5 529.5 c 128,-1,55
 43 556 43 556 48.5 579 c 128,-1,56
 54 602 54 602 58 618.5 c 128,-1,57
 62 635 62 635 62 638 c 1,58,59
 77 654 77 654 87.5 655.5 c 128,-1,60
 98 657 98 657 104 649.5 c 128,-1,61
 110 642 110 642 111.5 628 c 128,-1,62
 113 614 113 614 111 599 c 1,63,64
 122 608 122 608 138.5 617.5 c 128,-1,65
 155 627 155 627 173.5 633.5 c 128,-1,66
 192 640 192 640 210.5 642 c 128,-1,67
 229 644 229 644 244 638 c 0,68,69
 267 629 267 629 276 609.5 c 128,-1,70
 285 590 285 590 284.5 565.5 c 128,-1,71
 284 541 284 541 277 514 c 128,-1,72
 270 487 270 487 260.5 462 c 128,-1,73
 251 437 251 437 241.5 416.5 c 128,-1,74
 232 396 232 396 228 386 c 1,75,-1
 228 371 l 1,76,77
 299 368 299 368 343 349 c 128,-1,78
 387 330 387 330 409 301 c 128,-1,79
 431 272 431 272 432 236 c 128,-1,80
 433 200 433 200 418.5 164 c 128,-1,81
 404 128 404 128 376.5 95.5 c 128,-1,82
 349 63 349 63 312 40 c 128,-1,83
 275 17 275 17 231 7.5 c 128,-1,84
 187 -2 187 -2 141 8 c 0,0,1
EndSplineSet
EndChar

StartChar: four
Encoding: 52 52 23
Width: 630
Flags: W
LayerCount: 2
Fore
SplineSet
527 32 m 0,0,1
 526 40 526 40 524.5 60 c 128,-1,2
 523 80 523 80 522 106 c 128,-1,3
 521 132 521 132 520.5 161.5 c 128,-1,4
 520 191 520 191 519.5 218.5 c 128,-1,5
 519 246 519 246 519 267.5 c 128,-1,6
 519 289 519 289 520 299 c 1,7,8
 519 300 519 300 511 290.5 c 128,-1,9
 503 281 503 281 493 268.5 c 128,-1,10
 483 256 483 256 473 244 c 128,-1,11
 463 232 463 232 457 228 c 0,12,13
 445 221 445 221 434.5 218 c 128,-1,14
 424 215 424 215 410 213 c 1,15,16
 369 212 369 212 320 210.5 c 128,-1,17
 271 209 271 209 221 211 c 128,-1,18
 171 213 171 213 122 220 c 128,-1,19
 73 227 73 227 32 244 c 0,20,21
 25 247 25 247 20.5 268.5 c 128,-1,22
 16 290 16 290 13 321 c 128,-1,23
 10 352 10 352 9 389 c 128,-1,24
 8 426 8 426 8.5 459 c 128,-1,25
 9 492 9 492 10.5 517 c 128,-1,26
 12 542 12 542 15 551 c 0,27,28
 17 556 17 556 24.5 561.5 c 128,-1,29
 32 567 32 567 40.5 569 c 128,-1,30
 49 571 49 571 56 569.5 c 128,-1,31
 63 568 63 568 63 559 c 2,32,-1
 63 339 l 2,33,34
 63 315 63 315 89.5 298 c 128,-1,35
 116 281 116 281 157.5 272 c 128,-1,36
 199 263 199 263 249 261 c 128,-1,37
 299 259 299 259 345.5 265.5 c 128,-1,38
 392 272 392 272 428.5 286 c 128,-1,39
 465 300 465 300 480 323 c 0,40,41
 487 332 487 332 490.5 359.5 c 128,-1,42
 494 387 494 387 496.5 421 c 128,-1,43
 499 455 499 455 502.5 490 c 128,-1,44
 506 525 506 525 512.5 550 c 128,-1,45
 519 575 519 575 530 584 c 128,-1,46
 541 593 541 593 559 575 c 0,47,48
 561 573 561 573 564 567 c 128,-1,49
 567 561 567 561 567 559 c 0,50,51
 569 502 569 502 568.5 446.5 c 128,-1,52
 568 391 568 391 568 335.5 c 128,-1,53
 568 280 568 280 571 224 c 128,-1,54
 574 168 574 168 583 111 c 1,55,56
 598 101 598 101 600 80 c 128,-1,57
 602 59 602 59 594 39 c 128,-1,58
 586 19 586 19 570.5 6.5 c 128,-1,59
 555 -6 555 -6 536 0 c 1,60,61
 535 4 535 4 531.5 16 c 128,-1,62
 528 28 528 28 527 32 c 0,0,1
EndSplineSet
EndChar

StartChar: five
Encoding: 53 53 24
Width: 480
Flags: W
LayerCount: 2
Fore
SplineSet
134 15 m 1,0,1
 114 37 114 37 124 56.5 c 128,-1,2
 134 76 134 76 157.5 90.5 c 128,-1,3
 181 105 181 105 209 113 c 128,-1,4
 237 121 237 121 252 118 c 1,5,6
 256 109 256 109 250 100 c 128,-1,7
 244 91 244 91 233.5 83 c 128,-1,8
 223 75 223 75 212 68 c 128,-1,9
 201 61 201 61 197 55 c 1,10,11
 234 35 234 35 272.5 44 c 128,-1,12
 311 53 311 53 341 79 c 128,-1,13
 371 105 371 105 389 143 c 128,-1,14
 407 181 407 181 403 221 c 128,-1,15
 399 261 399 261 369.5 296.5 c 128,-1,16
 340 332 340 332 275 354 c 0,17,18
 210 377 210 377 158.5 366 c 128,-1,19
 107 355 107 355 62 299 c 1,20,21
 38 293 38 293 29.5 310.5 c 128,-1,22
 21 328 21 328 24.5 358.5 c 128,-1,23
 28 389 28 389 40.5 427.5 c 128,-1,24
 53 466 53 466 69 502 c 128,-1,25
 85 538 85 538 102.5 566.5 c 128,-1,26
 120 595 120 595 134 606 c 0,27,28
 149 618 149 618 180.5 627.5 c 128,-1,29
 212 637 212 637 249.5 643.5 c 128,-1,30
 287 650 287 650 326 651.5 c 128,-1,31
 365 653 365 653 395 648 c 128,-1,32
 425 643 425 643 441 631.5 c 128,-1,33
 457 620 457 620 449 599 c 256,34,35
 441 578 441 578 418.5 576 c 128,-1,36
 396 574 396 574 365.5 579 c 128,-1,37
 335 584 335 584 299 590 c 128,-1,38
 263 596 263 596 228 592 c 128,-1,39
 193 588 193 588 162 569 c 128,-1,40
 131 550 131 550 111 504 c 0,41,42
 107 496 107 496 102 484 c 128,-1,43
 97 472 97 472 93 458.5 c 128,-1,44
 89 445 89 445 87 432.5 c 128,-1,45
 85 420 85 420 87 410 c 1,46,47
 105 405 105 405 128 408.5 c 128,-1,48
 151 412 151 412 178.5 415.5 c 128,-1,49
 206 419 206 419 238.5 417.5 c 128,-1,50
 271 416 271 416 307 401 c 0,51,52
 360 380 360 380 391.5 347 c 128,-1,53
 423 314 423 314 436.5 275 c 128,-1,54
 450 236 450 236 447 195 c 128,-1,55
 444 154 444 154 427.5 117 c 128,-1,56
 411 80 411 80 382 50 c 128,-1,57
 353 20 353 20 314.5 4 c 128,-1,58
 276 -12 276 -12 230.5 -11 c 128,-1,59
 185 -10 185 -10 134 15 c 1,0,1
EndSplineSet
EndChar

StartChar: six
Encoding: 54 54 25
Width: 520
Flags: W
LayerCount: 2
Fore
SplineSet
118 8 m 0,0,1
 90 19 90 19 71 48.5 c 128,-1,2
 52 78 52 78 40 119 c 128,-1,3
 28 160 28 160 23.5 208.5 c 128,-1,4
 19 257 19 257 20.5 305 c 128,-1,5
 22 353 22 353 29.5 398 c 128,-1,6
 37 443 37 443 49.5 476.5 c 128,-1,7
 62 510 62 510 79.5 528.5 c 128,-1,8
 97 547 97 547 118 544 c 1,9,10
 123 520 123 520 116.5 490.5 c 128,-1,11
 110 461 110 461 100 430.5 c 128,-1,12
 90 400 90 400 81 370 c 128,-1,13
 72 340 72 340 71 315 c 0,14,15
 69 269 69 269 70 221 c 128,-1,16
 71 173 71 173 84.5 134.5 c 128,-1,17
 98 96 98 96 129.5 73 c 128,-1,18
 161 50 161 50 220 55 c 0,19,20
 231 56 231 56 245.5 59 c 128,-1,21
 260 62 260 62 274 68 c 128,-1,22
 288 74 288 74 299 82.5 c 128,-1,23
 310 91 310 91 315 102 c 0,24,25
 329 134 329 134 331.5 178 c 128,-1,26
 334 222 334 222 341 265 c 128,-1,27
 348 308 348 308 367 341.5 c 128,-1,28
 386 375 386 375 433 386 c 0,29,30
 462 392 462 392 477.5 378 c 128,-1,31
 493 364 493 364 504 339 c 1,32,33
 507 295 507 295 493 247.5 c 128,-1,34
 479 200 479 200 452.5 157 c 128,-1,35
 426 114 426 114 388.5 78 c 128,-1,36
 351 42 351 42 307 20 c 128,-1,37
 263 -2 263 -2 214.5 -7 c 128,-1,38
 166 -12 166 -12 118 8 c 0,0,1
378 173 m 0,39,40
 378 172 378 172 384 169.5 c 128,-1,41
 390 167 390 167 394 166 c 1,42,-1
 401 166 l 1,43,44
 411 176 411 176 427.5 198.5 c 128,-1,45
 444 221 444 221 455.5 245.5 c 128,-1,46
 467 270 467 270 468 293.5 c 128,-1,47
 469 317 469 317 449 331 c 1,48,49
 432 321 432 321 415.5 302.5 c 128,-1,50
 399 284 399 284 388 262 c 128,-1,51
 377 240 377 240 373.5 216.5 c 128,-1,52
 370 193 370 193 378 173 c 0,39,40
EndSplineSet
EndChar

StartChar: seven
Encoding: 55 55 26
Width: 630
Flags: W
LayerCount: 2
Fore
SplineSet
220 94 m 1,0,1
 241 108 241 108 251 140.5 c 128,-1,2
 261 173 261 173 266 210 c 128,-1,3
 271 247 271 247 274 282.5 c 128,-1,4
 277 318 277 318 284 339 c 1,5,-1
 275 339 l 1,6,7
 221 322 221 322 173 303 c 128,-1,8
 125 284 125 284 71 260 c 1,9,10
 58 252 58 252 51 265.5 c 128,-1,11
 44 279 44 279 45 297 c 128,-1,12
 46 315 46 315 55.5 328 c 128,-1,13
 65 341 65 341 86 331 c 1,14,15
 137 347 137 347 175 358.5 c 128,-1,16
 213 370 213 370 239.5 382.5 c 128,-1,17
 266 395 266 395 282 411.5 c 128,-1,18
 298 428 298 428 306.5 455 c 128,-1,19
 315 482 315 482 316 522.5 c 128,-1,20
 317 563 317 563 314 623 c 1,21,22
 273 612 273 612 240.5 596 c 128,-1,23
 208 580 208 580 178 562 c 128,-1,24
 148 544 148 544 118 525 c 128,-1,25
 88 506 88 506 54 488 c 0,26,27
 42 482 42 482 32 490.5 c 128,-1,28
 22 499 22 499 16.5 511.5 c 128,-1,29
 11 524 11 524 12 536.5 c 128,-1,30
 13 549 13 549 24 551 c 1,31,32
 58 569 58 569 96 588.5 c 128,-1,33
 134 608 134 608 173 627 c 128,-1,34
 212 646 212 646 252 663 c 128,-1,35
 292 680 292 680 331 693 c 0,36,37
 342 697 342 697 349 692 c 128,-1,38
 356 687 356 687 361 678 c 1,39,40
 364 645 364 645 360.5 612.5 c 128,-1,41
 357 580 357 580 353 547.5 c 128,-1,42
 349 515 349 515 346 482.5 c 128,-1,43
 343 450 343 450 346 418 c 1,44,45
 409 437 409 437 470 452 c 128,-1,46
 531 467 531 467 591 497 c 1,47,48
 591 497 591 497 596 490 c 128,-1,49
 601 483 601 483 605.5 472 c 128,-1,50
 610 461 610 461 612.5 449 c 128,-1,51
 615 437 615 437 612.5 428.5 c 128,-1,52
 610 420 610 420 599 416 c 128,-1,53
 588 412 588 412 566 418 c 1,54,-1
 559 418 l 1,55,56
 548 416 548 416 521 409 c 128,-1,57
 494 402 494 402 464 394.5 c 128,-1,58
 434 387 434 387 407 380.5 c 128,-1,59
 380 374 380 374 370 371 c 0,60,61
 353 366 353 366 344.5 363 c 128,-1,62
 336 360 336 360 332.5 356 c 128,-1,63
 329 352 329 352 327.5 345 c 128,-1,64
 326 338 326 338 323 323 c 0,65,66
 320 309 320 309 313 273 c 128,-1,67
 306 237 306 237 298.5 197 c 128,-1,68
 291 157 291 157 284.5 121 c 128,-1,69
 278 85 278 85 275 71 c 1,70,71
 281 50 281 50 273 33.5 c 128,-1,72
 265 17 265 17 253 8 c 128,-1,73
 241 -1 241 -1 230.5 -2 c 128,-1,74
 220 -3 220 -3 220 8 c 2,75,-1
 220 94 l 1,0,1
EndSplineSet
EndChar

StartChar: eight
Encoding: 56 56 27
Width: 465
Flags: W
LayerCount: 2
Fore
SplineSet
71 15 m 256,0,1
 45 34 45 34 34.5 72 c 128,-1,2
 24 110 24 110 24.5 156.5 c 128,-1,3
 25 203 25 203 33.5 251 c 128,-1,4
 42 299 42 299 54.5 337.5 c 128,-1,5
 67 376 67 376 80 399 c 128,-1,6
 93 422 93 422 102 418 c 0,7,8
 111 413 111 413 111.5 403.5 c 128,-1,9
 112 394 112 394 110 386 c 0,10,11
 99 353 99 353 89.5 318 c 128,-1,12
 80 283 80 283 74 247 c 128,-1,13
 68 211 68 211 67 174.5 c 128,-1,14
 66 138 66 138 71 102 c 1,15,16
 92 72 92 72 116.5 63.5 c 128,-1,17
 141 55 141 55 166.5 62.5 c 128,-1,18
 192 70 192 70 216.5 91 c 128,-1,19
 241 112 241 112 260.5 141.5 c 128,-1,20
 280 171 280 171 293.5 206 c 128,-1,21
 307 241 307 241 310.5 277 c 128,-1,22
 314 313 314 313 306 347.5 c 128,-1,23
 298 382 298 382 275 410 c 0,24,25
 264 423 264 423 250 423 c 128,-1,26
 236 423 236 423 221 419 c 128,-1,27
 206 415 206 415 191.5 410.5 c 128,-1,28
 177 406 177 406 165 410 c 0,29,30
 160 412 160 412 154.5 425 c 128,-1,31
 149 438 149 438 144.5 453 c 128,-1,32
 140 468 140 468 137 481 c 128,-1,33
 134 494 134 494 133 497 c 0,34,35
 129 510 129 510 128.5 536.5 c 128,-1,36
 128 563 128 563 131.5 595 c 128,-1,37
 135 627 135 627 143.5 660 c 128,-1,38
 152 693 152 693 166.5 719 c 128,-1,39
 181 745 181 745 201.5 759 c 128,-1,40
 222 773 222 773 250 768 c 0,41,42
 257 766 257 766 248.5 749 c 128,-1,43
 240 732 240 732 225 706 c 128,-1,44
 210 680 210 680 193 649 c 128,-1,45
 176 618 176 618 166.5 588.5 c 128,-1,46
 157 559 157 559 160 534 c 128,-1,47
 163 509 163 509 188 497 c 1,48,49
 226 492 226 492 248.5 491.5 c 128,-1,50
 271 491 271 491 288.5 498.5 c 128,-1,51
 306 506 306 506 323.5 524.5 c 128,-1,52
 341 543 341 543 370 575 c 0,53,54
 380 586 380 586 390 593.5 c 128,-1,55
 400 601 400 601 406.5 608.5 c 128,-1,56
 413 616 413 616 414 625.5 c 128,-1,57
 415 635 415 635 407 650 c 0,58,59
 403 656 403 656 385 661.5 c 128,-1,60
 367 667 367 667 345 672 c 128,-1,61
 323 677 323 677 304 681 c 128,-1,62
 285 685 285 685 280 690 c 128,-1,63
 275 695 275 695 290 700 c 128,-1,64
 305 705 305 705 352 712 c 0,65,66
 406 720 406 720 429.5 707 c 128,-1,67
 453 694 453 694 455 669.5 c 128,-1,68
 457 645 457 645 442 612.5 c 128,-1,69
 427 580 427 580 404 548.5 c 128,-1,70
 381 517 381 517 354.5 490 c 128,-1,71
 328 463 328 463 307 449 c 1,72,73
 322 415 322 415 332 391 c 128,-1,74
 342 367 342 367 347.5 343 c 128,-1,75
 353 319 353 319 354.5 290.5 c 128,-1,76
 356 262 356 262 354 220 c 0,77,78
 352 194 352 194 338 163.5 c 128,-1,79
 324 133 324 133 301.5 104 c 128,-1,80
 279 75 279 75 250 50.5 c 128,-1,81
 221 26 221 26 190 12 c 128,-1,82
 159 -2 159 -2 128 -3 c 128,-1,83
 97 -4 97 -4 71 15 c 256,0,1
EndSplineSet
EndChar

StartChar: nine
Encoding: 57 57 28
Width: 394
Flags: W
LayerCount: 2
Fore
SplineSet
244 8 m 0,0,1
 241 12 241 12 245 40.5 c 128,-1,2
 249 69 249 69 256.5 110.5 c 128,-1,3
 264 152 264 152 273.5 201 c 128,-1,4
 283 250 283 250 291 295.5 c 128,-1,5
 299 341 299 341 304 378 c 128,-1,6
 309 415 309 415 307 433 c 1,7,8
 288 419 288 419 271.5 400 c 128,-1,9
 255 381 255 381 239.5 360 c 128,-1,10
 224 339 224 339 207.5 319 c 128,-1,11
 191 299 191 299 173 284 c 0,12,13
 128 246 128 246 97 247.5 c 128,-1,14
 66 249 66 249 47.5 276.5 c 128,-1,15
 29 304 29 304 23.5 351.5 c 128,-1,16
 18 399 18 399 25 452.5 c 128,-1,17
 32 506 32 506 51 558.5 c 128,-1,18
 70 611 70 611 100.5 650 c 128,-1,19
 131 689 131 689 172.5 707 c 128,-1,20
 214 725 214 725 267 709 c 0,21,22
 303 698 303 698 324 671 c 128,-1,23
 345 644 345 644 354.5 606.5 c 128,-1,24
 364 569 364 569 364 523 c 128,-1,25
 364 477 364 477 359 429 c 128,-1,26
 354 381 354 381 345.5 333 c 128,-1,27
 337 285 337 285 329.5 242.5 c 128,-1,28
 322 200 322 200 317 165.5 c 128,-1,29
 312 131 312 131 314 111 c 1,30,31
 317 115 317 115 323 122.5 c 128,-1,32
 329 130 329 130 336.5 136 c 128,-1,33
 344 142 344 142 352.5 144 c 128,-1,34
 361 146 361 146 370 141 c 1,35,36
 368 132 368 132 361 114.5 c 128,-1,37
 354 97 354 97 343.5 77 c 128,-1,38
 333 57 333 57 320 38.5 c 128,-1,39
 307 20 307 20 293.5 8 c 128,-1,40
 280 -4 280 -4 267 -5.5 c 128,-1,41
 254 -7 254 -7 244 8 c 0,0,1
71 331 m 256,42,43
 87 310 87 310 107 314.5 c 128,-1,44
 127 319 127 319 150 331 c 0,45,46
 210 364 210 364 244.5 404 c 128,-1,47
 279 444 279 444 293 484.5 c 128,-1,48
 307 525 307 525 304 562 c 128,-1,49
 301 599 301 599 286 625.5 c 128,-1,50
 271 652 271 652 246.5 664.5 c 128,-1,51
 222 677 222 677 194.5 668 c 128,-1,52
 167 659 167 659 138.5 625.5 c 128,-1,53
 110 592 110 592 86 527 c 0,54,55
 79 507 79 507 70 481.5 c 128,-1,56
 61 456 61 456 56 429.5 c 128,-1,57
 51 403 51 403 53 377.5 c 128,-1,58
 55 352 55 352 71 331 c 256,42,43
EndSplineSet
EndChar

StartChar: colon
Encoding: 58 58 29
Width: 158
Flags: W
LayerCount: 2
Fore
SplineSet
79 213 m 0,0,1
 67 230 67 230 67 244 c 128,-1,2
 67 258 67 258 74 268 c 128,-1,3
 81 278 81 278 92.5 283.5 c 128,-1,4
 104 289 104 289 114.5 290 c 128,-1,5
 125 291 125 291 133 287.5 c 128,-1,6
 141 284 141 284 141 276 c 2,7,-1
 141 213 l 2,8,9
 141 209 141 209 135 205.5 c 128,-1,10
 129 202 129 202 121 199 c 128,-1,11
 113 196 113 196 105 193.5 c 128,-1,12
 97 191 97 191 94 189 c 1,13,-1
 102 189 l 1,14,15
 99 192 99 192 90 201 c 128,-1,16
 81 210 81 210 79 213 c 0,0,1
54 450 m 0,17,18
 47 461 47 461 41 466.5 c 128,-1,19
 35 472 35 472 30 477.5 c 128,-1,20
 25 483 25 483 21.5 492.5 c 128,-1,21
 18 502 18 502 15 520 c 1,22,23
 18 523 18 523 23 528.5 c 128,-1,24
 28 534 28 534 34 538.5 c 128,-1,25
 40 543 40 543 45.5 545 c 128,-1,26
 51 547 51 547 54 544 c 2,27,-1
 94 505 l 2,28,29
 101 498 101 498 98.5 488.5 c 128,-1,30
 96 479 96 479 89.5 470 c 128,-1,31
 83 461 83 461 74.5 453 c 128,-1,32
 66 445 66 445 62 441 c 1,33,34
 61 442 61 442 58 445 c 128,-1,35
 55 448 55 448 54 450 c 0,17,18
EndSplineSet
EndChar

StartChar: semicolon
Encoding: 59 59 30
Width: 261
Flags: W
LayerCount: 2
Fore
SplineSet
70 -286 m 0,0,1
 67 -281 67 -281 70 -278 c 1,2,3
 113 -264 113 -264 132.5 -243.5 c 128,-1,4
 152 -223 152 -223 157 -198.5 c 128,-1,5
 162 -174 162 -174 156.5 -146 c 128,-1,6
 151 -118 151 -118 144.5 -89 c 128,-1,7
 138 -60 138 -60 134.5 -32 c 128,-1,8
 131 -4 131 -4 140 22 c 0,9,10
 147 43 147 43 161 29.5 c 128,-1,11
 175 16 175 16 187.5 -16.5 c 128,-1,12
 200 -49 200 -49 207.5 -94 c 128,-1,13
 215 -139 215 -139 210 -181 c 128,-1,14
 205 -223 205 -223 183.5 -255 c 128,-1,15
 162 -287 162 -287 117 -293 c 0,16,17
 112 -294 112 -294 105 -295 c 128,-1,18
 98 -296 98 -296 91.5 -296 c 128,-1,19
 85 -296 85 -296 79 -294 c 128,-1,20
 73 -292 73 -292 70 -286 c 0,0,1
77 305 m 1,21,22
 54 323 54 323 49.5 345 c 128,-1,23
 45 367 45 367 54 386 c 128,-1,24
 63 405 63 405 83.5 416.5 c 128,-1,25
 104 428 104 428 132 424 c 1,26,27
 153 398 153 398 154.5 372.5 c 128,-1,28
 156 347 156 347 145.5 329 c 128,-1,29
 135 311 135 311 116 303.5 c 128,-1,30
 97 296 97 296 77 305 c 1,21,22
EndSplineSet
EndChar

StartChar: less
Encoding: 60 60 31
Width: 638
Flags: W
LayerCount: 2
Fore
SplineSet
481 8 m 1,0,1
 469 10 469 10 443.5 13.5 c 128,-1,2
 418 17 418 17 386 21.5 c 128,-1,3
 354 26 354 26 319 31.5 c 128,-1,4
 284 37 284 37 252 41.5 c 128,-1,5
 220 46 220 46 195 49.5 c 128,-1,6
 170 53 170 53 158 55 c 0,7,8
 156 55 156 55 150.5 56.5 c 128,-1,9
 145 58 145 58 138.5 59.5 c 128,-1,10
 132 61 132 61 126 62 c 128,-1,11
 120 63 120 63 119 63 c 2,12,-1
 32 63 l 2,13,14
 19 63 19 63 12.5 76.5 c 128,-1,15
 6 90 6 90 7 106 c 128,-1,16
 8 122 8 122 17.5 133.5 c 128,-1,17
 27 145 27 145 47 141 c 1,18,19
 55 146 55 146 74.5 159.5 c 128,-1,20
 94 173 94 173 115.5 188 c 128,-1,21
 137 203 137 203 155.5 217 c 128,-1,22
 174 231 174 231 181 237 c 0,23,24
 184 239 184 239 198 252.5 c 128,-1,25
 212 266 212 266 229.5 283.5 c 128,-1,26
 247 301 247 301 264.5 318.5 c 128,-1,27
 282 336 282 336 292 346 c 0,28,29
 305 360 305 360 314.5 375.5 c 128,-1,30
 324 391 324 391 332.5 407 c 128,-1,31
 341 423 341 423 350 438 c 128,-1,32
 359 453 359 453 371 465 c 0,33,34
 374 468 374 468 387 463.5 c 128,-1,35
 400 459 400 459 409 447.5 c 128,-1,36
 418 436 418 436 417.5 418.5 c 128,-1,37
 417 401 417 401 394 378 c 2,38,-1
 205 189 l 1,39,40
 182 175 182 175 160.5 159.5 c 128,-1,41
 139 144 139 144 119 126 c 1,42,43
 120 121 120 121 126 118.5 c 128,-1,44
 132 116 132 116 138.5 114 c 128,-1,45
 145 112 145 112 150.5 111.5 c 128,-1,46
 156 111 156 111 158 111 c 0,47,48
 213 103 213 103 270 93.5 c 128,-1,49
 327 84 327 84 384.5 77.5 c 128,-1,50
 442 71 442 71 499.5 68.5 c 128,-1,51
 557 66 557 66 614 71 c 1,52,53
 626 53 626 53 611.5 38.5 c 128,-1,54
 597 24 597 24 572 15 c 128,-1,55
 547 6 547 6 520 4 c 128,-1,56
 493 2 493 2 481 8 c 1,0,1
EndSplineSet
EndChar

StartChar: equal
Encoding: 61 61 32
Width: 457
Flags: W
LayerCount: 2
Fore
SplineSet
14 152 m 0,0,1
 -5 178 -5 178 6 193 c 128,-1,2
 17 208 17 208 46 214 c 128,-1,3
 75 220 75 220 117.5 219 c 128,-1,4
 160 218 160 218 204 212 c 128,-1,5
 248 206 248 206 289 197.5 c 128,-1,6
 330 189 330 189 356 180 c 128,-1,7
 382 171 382 171 388 163.5 c 128,-1,8
 394 156 394 156 369 152 c 1,9,10
 348 153 348 153 316 150 c 128,-1,11
 284 147 284 147 247.5 143 c 128,-1,12
 211 139 211 139 173 135.5 c 128,-1,13
 135 132 135 132 102.5 131.5 c 128,-1,14
 70 131 70 131 46 135.5 c 128,-1,15
 22 140 22 140 14 152 c 0,0,1
307 292 m 1,16,17
 242 297 242 297 177.5 299 c 128,-1,18
 113 301 113 301 47 299 c 1,19,20
 36 304 36 304 27.5 311 c 128,-1,21
 19 318 19 318 16 331 c 0,22,23
 11 352 11 352 31 361.5 c 128,-1,24
 51 371 51 371 84 373 c 128,-1,25
 117 375 117 375 157 371 c 128,-1,26
 197 367 197 367 232 361.5 c 128,-1,27
 267 356 267 356 290.5 351 c 128,-1,28
 314 346 314 346 315 346 c 0,29,30
 338 329 338 329 343 312.5 c 128,-1,31
 348 296 348 296 342.5 286 c 128,-1,32
 337 276 337 276 326 275.5 c 128,-1,33
 315 275 315 275 307 292 c 1,16,17
EndSplineSet
EndChar

StartChar: greater
Encoding: 62 62 33
Width: 441
Flags: W
LayerCount: 2
Fore
SplineSet
220 15 m 1,0,1
 216 29 216 29 228 58.5 c 128,-1,2
 240 88 240 88 259.5 125 c 128,-1,3
 279 162 279 162 302.5 202.5 c 128,-1,4
 326 243 326 243 344.5 279.5 c 128,-1,5
 363 316 363 316 371.5 344.5 c 128,-1,6
 380 373 380 373 370 386 c 0,7,8
 368 389 368 389 359 392 c 128,-1,9
 350 395 350 395 346 394 c 1,10,-1
 133 394 l 2,11,12
 130 394 130 394 117.5 390.5 c 128,-1,13
 105 387 105 387 89.5 383.5 c 128,-1,14
 74 380 74 380 59.5 378 c 128,-1,15
 45 376 45 376 39 378 c 0,16,17
 28 383 28 383 22.5 395 c 128,-1,18
 17 407 17 407 15 418 c 0,19,20
 11 434 11 434 21 441 c 128,-1,21
 31 448 31 448 46 449.5 c 128,-1,22
 61 451 61 451 75.5 450 c 128,-1,23
 90 449 90 449 94 449 c 0,24,25
 152 451 152 451 188.5 453.5 c 128,-1,26
 225 456 225 456 256.5 457 c 128,-1,27
 288 458 288 458 324 456.5 c 128,-1,28
 360 455 360 455 417 449 c 1,29,30
 425 431 425 431 426 410 c 128,-1,31
 427 389 427 389 425 371 c 1,32,33
 421 359 421 359 410 330 c 128,-1,34
 399 301 399 301 386 268.5 c 128,-1,35
 373 236 373 236 361.5 207 c 128,-1,36
 350 178 350 178 346 166 c 0,37,38
 341 152 341 152 332 121.5 c 128,-1,39
 323 91 323 91 309.5 61 c 128,-1,40
 296 31 296 31 278 11.5 c 128,-1,41
 260 -8 260 -8 236 0 c 0,42,43
 233 2 233 2 227.5 7.5 c 128,-1,44
 222 13 222 13 220 15 c 1,0,1
EndSplineSet
EndChar

StartChar: question
Encoding: 63 63 34
Width: 527
Flags: W
LayerCount: 2
Fore
SplineSet
284 8 m 1,0,1
 265 22 265 22 261 38.5 c 128,-1,2
 257 55 257 55 263.5 68.5 c 128,-1,3
 270 82 270 82 286 90 c 128,-1,4
 302 98 302 98 323 94 c 0,5,6
 332 93 332 93 337.5 82 c 128,-1,7
 343 71 343 71 344.5 57 c 128,-1,8
 346 43 346 43 343.5 28.5 c 128,-1,9
 341 14 341 14 333.5 5 c 128,-1,10
 326 -4 326 -4 313.5 -5 c 128,-1,11
 301 -6 301 -6 284 8 c 1,0,1
270 277 m 0,12,13
 262 300 262 300 277.5 334 c 128,-1,14
 293 368 293 368 320 409.5 c 128,-1,15
 347 451 347 451 380.5 498.5 c 128,-1,16
 414 546 414 546 442 595 c 128,-1,17
 470 644 470 644 486.5 693.5 c 128,-1,18
 503 743 503 743 498 789 c 1,19,20
 494 797 494 797 483 800.5 c 128,-1,21
 472 804 472 804 466 805 c 0,22,23
 408 809 408 809 356 796.5 c 128,-1,24
 304 784 304 784 257 758 c 128,-1,25
 210 732 210 732 168 695.5 c 128,-1,26
 126 659 126 659 88 616 c 1,27,28
 86 616 86 616 76 615.5 c 128,-1,29
 66 615 66 615 56 616.5 c 128,-1,30
 46 618 46 618 38.5 623 c 128,-1,31
 31 628 31 628 33 639 c 256,32,33
 35 650 35 650 52.5 666.5 c 128,-1,34
 70 683 70 683 95.5 702 c 128,-1,35
 121 721 121 721 151.5 740.5 c 128,-1,36
 182 760 182 760 209 776.5 c 128,-1,37
 236 793 236 793 257 805 c 128,-1,38
 278 817 278 817 285 821 c 0,39,40
 325 842 325 842 369 849.5 c 128,-1,41
 413 857 413 857 458 852 c 0,42,43
 518 846 518 846 536 812.5 c 128,-1,44
 554 779 554 779 545.5 730.5 c 128,-1,45
 537 682 537 682 509 625 c 128,-1,46
 481 568 481 568 449 514.5 c 128,-1,47
 417 461 417 461 388 418.5 c 128,-1,48
 359 376 359 376 348 356 c 0,49,50
 341 344 341 344 336 329 c 128,-1,51
 331 314 331 314 324.5 300.5 c 128,-1,52
 318 287 318 287 309 276 c 128,-1,53
 300 265 300 265 285 262 c 0,54,55
 277 260 277 260 275 264.5 c 128,-1,56
 273 269 273 269 270 277 c 0,12,13
EndSplineSet
EndChar

StartChar: at
Encoding: 64 64 35
Width: 1130
Flags: W
LayerCount: 2
Fore
SplineSet
220 -165 m 0,0,1
 156 -154 156 -154 117 -114 c 128,-1,2
 78 -74 78 -74 59 -20 c 128,-1,3
 40 34 40 34 40 94 c 128,-1,4
 40 154 40 154 54 205 c 0,5,6
 83 307 83 307 134 410 c 128,-1,7
 185 513 185 513 250 604 c 128,-1,8
 315 695 315 695 392 768 c 128,-1,9
 469 841 469 841 550 883 c 1,10,11
 641 927 641 927 718 931.5 c 128,-1,12
 795 936 795 936 856.5 911.5 c 128,-1,13
 918 887 918 887 963.5 837.5 c 128,-1,14
 1009 788 1009 788 1038.5 724 c 128,-1,15
 1068 660 1068 660 1080.5 587 c 128,-1,16
 1093 514 1093 514 1088 441.5 c 128,-1,17
 1083 369 1083 369 1060 302 c 128,-1,18
 1037 235 1037 235 996 183.5 c 128,-1,19
 955 132 955 132 895 101.5 c 128,-1,20
 835 71 835 71 755 71 c 0,21,22
 691 71 691 71 641 106 c 128,-1,23
 591 141 591 141 574 205 c 1,24,25
 564 210 564 210 551 201 c 128,-1,26
 538 192 538 192 521 177 c 128,-1,27
 504 162 504 162 485 145 c 128,-1,28
 466 128 466 128 444.5 117 c 128,-1,29
 423 106 423 106 400 104.5 c 128,-1,30
 377 103 377 103 354 119 c 0,31,32
 324 139 324 139 312 182.5 c 128,-1,33
 300 226 300 226 302 282 c 128,-1,34
 304 338 304 338 318.5 400 c 128,-1,35
 333 462 333 462 354.5 517.5 c 128,-1,36
 376 573 376 573 404 616.5 c 128,-1,37
 432 660 432 660 461.5 679.5 c 128,-1,38
 491 699 491 699 520 688 c 128,-1,39
 549 677 549 677 574 623 c 0,40,41
 601 565 601 565 617.5 500.5 c 128,-1,42
 634 436 634 436 629 371 c 1,43,44
 612 364 612 364 607 342.5 c 128,-1,45
 602 321 602 321 603.5 296 c 128,-1,46
 605 271 605 271 610.5 247.5 c 128,-1,47
 616 224 616 224 621 213 c 0,48,49
 639 173 639 173 674 151.5 c 128,-1,50
 709 130 709 130 750 125.5 c 128,-1,51
 791 121 791 121 832.5 133 c 128,-1,52
 874 145 874 145 905 173 c 0,53,54
 999 258 999 258 1031.5 370 c 128,-1,55
 1064 482 1064 482 1039 607 c 0,56,57
 1028 659 1028 659 1006.5 707 c 128,-1,58
 985 755 985 755 952 792.5 c 128,-1,59
 919 830 919 830 873.5 854 c 128,-1,60
 828 878 828 878 771 883 c 1,61,62
 699 888 699 888 628 864 c 128,-1,63
 557 840 557 840 490.5 795 c 128,-1,64
 424 750 424 750 364 688 c 128,-1,65
 304 626 304 626 253.5 554.5 c 128,-1,66
 203 483 203 483 165 406.5 c 128,-1,67
 127 330 127 330 104.5 256 c 128,-1,68
 82 182 82 182 77 115 c 128,-1,69
 72 48 72 48 88.5 -5 c 128,-1,70
 105 -58 105 -58 144.5 -92 c 128,-1,71
 184 -126 184 -126 251 -134 c 0,72,73
 267 -136 267 -136 285 -137 c 128,-1,74
 303 -138 303 -138 321 -136 c 128,-1,75
 339 -134 339 -134 355 -128 c 128,-1,76
 371 -122 371 -122 384 -110 c 1,77,78
 390 -112 390 -112 392 -118 c 128,-1,79
 394 -124 394 -124 394.5 -130.5 c 128,-1,80
 395 -137 395 -137 394 -143 c 128,-1,81
 393 -149 393 -149 393 -149 c 1,82,83
 386 -147 386 -147 363.5 -150 c 128,-1,84
 341 -153 341 -153 314 -157.5 c 128,-1,85
 287 -162 287 -162 261 -165 c 128,-1,86
 235 -168 235 -168 220 -165 c 0,0,1
361 189 m 0,87,88
 363 187 363 187 369 181 c 128,-1,89
 375 175 375 175 377 173 c 1,90,91
 419 168 419 168 452.5 192.5 c 128,-1,92
 486 217 486 217 508 255 c 128,-1,93
 530 293 530 293 539 337.5 c 128,-1,94
 548 382 548 382 542 418 c 1,95,96
 553 423 553 423 559 443.5 c 128,-1,97
 565 464 565 464 566 491.5 c 128,-1,98
 567 519 567 519 563 548 c 128,-1,99
 559 577 559 577 550.5 600.5 c 128,-1,100
 542 624 542 624 529 637 c 128,-1,101
 516 650 516 650 498 644 c 128,-1,102
 480 638 480 638 458 609 c 128,-1,103
 436 580 436 580 409 520 c 0,104,105
 375 446 375 446 358 371 c 128,-1,106
 341 296 341 296 346 213 c 1,107,108
 348 210 348 210 353.5 201 c 128,-1,109
 359 192 359 192 361 189 c 0,87,88
566 237 m 0,110,111
 561 237 561 237 561 229 c 128,-1,112
 561 221 561 221 566 221 c 0,113,114
 572 221 572 221 572 229 c 128,-1,115
 572 237 572 237 566 237 c 0,110,111
EndSplineSet
EndChar

StartChar: A
Encoding: 65 65 36
Width: 754
Flags: W
LayerCount: 2
Fore
SplineSet
150 8 m 0,0,1
 115 22 115 22 92.5 49.5 c 128,-1,2
 70 77 70 77 56.5 112.5 c 128,-1,3
 43 148 43 148 37 188.5 c 128,-1,4
 31 229 31 229 29.5 269.5 c 128,-1,5
 28 310 28 310 29.5 346.5 c 128,-1,6
 31 383 31 383 32 410 c 0,7,8
 36 499 36 499 66 571.5 c 128,-1,9
 96 644 96 644 155 717 c 1,10,11
 193 762 193 762 226.5 776.5 c 128,-1,12
 260 791 260 791 288 783.5 c 128,-1,13
 316 776 316 776 339 751.5 c 128,-1,14
 362 727 362 727 378 694.5 c 128,-1,15
 394 662 394 662 403.5 627 c 128,-1,16
 413 592 413 592 415 563 c 128,-1,17
 417 534 417 534 411 515.5 c 128,-1,18
 405 497 405 497 390 499 c 1,19,20
 384 526 384 526 381.5 538 c 128,-1,21
 379 550 379 550 375 562 c 128,-1,22
 371 574 371 574 362.5 593.5 c 128,-1,23
 354 613 354 613 336 655 c 1,24,25
 308 711 308 711 279 726 c 128,-1,26
 250 741 250 741 223 725 c 128,-1,27
 196 709 196 709 171.5 668 c 128,-1,28
 147 627 147 627 127 572.5 c 128,-1,29
 107 518 107 518 93 456 c 128,-1,30
 79 394 79 394 73 335.5 c 128,-1,31
 67 277 67 277 70 228 c 128,-1,32
 73 179 73 179 87 150 c 1,33,34
 94 132 94 132 104.5 112 c 128,-1,35
 115 92 115 92 130 76.5 c 128,-1,36
 145 61 145 61 163.5 52 c 128,-1,37
 182 43 182 43 205 47 c 0,38,39
 253 57 253 57 288 88 c 128,-1,40
 323 119 323 119 348 163 c 128,-1,41
 373 207 373 207 390 261 c 128,-1,42
 407 315 407 315 418.5 370 c 128,-1,43
 430 425 430 425 438 477.5 c 128,-1,44
 446 530 446 530 452.5 571.5 c 128,-1,45
 459 613 459 613 466.5 639.5 c 128,-1,46
 474 666 474 666 485 670 c 0,47,48
 495 673 495 673 502 669 c 128,-1,49
 509 665 509 665 513 657 c 128,-1,50
 517 649 517 649 518 639.5 c 128,-1,51
 519 630 519 630 517 623 c 1,52,53
 484 566 484 566 471.5 507.5 c 128,-1,54
 459 449 459 449 462.5 393.5 c 128,-1,55
 466 338 466 338 482.5 287.5 c 128,-1,56
 499 237 499 237 523.5 194.5 c 128,-1,57
 548 152 548 152 577.5 119.5 c 128,-1,58
 607 87 607 87 636.5 68.5 c 128,-1,59
 666 50 666 50 692.5 47 c 128,-1,60
 719 44 719 44 738 61 c 1,61,62
 778 103 778 103 800 112.5 c 128,-1,63
 822 122 822 122 829 112.5 c 128,-1,64
 836 103 836 103 829 80 c 128,-1,65
 822 57 822 57 804 34.5 c 128,-1,66
 786 12 786 12 758 -4.5 c 128,-1,67
 730 -21 730 -21 696 -18.5 c 128,-1,68
 662 -16 662 -16 622 13 c 128,-1,69
 582 42 582 42 540 109 c 1,70,71
 523 131 523 131 508 158 c 128,-1,72
 493 185 493 185 479.5 213 c 128,-1,73
 466 241 466 241 454.5 269 c 128,-1,74
 443 297 443 297 433 323 c 1,75,76
 427 294 427 294 415.5 254.5 c 128,-1,77
 404 215 404 215 386.5 174.5 c 128,-1,78
 369 134 369 134 345.5 96.5 c 128,-1,79
 322 59 322 59 292.5 34 c 128,-1,80
 263 9 263 9 227 0 c 128,-1,81
 191 -9 191 -9 150 8 c 0,0,1
EndSplineSet
EndChar

StartChar: B
Encoding: 66 66 37
Width: 685
Flags: W
LayerCount: 2
Fore
SplineSet
220 8 m 0,0,1
 170 17 170 17 139.5 30 c 128,-1,2
 109 43 109 43 93 60.5 c 128,-1,3
 77 78 77 78 73 101 c 128,-1,4
 69 124 69 124 70 153 c 128,-1,5
 71 182 71 182 74.5 217.5 c 128,-1,6
 78 253 78 253 79 296 c 0,7,8
 79 324 79 324 79 359 c 128,-1,9
 79 394 79 394 78 429.5 c 128,-1,10
 77 465 77 465 76 499 c 128,-1,11
 75 533 75 533 74.5 559 c 128,-1,12
 74 585 74 585 73 601 c 128,-1,13
 72 617 72 617 72 618 c 2,14,-1
 64 626 l 1,15,16
 61 621 61 621 54.5 614 c 128,-1,17
 48 607 48 607 40 610 c 0,18,19
 11 621 11 621 12 641.5 c 128,-1,20
 13 662 13 662 35.5 685.5 c 128,-1,21
 58 709 58 709 97.5 731.5 c 128,-1,22
 137 754 137 754 186 769.5 c 128,-1,23
 235 785 235 785 289 790 c 128,-1,24
 343 795 343 795 394 783 c 1,25,26
 453 783 453 783 474 763 c 128,-1,27
 495 743 495 743 492.5 713 c 128,-1,28
 490 683 490 683 471.5 647 c 128,-1,29
 453 611 453 611 431.5 580 c 128,-1,30
 410 549 410 549 393 526.5 c 128,-1,31
 376 504 376 504 378 501 c 1,32,33
 477 489 477 489 538 458.5 c 128,-1,34
 599 428 599 428 628.5 387.5 c 128,-1,35
 658 347 658 347 659 299 c 128,-1,36
 660 251 660 251 638.5 205 c 128,-1,37
 617 159 617 159 575.5 117.5 c 128,-1,38
 534 76 534 76 478.5 47.5 c 128,-1,39
 423 19 423 19 357 7 c 128,-1,40
 291 -5 291 -5 220 8 c 0,0,1
181 63 m 0,41,42
 267 32 267 32 348.5 38.5 c 128,-1,43
 430 45 430 45 492 82.5 c 128,-1,44
 554 120 554 120 588.5 185 c 128,-1,45
 623 250 623 250 614 335 c 1,46,47
 604 368 604 368 577 389.5 c 128,-1,48
 550 411 550 411 520 422 c 0,49,50
 454 448 454 448 408.5 449.5 c 128,-1,51
 363 451 363 451 330.5 437.5 c 128,-1,52
 298 424 298 424 274.5 401 c 128,-1,53
 251 378 251 378 228.5 356 c 128,-1,54
 206 334 206 334 180 318.5 c 128,-1,55
 154 303 154 303 118 304 c 1,56,-1
 118 173 l 1,57,58
 120 171 120 171 127.5 175.5 c 128,-1,59
 135 180 135 180 144.5 185 c 128,-1,60
 154 190 154 190 164 194 c 128,-1,61
 174 198 174 198 181 197 c 1,62,-1
 181 189 l 1,63,-1
 134 118 l 2,64,65
 129 111 129 111 135 102 c 128,-1,66
 141 93 141 93 150 85 c 128,-1,67
 159 77 159 77 168.5 70.5 c 128,-1,68
 178 64 178 64 181 63 c 0,41,42
118 509 m 0,69,70
 118 501 118 501 119 482 c 128,-1,71
 120 463 120 463 121.5 441.5 c 128,-1,72
 123 420 123 420 124 401 c 128,-1,73
 125 382 125 382 126 375 c 1,74,75
 150 402 150 402 185.5 424 c 128,-1,76
 221 446 221 446 259.5 467 c 128,-1,77
 298 488 298 488 335 510.5 c 128,-1,78
 372 533 372 533 399 561.5 c 128,-1,79
 426 590 426 590 439 626.5 c 128,-1,80
 452 663 452 663 442 712 c 1,81,82
 425 727 425 727 396 735.5 c 128,-1,83
 367 744 367 744 333 746 c 128,-1,84
 299 748 299 748 263.5 743.5 c 128,-1,85
 228 739 228 739 197 728 c 128,-1,86
 166 717 166 717 143 699 c 128,-1,87
 120 681 120 681 111 657 c 1,88,89
 111 645 111 645 112 625 c 128,-1,90
 113 605 113 605 114.5 583.5 c 128,-1,91
 116 562 116 562 117 541.5 c 128,-1,92
 118 521 118 521 118 509 c 0,69,70
EndSplineSet
EndChar

StartChar: C
Encoding: 67 67 38
Width: 606
Flags: W
LayerCount: 2
Fore
SplineSet
181 15 m 0,0,1
 133 29 133 29 101 60.5 c 128,-1,2
 69 92 69 92 50 135 c 128,-1,3
 31 178 31 178 24 230 c 128,-1,4
 17 282 17 282 20 336.5 c 128,-1,5
 23 391 23 391 35 446.5 c 128,-1,6
 47 502 47 502 65.5 551.5 c 128,-1,7
 84 601 84 601 107.5 641.5 c 128,-1,8
 131 682 131 682 158 709 c 0,9,10
 184 735 184 735 207 740 c 128,-1,11
 230 745 230 745 249 736.5 c 128,-1,12
 268 728 268 728 283 708 c 128,-1,13
 298 688 298 688 307 664.5 c 128,-1,14
 316 641 316 641 318.5 616.5 c 128,-1,15
 321 592 321 592 315.5 574 c 128,-1,16
 310 556 310 556 296.5 546.5 c 128,-1,17
 283 537 283 537 260 544 c 1,18,19
 249 557 249 557 253.5 577 c 128,-1,20
 258 597 258 597 262.5 617.5 c 128,-1,21
 267 638 267 638 264.5 656.5 c 128,-1,22
 262 675 262 675 237 685 c 256,23,24
 212 695 212 695 190 680 c 128,-1,25
 168 665 168 665 149.5 632.5 c 128,-1,26
 131 600 131 600 116.5 554.5 c 128,-1,27
 102 509 102 509 92 458.5 c 128,-1,28
 82 408 82 408 77.5 356 c 128,-1,29
 73 304 73 304 73.5 258.5 c 128,-1,30
 74 213 74 213 81 178 c 128,-1,31
 88 143 88 143 102 126 c 0,32,33
 123 101 123 101 147.5 87 c 128,-1,34
 172 73 172 73 199 67 c 128,-1,35
 226 61 226 61 255.5 61 c 128,-1,36
 285 61 285 61 315 63 c 0,37,38
 350 65 350 65 379 79.5 c 128,-1,39
 408 94 408 94 435 112 c 128,-1,40
 462 130 462 130 488 147.5 c 128,-1,41
 514 165 514 165 544 173 c 0,42,43
 581 184 581 184 585.5 171.5 c 128,-1,44
 590 159 590 159 569.5 136 c 128,-1,45
 549 113 549 113 508.5 84.5 c 128,-1,46
 468 56 468 56 415 35 c 128,-1,47
 362 14 362 14 301.5 6 c 128,-1,48
 241 -2 241 -2 181 15 c 0,0,1
EndSplineSet
EndChar

StartChar: D
Encoding: 68 68 39
Width: 630
Flags: W
LayerCount: 2
Fore
SplineSet
110 15 m 1,0,1
 110 20 110 20 109 32.5 c 128,-1,2
 108 45 108 45 106.5 59 c 128,-1,3
 105 73 105 73 104 85 c 128,-1,4
 103 97 103 97 102 102 c 1,5,-1
 94 118 l 1,6,7
 96 187 96 187 96 239 c 128,-1,8
 96 291 96 291 93.5 340 c 128,-1,9
 91 389 91 389 85 440.5 c 128,-1,10
 79 492 79 492 69 561 c 1,11,12
 59 612 59 612 58 644 c 0,13,14
 58 657 58 657 59.5 667.5 c 128,-1,15
 61 678 61 678 65.5 681 c 128,-1,16
 70 684 70 684 78.5 678.5 c 128,-1,17
 87 673 87 673 101 655 c 1,18,19
 104 631 104 631 108.5 587.5 c 128,-1,20
 113 544 113 544 117.5 496.5 c 128,-1,21
 122 449 122 449 126 406 c 128,-1,22
 130 363 130 363 133 339 c 0,23,24
 134 331 134 331 135.5 313 c 128,-1,25
 137 295 137 295 138 275 c 128,-1,26
 139 255 139 255 140 237.5 c 128,-1,27
 141 220 141 220 141 213 c 1,28,29
 147 207 147 207 149.5 196 c 128,-1,30
 152 185 152 185 152 174 c 128,-1,31
 152 163 152 163 151 153.5 c 128,-1,32
 150 144 150 144 150 141 c 1,33,34
 156 129 156 129 170 120.5 c 128,-1,35
 184 112 184 112 201 106.5 c 128,-1,36
 218 101 218 101 236 98 c 128,-1,37
 254 95 254 95 267 94 c 0,38,39
 345 89 345 89 407 122 c 128,-1,40
 469 155 469 155 508 212 c 128,-1,41
 547 269 547 269 559.5 341.5 c 128,-1,42
 572 414 572 414 551 488 c 0,43,44
 538 534 538 534 508 568 c 128,-1,45
 478 602 478 602 436.5 625.5 c 128,-1,46
 395 649 395 649 345.5 664 c 128,-1,47
 296 679 296 679 244 687 c 128,-1,48
 192 695 192 695 141 696.5 c 128,-1,49
 90 698 90 698 45 696 c 1,50,51
 37 699 37 699 37 705.5 c 128,-1,52
 37 712 37 712 41 719.5 c 128,-1,53
 45 727 45 727 51 733.5 c 128,-1,54
 57 740 57 740 61 742 c 1,55,56
 142 757 142 757 223 745.5 c 128,-1,57
 304 734 304 734 375.5 700.5 c 128,-1,58
 447 667 447 667 505 613 c 128,-1,59
 563 559 563 559 598 488 c 1,60,61
 626 419 626 419 622 355 c 128,-1,62
 618 291 618 291 590.5 238 c 128,-1,63
 563 185 563 185 516 145.5 c 128,-1,64
 469 106 469 106 410.5 84.5 c 128,-1,65
 352 63 352 63 286.5 62 c 128,-1,66
 221 61 221 61 157 87 c 1,67,68
 157 83 157 83 159.5 66.5 c 128,-1,69
 162 50 162 50 160.5 32.5 c 128,-1,70
 159 15 159 15 152 4 c 128,-1,71
 145 -7 145 -7 126 0 c 1,72,73
 124 2 124 2 118 7.5 c 128,-1,74
 112 13 112 13 110 15 c 1,0,1
EndSplineSet
EndChar

StartChar: E
Encoding: 69 69 40
Width: 727
Flags: W
LayerCount: 2
Fore
SplineSet
118 15 m 0,0,1
 99 27 99 27 86.5 58 c 128,-1,2
 74 89 74 89 66.5 132 c 128,-1,3
 59 175 59 175 56 227 c 128,-1,4
 53 279 53 279 52.5 332 c 128,-1,5
 52 385 52 385 53.5 436.5 c 128,-1,6
 55 488 55 488 57 529.5 c 128,-1,7
 59 571 59 571 60.5 600 c 128,-1,8
 62 629 62 629 62 638 c 1,9,10
 59 629 59 629 46.5 633.5 c 128,-1,11
 34 638 34 638 24.5 648.5 c 128,-1,12
 15 659 15 659 13.5 672 c 128,-1,13
 12 685 12 685 31 693 c 0,14,15
 55 703 55 703 81.5 709.5 c 128,-1,16
 108 716 108 716 136 721 c 128,-1,17
 164 726 164 726 191 730 c 128,-1,18
 218 734 218 734 244 740 c 1,19,-1
 717 757 l 1,20,21
 732 765 732 765 748.5 763 c 128,-1,22
 765 761 765 761 776 753 c 128,-1,23
 787 745 787 745 790 731.5 c 128,-1,24
 793 718 793 718 780 702 c 1,25,26
 764 703 764 703 728.5 703.5 c 128,-1,27
 693 704 693 704 646 703.5 c 128,-1,28
 599 703 599 703 543 702 c 128,-1,29
 487 701 487 701 430.5 698.5 c 128,-1,30
 374 696 374 696 320.5 691.5 c 128,-1,31
 267 687 267 687 224.5 681 c 128,-1,32
 182 675 182 675 153.5 666 c 128,-1,33
 125 657 125 657 118 646 c 0,34,35
 101 617 101 617 96.5 572.5 c 128,-1,36
 92 528 92 528 93.5 479.5 c 128,-1,37
 95 431 95 431 100.5 385 c 128,-1,38
 106 339 106 339 110 307 c 1,39,40
 125 305 125 305 131 305 c 128,-1,41
 137 305 137 305 140.5 306.5 c 128,-1,42
 144 308 144 308 148.5 310 c 128,-1,43
 153 312 153 312 165 315 c 0,44,45
 171 316 171 316 189.5 319.5 c 128,-1,46
 208 323 208 323 233.5 328 c 128,-1,47
 259 333 259 333 287 338.5 c 128,-1,48
 315 344 315 344 340.5 348.5 c 128,-1,49
 366 353 366 353 385 357 c 128,-1,50
 404 361 404 361 410 362 c 0,51,52
 446 369 446 369 459 375.5 c 128,-1,53
 472 382 472 382 476.5 387.5 c 128,-1,54
 481 393 481 393 484 398.5 c 128,-1,55
 487 404 487 404 504 410 c 0,56,57
 523 416 523 416 528 404.5 c 128,-1,58
 533 393 533 393 525.5 375 c 128,-1,59
 518 357 518 357 498.5 339 c 128,-1,60
 479 321 479 321 449 315 c 0,61,62
 433 312 433 312 391.5 304 c 128,-1,63
 350 296 350 296 303.5 287 c 128,-1,64
 257 278 257 278 215.5 270.5 c 128,-1,65
 174 263 174 263 157 260 c 0,66,67
 155 259 155 259 148 256 c 128,-1,68
 141 253 141 253 133.5 249 c 128,-1,69
 126 245 126 245 119.5 241.5 c 128,-1,70
 113 238 113 238 110 237 c 0,71,72
 109 236 109 236 105.5 233 c 128,-1,73
 102 230 102 230 102 228 c 0,74,75
 106 138 106 138 127 96 c 128,-1,76
 148 54 148 54 186 44.5 c 128,-1,77
 224 35 224 35 281.5 49.5 c 128,-1,78
 339 64 339 64 417 87 c 0,79,80
 437 93 437 93 464.5 98.5 c 128,-1,81
 492 104 492 104 519 113 c 128,-1,82
 546 122 546 122 569.5 134.5 c 128,-1,83
 593 147 593 147 606 166 c 0,84,85
 610 172 610 172 608 176 c 128,-1,86
 606 180 606 180 603 185 c 128,-1,87
 600 190 600 190 599.5 196.5 c 128,-1,88
 599 203 599 203 606 213 c 1,89,90
 652 201 652 201 661 182.5 c 128,-1,91
 670 164 670 164 653 143 c 128,-1,92
 636 122 636 122 597 99.5 c 128,-1,93
 558 77 558 77 507.5 57.5 c 128,-1,94
 457 38 457 38 400 23 c 128,-1,95
 343 8 343 8 289.5 0.5 c 128,-1,96
 236 -7 236 -7 190.5 -4 c 128,-1,97
 145 -1 145 -1 118 15 c 0,0,1
EndSplineSet
EndChar

StartChar: F
Encoding: 70 70 41
Width: 709
Flags: W
LayerCount: 2
Fore
SplineSet
141 8 m 0,0,1
 139 9 139 9 133 15 c 128,-1,2
 127 21 127 21 126 24 c 0,3,4
 121 91 121 91 129 160.5 c 128,-1,5
 137 230 137 230 145.5 300 c 128,-1,6
 154 370 154 370 156 439 c 128,-1,7
 158 508 158 508 141 575 c 2,8,-1
 133 606 l 1,9,-1
 39 606 l 2,10,11
 30 606 30 606 27 613.5 c 128,-1,12
 24 621 24 621 24 630.5 c 128,-1,13
 24 640 24 640 26.5 649 c 128,-1,14
 29 658 29 658 31 662 c 0,15,16
 33 664 33 664 35.5 667 c 128,-1,17
 38 670 38 670 39 670 c 2,18,-1
 133 670 l 1,19,-1
 133 725 l 2,20,21
 133 743 133 743 141.5 738.5 c 128,-1,22
 150 734 150 734 160 721.5 c 128,-1,23
 170 709 170 709 179 694.5 c 128,-1,24
 188 680 188 680 188 678 c 1,25,26
 242 670 242 670 295.5 669.5 c 128,-1,27
 349 669 349 669 402 673.5 c 128,-1,28
 455 678 455 678 508 685.5 c 128,-1,29
 561 693 561 693 614 701 c 0,30,31
 620 702 620 702 629.5 697 c 128,-1,32
 639 692 639 692 646.5 684.5 c 128,-1,33
 654 677 654 677 657 668.5 c 128,-1,34
 660 660 660 660 653 653 c 0,35,36
 635 635 635 635 601 627 c 128,-1,37
 567 619 567 619 524 617 c 128,-1,38
 481 615 481 615 432.5 616 c 128,-1,39
 384 617 384 617 338.5 618 c 128,-1,40
 293 619 293 619 253.5 617 c 128,-1,41
 214 615 214 615 188 606 c 1,42,43
 190 534 190 534 188.5 462.5 c 128,-1,44
 187 391 187 391 184.5 319 c 128,-1,45
 182 247 182 247 180.5 175.5 c 128,-1,46
 179 104 179 104 181 32 c 1,47,-1
 165 0 l 2,48,49
 164 -2 164 -2 155 1.5 c 128,-1,50
 146 5 146 5 141 8 c 0,0,1
220 371 m 1,51,52
 218 371 218 371 215.5 374 c 128,-1,53
 213 377 213 377 212 378 c 1,54,55
 216 389 216 389 222 402 c 128,-1,56
 228 415 228 415 237 423 c 128,-1,57
 246 431 246 431 257.5 431.5 c 128,-1,58
 269 432 269 432 284 418 c 1,59,60
 297 417 297 417 330.5 421 c 128,-1,61
 364 425 364 425 407 430.5 c 128,-1,62
 450 436 450 436 497 442 c 128,-1,63
 544 448 544 448 584 452 c 128,-1,64
 624 456 624 456 652 455.5 c 128,-1,65
 680 455 680 455 685 449 c 0,66,67
 693 438 693 438 680 427 c 128,-1,68
 667 416 667 416 640 406 c 128,-1,69
 613 396 613 396 575 387.5 c 128,-1,70
 537 379 537 379 495 372.5 c 128,-1,71
 453 366 453 366 409.5 362 c 128,-1,72
 366 358 366 358 328.5 357.5 c 128,-1,73
 291 357 291 357 262 360 c 128,-1,74
 233 363 233 363 220 371 c 1,51,52
EndSplineSet
EndChar

StartChar: G
Encoding: 71 71 42
Width: 796
Flags: W
LayerCount: 2
Fore
SplineSet
201 -23 m 0,0,1
 129 -5 129 -5 89.5 48 c 128,-1,2
 50 101 50 101 36 172.5 c 128,-1,3
 22 244 22 244 30 326.5 c 128,-1,4
 38 409 38 409 62 486 c 128,-1,5
 86 563 86 563 121.5 627.5 c 128,-1,6
 157 692 157 692 198.5 727.5 c 128,-1,7
 240 763 240 763 283 761 c 128,-1,8
 326 759 326 759 365 705 c 0,9,10
 400 657 400 657 416.5 601 c 128,-1,11
 433 545 433 545 428 485 c 1,12,13
 411 464 411 464 392 458.5 c 128,-1,14
 373 453 373 453 354.5 457 c 128,-1,15
 336 461 336 461 320 471 c 128,-1,16
 304 481 304 481 293.5 492 c 128,-1,17
 283 503 283 503 280.5 511.5 c 128,-1,18
 278 520 278 520 287 520 c 2,19,-1
 373 520 l 1,20,21
 374 530 374 530 372.5 550.5 c 128,-1,22
 371 571 371 571 366 596 c 128,-1,23
 361 621 361 621 353 646 c 128,-1,24
 345 671 345 671 333 690 c 128,-1,25
 321 709 321 709 305.5 718.5 c 128,-1,26
 290 728 290 728 270 722 c 0,27,28
 236 710 236 710 210.5 677 c 128,-1,29
 185 644 185 644 166.5 602.5 c 128,-1,30
 148 561 148 561 135.5 518 c 128,-1,31
 123 475 123 475 114 445 c 0,32,33
 70 300 70 300 77 205 c 128,-1,34
 84 110 84 110 124.5 60.5 c 128,-1,35
 165 11 165 11 231 4.5 c 128,-1,36
 297 -2 297 -2 371 29.5 c 128,-1,37
 445 61 445 61 518 128 c 128,-1,38
 591 195 591 195 646 292 c 0,39,40
 658 312 658 312 673 333 c 128,-1,41
 688 354 688 354 693 378 c 1,42,43
 687 380 687 380 661 371.5 c 128,-1,44
 635 363 635 363 600.5 350.5 c 128,-1,45
 566 338 566 338 527.5 325.5 c 128,-1,46
 489 313 489 313 458 306.5 c 128,-1,47
 427 300 427 300 408 302.5 c 128,-1,48
 389 305 389 305 394 323 c 0,49,50
 397 335 397 335 412.5 349.5 c 128,-1,51
 428 364 428 364 448.5 374.5 c 128,-1,52
 469 385 469 385 489 389.5 c 128,-1,53
 509 394 509 394 520 386 c 1,54,55
 545 390 545 390 573.5 402 c 128,-1,56
 602 414 602 414 631 426 c 128,-1,57
 660 438 660 438 688 447.5 c 128,-1,58
 716 457 716 457 740 457 c 0,59,60
 770 457 770 457 778.5 447.5 c 128,-1,61
 787 438 787 438 784 424.5 c 128,-1,62
 781 411 781 411 771.5 396 c 128,-1,63
 762 381 762 381 756 371 c 0,64,65
 724 315 724 315 690.5 259 c 128,-1,66
 657 203 657 203 619.5 153.5 c 128,-1,67
 582 104 582 104 539.5 63 c 128,-1,68
 497 22 497 22 446 -3 c 128,-1,69
 395 -28 395 -28 334.5 -34.5 c 128,-1,70
 274 -41 274 -41 201 -23 c 0,0,1
EndSplineSet
EndChar

StartChar: H
Encoding: 72 72 43
Width: 717
Flags: W
LayerCount: 2
Fore
SplineSet
55 47 m 0,0,1
 48 77 48 77 56 122.5 c 128,-1,2
 64 168 64 168 76.5 217.5 c 128,-1,3
 89 267 89 267 102 314.5 c 128,-1,4
 115 362 115 362 118 397 c 1,5,-1
 39 397 l 2,6,7
 37 397 37 397 32.5 403.5 c 128,-1,8
 28 410 28 410 24.5 419 c 128,-1,9
 21 428 21 428 19.5 437.5 c 128,-1,10
 18 447 18 447 23.5 454 c 128,-1,11
 29 461 29 461 41.5 462.5 c 128,-1,12
 54 464 54 464 79 457 c 0,13,14
 83 455 83 455 90 454.5 c 128,-1,15
 97 454 97 454 103 452 c 0,16,17
 110 450 110 450 118 449 c 1,18,-1
 126 473 l 2,19,20
 127 474 127 474 127.5 491 c 128,-1,21
 128 508 128 508 129 532 c 128,-1,22
 130 556 130 556 130 582 c 128,-1,23
 130 608 130 608 129 628 c 0,24,25
 129 632 129 632 126 644.5 c 128,-1,26
 123 657 123 657 120.5 673 c 128,-1,27
 118 689 118 689 116.5 706.5 c 128,-1,28
 115 724 115 724 118 737.5 c 128,-1,29
 121 751 121 751 129 758.5 c 128,-1,30
 137 766 137 766 153 762 c 0,31,32
 158 760 158 760 163 750 c 128,-1,33
 168 740 168 740 168 738 c 0,34,35
 166 697 166 697 167.5 662.5 c 128,-1,36
 169 628 169 628 170.5 594 c 128,-1,37
 172 560 172 560 173 525 c 128,-1,38
 174 490 174 490 173 449 c 1,39,40
 210 440 210 440 263.5 435 c 128,-1,41
 317 430 317 430 374 432 c 128,-1,42
 431 434 431 434 484.5 445.5 c 128,-1,43
 538 457 538 457 574 480 c 0,44,45
 587 488 587 488 596 510.5 c 128,-1,46
 605 533 605 533 611.5 562 c 128,-1,47
 618 591 618 591 623 624.5 c 128,-1,48
 628 658 628 658 633 688.5 c 128,-1,49
 638 719 638 719 643.5 743.5 c 128,-1,50
 649 768 649 768 657.5 779 c 128,-1,51
 666 790 666 790 677 785.5 c 128,-1,52
 688 781 688 781 704 753 c 1,53,-1
 704 730 l 1,54,55
 699 659 699 659 690 594.5 c 128,-1,56
 681 530 681 530 671.5 467 c 128,-1,57
 662 404 662 404 653 340 c 128,-1,58
 644 276 644 276 638 205 c 0,59,60
 636 181 636 181 637.5 164 c 128,-1,61
 639 147 639 147 640 131 c 128,-1,62
 641 115 641 115 639.5 97.5 c 128,-1,63
 638 80 638 80 630 55 c 1,64,65
 617 46 617 46 604.5 47.5 c 128,-1,66
 592 49 592 49 583 63 c 1,67,68
 580 109 580 109 585 155.5 c 128,-1,69
 590 202 590 202 596 248.5 c 128,-1,70
 602 295 602 295 606 341.5 c 128,-1,71
 610 388 610 388 606 433 c 1,72,73
 500 398 500 398 388 390 c 128,-1,74
 276 382 276 382 165 386 c 1,75,76
 164 378 164 378 160.5 356.5 c 128,-1,77
 157 335 157 335 153 311.5 c 128,-1,78
 149 288 149 288 145.5 266.5 c 128,-1,79
 142 245 142 245 141 237 c 0,80,81
 133 186 133 186 126.5 130.5 c 128,-1,82
 120 75 120 75 111 24 c 0,83,84
 109 12 109 12 101 6 c 128,-1,85
 93 0 93 0 79 8 c 0,86,87
 77 9 77 9 73 14.5 c 128,-1,88
 69 20 69 20 65 26.5 c 128,-1,89
 61 33 61 33 58 38.5 c 128,-1,90
 55 44 55 44 55 47 c 0,0,1
EndSplineSet
EndChar

StartChar: I
Encoding: 73 73 44
Width: 134
Flags: W
LayerCount: 2
Fore
SplineSet
40 8 m 1,0,1
 38 8 38 8 35.5 11 c 128,-1,2
 33 14 33 14 32 15 c 0,3,4
 30 90 30 90 31.5 165 c 128,-1,5
 33 240 33 240 35 315 c 128,-1,6
 37 390 37 390 39 464.5 c 128,-1,7
 41 539 41 539 40 614 c 1,8,9
 41 631 41 631 49 641.5 c 128,-1,10
 57 652 57 652 67 654 c 128,-1,11
 77 656 77 656 86.5 648.5 c 128,-1,12
 96 641 96 641 102 623 c 1,13,-1
 102 614 l 1,14,15
 85 489 85 489 85 359 c 128,-1,16
 85 229 85 229 87 102 c 1,17,18
 90 104 90 104 97 108.5 c 128,-1,19
 104 113 104 113 111 111 c 1,20,21
 112 97 112 97 109 74 c 128,-1,22
 106 51 106 51 97.5 31.5 c 128,-1,23
 89 12 89 12 75 3 c 128,-1,24
 61 -6 61 -6 40 8 c 1,0,1
EndSplineSet
EndChar

StartChar: J
Encoding: 74 74 45
Width: 672
Flags: W
LayerCount: 2
Fore
SplineSet
252 8 m 0,0,1
 248 9 248 9 236 15 c 128,-1,2
 224 21 224 21 220 24 c 0,3,4
 174 67 174 67 139 106.5 c 128,-1,5
 104 146 104 146 81.5 189.5 c 128,-1,6
 59 233 59 233 50 284 c 128,-1,7
 41 335 41 335 47 401 c 1,8,9
 49 406 49 406 53 409 c 128,-1,10
 57 412 57 412 62 410 c 1,11,12
 69 353 69 353 81 306 c 128,-1,13
 93 259 93 259 113.5 218 c 128,-1,14
 134 177 134 177 164 139.5 c 128,-1,15
 194 102 194 102 236 63 c 0,16,17
 248 52 248 52 262.5 48.5 c 128,-1,18
 277 45 277 45 292 47.5 c 128,-1,19
 307 50 307 50 321 56 c 128,-1,20
 335 62 335 62 346 71 c 0,21,22
 383 100 383 100 407.5 143.5 c 128,-1,23
 432 187 432 187 444 238 c 128,-1,24
 456 289 456 289 456.5 344.5 c 128,-1,25
 457 400 457 400 448 452.5 c 128,-1,26
 439 505 439 505 420 552 c 128,-1,27
 401 599 401 599 375 634 c 1,28,29
 334 640 334 640 293 633 c 128,-1,30
 252 626 252 626 210 616 c 128,-1,31
 168 606 168 606 126.5 598.5 c 128,-1,32
 85 591 85 591 45 595 c 1,33,34
 25 619 25 619 35.5 631.5 c 128,-1,35
 46 644 46 644 69 649.5 c 128,-1,36
 92 655 92 655 118 656 c 128,-1,37
 144 657 144 657 154 658 c 0,38,39
 161 659 161 659 184 662 c 128,-1,40
 207 665 207 665 233 668.5 c 128,-1,41
 259 672 259 672 283.5 676 c 128,-1,42
 308 680 308 680 320 682 c 0,43,44
 325 683 325 683 340 685.5 c 128,-1,45
 355 688 355 688 359 690 c 1,46,47
 378 692 378 692 417 697 c 128,-1,48
 456 702 456 702 505 708 c 128,-1,49
 554 714 554 714 608 721 c 128,-1,50
 662 728 662 728 711 734 c 128,-1,51
 760 740 760 740 798.5 745 c 128,-1,52
 837 750 837 750 856 752 c 0,53,54
 857 752 857 752 868.5 756.5 c 128,-1,55
 880 761 880 761 894 765.5 c 128,-1,56
 908 770 908 770 920 773.5 c 128,-1,57
 932 777 932 777 934 776 c 0,58,59
 956 765 956 765 962 753 c 128,-1,60
 968 741 968 741 964.5 730 c 128,-1,61
 961 719 961 719 951 709.5 c 128,-1,62
 941 700 941 700 930.5 695 c 128,-1,63
 920 690 920 690 911.5 690 c 128,-1,64
 903 690 903 690 903 697 c 1,65,-1
 840 697 l 1,66,-1
 478 650 l 1,67,-1
 446 643 l 1,68,69
 459 623 459 623 469.5 584 c 128,-1,70
 480 545 480 545 486 494 c 128,-1,71
 492 443 492 443 492 384.5 c 128,-1,72
 492 326 492 326 484 269.5 c 128,-1,73
 476 213 476 213 459 162 c 128,-1,74
 442 111 442 111 414 74 c 128,-1,75
 386 37 386 37 346 18.5 c 128,-1,76
 306 0 306 0 252 8 c 0,0,1
EndSplineSet
EndChar

StartChar: K
Encoding: 75 75 46
Width: 757
Flags: W
LayerCount: 2
Fore
SplineSet
590 14 m 0,0,1
 557 19 557 19 519 38.5 c 128,-1,2
 481 58 481 58 440 85.5 c 128,-1,3
 399 113 399 113 355 145.5 c 128,-1,4
 311 178 311 178 267 210 c 128,-1,5
 223 242 223 242 179.5 270.5 c 128,-1,6
 136 299 136 299 95 317 c 1,7,8
 87 274 87 274 84 239 c 128,-1,9
 81 204 81 204 81 170.5 c 128,-1,10
 81 137 81 137 83 102 c 128,-1,11
 85 67 85 67 87 24 c 1,12,13
 90 9 90 9 82 7 c 128,-1,14
 74 5 74 5 63.5 9.5 c 128,-1,15
 53 14 53 14 43.5 21.5 c 128,-1,16
 34 29 34 29 32 32 c 1,17,-1
 32 55 l 1,18,19
 36 116 36 116 39.5 162 c 128,-1,20
 43 208 43 208 45.5 251 c 128,-1,21
 48 294 48 294 49 339 c 128,-1,22
 50 384 50 384 48 443 c 0,23,24
 48 450 48 450 47 469.5 c 128,-1,25
 46 489 46 489 44.5 511.5 c 128,-1,26
 43 534 43 534 42 555 c 128,-1,27
 41 576 41 576 40 585 c 0,28,29
 40 587 40 587 37 601.5 c 128,-1,30
 34 616 34 616 31 636.5 c 128,-1,31
 28 657 28 657 25.5 679 c 128,-1,32
 23 701 23 701 25 718.5 c 128,-1,33
 27 736 27 736 34 745.5 c 128,-1,34
 41 755 41 755 56 750 c 1,35,36
 66 742 66 742 72.5 717 c 128,-1,37
 79 692 79 692 83 658.5 c 128,-1,38
 87 625 87 625 89 587 c 128,-1,39
 91 549 91 549 92 513 c 128,-1,40
 93 477 93 477 93.5 447.5 c 128,-1,41
 94 418 94 418 95 403 c 1,42,43
 108 399 108 399 128.5 405 c 128,-1,44
 149 411 149 411 169.5 421 c 128,-1,45
 190 431 190 431 208.5 442 c 128,-1,46
 227 453 227 453 238 459 c 0,47,48
 287 489 287 489 334.5 518.5 c 128,-1,49
 382 548 382 548 420.5 583.5 c 128,-1,50
 459 619 459 619 486 663 c 128,-1,51
 513 707 513 707 521 766 c 0,52,53
 521 768 521 768 524 771 c 128,-1,54
 527 774 527 774 529 774 c 0,55,56
 534 775 534 775 548.5 775 c 128,-1,57
 563 775 563 775 568 774 c 1,58,59
 593 749 593 749 585.5 716 c 128,-1,60
 578 683 578 683 550.5 647.5 c 128,-1,61
 523 612 523 612 482.5 576 c 128,-1,62
 442 540 442 540 401.5 509.5 c 128,-1,63
 361 479 361 479 326.5 457 c 128,-1,64
 292 435 292 435 277 427 c 0,65,66
 270 424 270 424 252 415 c 128,-1,67
 234 406 234 406 214 396 c 128,-1,68
 194 386 194 386 176 377 c 128,-1,69
 158 368 158 368 151 364 c 1,70,-1
 139 352 l 1,71,72
 264 264 264 264 359.5 199 c 128,-1,73
 455 134 455 134 534.5 103 c 128,-1,74
 614 72 614 72 683.5 82.5 c 128,-1,75
 753 93 753 93 826 156 c 1,76,77
 842 148 842 148 838 133.5 c 128,-1,78
 834 119 834 119 817 101.5 c 128,-1,79
 800 84 800 84 772.5 67 c 128,-1,80
 745 50 745 50 713.5 36.5 c 128,-1,81
 682 23 682 23 649.5 16.5 c 128,-1,82
 617 10 617 10 590 14 c 0,0,1
EndSplineSet
EndChar

StartChar: L
Encoding: 76 76 47
Width: 693
Flags: W
LayerCount: 2
Fore
SplineSet
39 8 m 1,0,1
 20 15 20 15 15 24 c 128,-1,2
 10 33 10 33 15 55 c 0,3,4
 30 127 30 127 47 196.5 c 128,-1,5
 64 266 64 266 77.5 335 c 128,-1,6
 91 404 91 404 98.5 475 c 128,-1,7
 106 546 106 546 102 623 c 1,8,9
 111 640 111 640 120 635 c 128,-1,10
 129 630 129 630 135.5 615.5 c 128,-1,11
 142 601 142 601 146 583.5 c 128,-1,12
 150 566 150 566 150 559 c 0,13,14
 144 500 144 500 138 443.5 c 128,-1,15
 132 387 132 387 124.5 331 c 128,-1,16
 117 275 117 275 108 218.5 c 128,-1,17
 99 162 99 162 86 102 c 0,18,19
 80 72 80 72 104 59.5 c 128,-1,20
 128 47 128 47 162.5 44 c 128,-1,21
 197 41 197 41 232 43.5 c 128,-1,22
 267 46 267 46 284 47 c 0,23,24
 293 48 293 48 317.5 50 c 128,-1,25
 342 52 342 52 369.5 54.5 c 128,-1,26
 397 57 397 57 422 59 c 128,-1,27
 447 61 447 61 457 63 c 1,28,29
 466 73 466 73 487.5 78 c 128,-1,30
 509 83 509 83 533.5 87 c 128,-1,31
 558 91 558 91 582.5 96 c 128,-1,32
 607 101 607 101 622 111 c 0,33,34
 630 116 630 116 643.5 123 c 128,-1,35
 657 130 657 130 669 126 c 1,36,-1
 669 102 l 1,37,38
 665 98 665 98 651 86 c 128,-1,39
 637 74 637 74 620 58.5 c 128,-1,40
 603 43 603 43 586 27 c 128,-1,41
 569 11 569 11 559 0 c 1,42,43
 559 2 559 2 556 5 c 128,-1,44
 553 8 553 8 551 8 c 0,45,46
 499 15 499 15 433 14.5 c 128,-1,47
 367 14 367 14 300 10.5 c 128,-1,48
 233 7 233 7 170.5 3 c 128,-1,49
 108 -1 108 -1 62 0 c 0,50,51
 59 1 59 1 50 3.5 c 128,-1,52
 41 6 41 6 39 8 c 1,0,1
EndSplineSet
EndChar

StartChar: M
Encoding: 77 77 48
Width: 985
Flags: W
LayerCount: 2
Fore
SplineSet
866 8 m 0,0,1
 864 10 864 10 858 16 c 128,-1,2
 852 22 852 22 850 24 c 1,3,4
 846 52 846 52 848 91 c 128,-1,5
 850 130 850 130 854.5 175 c 128,-1,6
 859 220 859 220 865 268 c 128,-1,7
 871 316 871 316 876 361 c 128,-1,8
 881 406 881 406 883 446 c 128,-1,9
 885 486 885 486 882 515 c 0,10,11
 877 560 877 560 856.5 591 c 128,-1,12
 836 622 836 622 806 638.5 c 128,-1,13
 776 655 776 655 740 659 c 128,-1,14
 704 663 704 663 667.5 654.5 c 128,-1,15
 631 646 631 646 598.5 626.5 c 128,-1,16
 566 607 566 607 543 578 c 0,17,18
 522 551 522 551 507 511.5 c 128,-1,19
 492 472 492 472 480.5 426.5 c 128,-1,20
 469 381 469 381 461 331.5 c 128,-1,21
 453 282 453 282 445.5 234.5 c 128,-1,22
 438 187 438 187 431.5 144.5 c 128,-1,23
 425 102 425 102 417 71 c 0,24,25
 417 69 417 69 414 66 c 128,-1,26
 411 63 411 63 410 63 c 0,27,28
 407 63 407 63 401.5 62.5 c 128,-1,29
 396 62 396 62 389.5 62 c 128,-1,30
 383 62 383 62 377.5 62.5 c 128,-1,31
 372 63 372 63 370 63 c 1,32,33
 364 68 364 68 363 98.5 c 128,-1,34
 362 129 362 129 364 172.5 c 128,-1,35
 366 216 366 216 369.5 266 c 128,-1,36
 373 316 373 316 377 361 c 128,-1,37
 381 406 381 406 383.5 439.5 c 128,-1,38
 386 473 386 473 386 483 c 0,39,40
 382 561 382 561 355.5 607.5 c 128,-1,41
 329 654 329 654 293 662.5 c 128,-1,42
 257 671 257 671 218 639 c 128,-1,43
 179 607 179 607 150 530 c 0,44,45
 139 503 139 503 133 457.5 c 128,-1,46
 127 412 127 412 122.5 359.5 c 128,-1,47
 118 307 118 307 115 252 c 128,-1,48
 112 197 112 197 105.5 148.5 c 128,-1,49
 99 100 99 100 89 64.5 c 128,-1,50
 79 29 79 29 62 15 c 1,51,52
 50 24 50 24 43 37 c 128,-1,53
 36 50 36 50 31 63 c 1,54,-1
 31 71 l 1,55,56
 38 124 38 124 43.5 198.5 c 128,-1,57
 49 273 49 273 51.5 351.5 c 128,-1,58
 54 430 54 430 53 504.5 c 128,-1,59
 52 579 52 579 47 633 c 0,60,61
 46 646 46 646 36.5 667.5 c 128,-1,62
 27 689 27 689 20.5 710.5 c 128,-1,63
 14 732 14 732 16 751.5 c 128,-1,64
 18 771 18 771 39 782 c 0,65,66
 44 785 44 785 47 782 c 2,67,-1
 86 743 l 1,68,69
 84 724 84 724 85.5 699.5 c 128,-1,70
 87 675 87 675 89.5 649.5 c 128,-1,71
 92 624 92 624 95.5 599 c 128,-1,72
 99 574 99 574 102 554 c 1,73,74
 142 655 142 655 191.5 690 c 128,-1,75
 241 725 241 725 288 709.5 c 128,-1,76
 335 694 335 694 374.5 636 c 128,-1,77
 414 578 414 578 433 492 c 1,78,79
 452 502 452 502 467 527.5 c 128,-1,80
 482 553 482 553 499.5 583 c 128,-1,81
 517 613 517 613 538.5 641.5 c 128,-1,82
 560 670 560 670 591 688 c 0,83,84
 643 718 643 718 696.5 716.5 c 128,-1,85
 750 715 750 715 796 690.5 c 128,-1,86
 842 666 842 666 875.5 622 c 128,-1,87
 909 578 909 578 922 523 c 0,88,89
 927 500 927 500 929 465 c 128,-1,90
 931 430 931 430 931 389 c 128,-1,91
 931 348 931 348 928.5 304 c 128,-1,92
 926 260 926 260 922.5 219.5 c 128,-1,93
 919 179 919 179 914.5 144 c 128,-1,94
 910 109 910 109 905 87 c 1,95,96
 910 84 910 84 915 87 c 128,-1,97
 920 90 920 90 925 94.5 c 128,-1,98
 930 99 930 99 936.5 102.5 c 128,-1,99
 943 106 943 106 952 102 c 1,100,101
 956 89 956 89 949 68 c 128,-1,102
 942 47 942 47 929 29.5 c 128,-1,103
 916 12 916 12 899 4 c 128,-1,104
 882 -4 882 -4 866 8 c 0,0,1
EndSplineSet
EndChar

StartChar: N
Encoding: 78 78 49
Width: 851
Flags: W
LayerCount: 2
Fore
SplineSet
24 15 m 0,0,1
 17 24 17 24 17 51 c 128,-1,2
 17 78 17 78 21 113.5 c 128,-1,3
 25 149 25 149 32 187.5 c 128,-1,4
 39 226 39 226 45.5 258.5 c 128,-1,5
 52 291 52 291 57 313.5 c 128,-1,6
 62 336 62 336 63 339 c 0,7,8
 77 432 77 432 89.5 516 c 128,-1,9
 102 600 102 600 102 693 c 1,10,11
 134 712 134 712 164.5 704.5 c 128,-1,12
 195 697 195 697 222.5 677 c 128,-1,13
 250 657 250 657 273.5 630 c 128,-1,14
 297 603 297 603 315 583 c 0,15,16
 325 572 325 572 345 549 c 128,-1,17
 365 526 365 526 390 497 c 128,-1,18
 415 468 415 468 442.5 436.5 c 128,-1,19
 470 405 470 405 495 376.5 c 128,-1,20
 520 348 520 348 539 325 c 128,-1,21
 558 302 558 302 567 292 c 0,22,23
 573 285 573 285 586.5 267 c 128,-1,24
 600 249 600 249 615 229 c 128,-1,25
 630 209 630 209 643.5 191 c 128,-1,26
 657 173 657 173 662 166 c 1,27,28
 684 238 684 238 691 316.5 c 128,-1,29
 698 395 698 395 701 474.5 c 128,-1,30
 704 554 704 554 709 633 c 128,-1,31
 714 712 714 712 733 787 c 0,32,33
 738 809 738 809 749.5 814.5 c 128,-1,34
 761 820 761 820 774 814.5 c 128,-1,35
 787 809 787 809 800 796 c 128,-1,36
 813 783 813 783 820.5 768.5 c 128,-1,37
 828 754 828 754 828.5 741.5 c 128,-1,38
 829 729 829 729 819 725 c 0,39,40
 815 723 815 723 803 723 c 128,-1,41
 791 723 791 723 788 732 c 1,42,-1
 780 725 l 2,43,44
 779 724 779 724 776 710 c 128,-1,45
 773 696 773 696 769.5 677.5 c 128,-1,46
 766 659 766 659 762.5 639 c 128,-1,47
 759 619 759 619 757 606 c 0,48,49
 746 541 746 541 742 475 c 128,-1,50
 738 409 738 409 735.5 343 c 128,-1,51
 733 277 733 277 729.5 211 c 128,-1,52
 726 145 726 145 717 79 c 1,53,54
 708 56 708 56 695.5 56.5 c 128,-1,55
 683 57 683 57 669.5 70 c 128,-1,56
 656 83 656 83 642 105 c 128,-1,57
 628 127 628 127 617 148.5 c 128,-1,58
 606 170 606 170 599 186.5 c 128,-1,59
 592 203 592 203 591 205 c 0,60,61
 503 316 503 316 413 416 c 128,-1,62
 323 516 323 516 221 614 c 1,63,64
 210 622 210 622 195 632 c 128,-1,65
 180 642 180 642 166 638 c 1,66,67
 165 635 165 635 162.5 626 c 128,-1,68
 160 617 160 617 157.5 607 c 128,-1,69
 155 597 155 597 153 588 c 128,-1,70
 151 579 151 579 150 575 c 0,71,72
 132 434 132 434 115.5 295.5 c 128,-1,73
 99 157 99 157 79 15 c 1,74,75
 63 0 63 0 50 -1 c 128,-1,76
 37 -2 37 -2 24 15 c 0,0,1
EndSplineSet
EndChar

StartChar: O
Encoding: 79 79 50
Width: 662
Flags: W
LayerCount: 2
Fore
SplineSet
173 8 m 0,0,1
 146 14 146 14 121.5 28 c 128,-1,2
 97 42 97 42 77.5 62 c 128,-1,3
 58 82 58 82 44 106.5 c 128,-1,4
 30 131 30 131 24 158 c 1,5,6
 21 222 21 222 27 281.5 c 128,-1,7
 33 341 33 341 46.5 398.5 c 128,-1,8
 60 456 60 456 80.5 513 c 128,-1,9
 101 570 101 570 126 630 c 0,10,11
 126 632 126 632 129 635 c 128,-1,12
 132 638 132 638 134 638 c 0,13,14
 139 639 139 639 154 639 c 128,-1,15
 169 639 169 639 173 638 c 1,16,17
 178 600 178 600 163 552.5 c 128,-1,18
 148 505 148 505 126.5 454 c 128,-1,19
 105 403 105 403 84 349.5 c 128,-1,20
 63 296 63 296 57 247 c 128,-1,21
 51 198 51 198 67 154.5 c 128,-1,22
 83 111 83 111 134 79 c 0,23,24
 164 60 164 60 201 54 c 128,-1,25
 238 48 238 48 275.5 53 c 128,-1,26
 313 58 313 58 348 73 c 128,-1,27
 383 88 383 88 410 111 c 0,28,29
 484 174 484 174 522.5 240.5 c 128,-1,30
 561 307 561 307 571.5 372 c 128,-1,31
 582 437 582 437 569.5 496 c 128,-1,32
 557 555 557 555 528 602.5 c 128,-1,33
 499 650 499 650 459 682.5 c 128,-1,34
 419 715 419 715 374.5 725.5 c 128,-1,35
 330 736 330 736 285.5 722 c 128,-1,36
 241 708 241 708 205 662 c 1,37,38
 190 654 190 654 187.5 658.5 c 128,-1,39
 185 663 185 663 191.5 674 c 128,-1,40
 198 685 198 685 211.5 700 c 128,-1,41
 225 715 225 715 241.5 730 c 128,-1,42
 258 745 258 745 275 756.5 c 128,-1,43
 292 768 292 768 307 772 c 0,44,45
 324 776 324 776 345 773.5 c 128,-1,46
 366 771 366 771 386.5 764 c 128,-1,47
 407 757 407 757 426 747 c 128,-1,48
 445 737 445 737 457 725 c 0,49,50
 476 707 476 707 497 687.5 c 128,-1,51
 518 668 518 668 538.5 646.5 c 128,-1,52
 559 625 559 625 576.5 601 c 128,-1,53
 594 577 594 577 606 551 c 0,54,55
 636 485 636 485 636 414.5 c 128,-1,56
 636 344 636 344 611.5 278 c 128,-1,57
 587 212 587 212 542.5 156 c 128,-1,58
 498 100 498 100 439.5 61.5 c 128,-1,59
 381 23 381 23 312.5 7.5 c 128,-1,60
 244 -8 244 -8 173 8 c 0,0,1
EndSplineSet
EndChar

StartChar: P
Encoding: 80 80 51
Width: 578
Flags: W
LayerCount: 2
Fore
SplineSet
143 -41 m 1,0,1
 132 33 132 33 124.5 90 c 128,-1,2
 117 147 117 147 110.5 195.5 c 128,-1,3
 104 244 104 244 97.5 288 c 128,-1,4
 91 332 91 332 82.5 379.5 c 128,-1,5
 74 427 74 427 62.5 483 c 128,-1,6
 51 539 51 539 34 612 c 1,7,8
 26 656 26 656 47.5 692.5 c 128,-1,9
 69 729 69 729 107.5 754 c 128,-1,10
 146 779 146 779 197.5 792.5 c 128,-1,11
 249 806 249 806 301.5 805 c 128,-1,12
 354 804 354 804 402.5 787.5 c 128,-1,13
 451 771 451 771 485 736 c 128,-1,14
 519 701 519 701 532.5 647.5 c 128,-1,15
 546 594 546 594 529 518 c 1,16,17
 507 445 507 445 481.5 402 c 128,-1,18
 456 359 456 359 416.5 334.5 c 128,-1,19
 377 310 377 310 317.5 299.5 c 128,-1,20
 258 289 258 289 167 282 c 1,21,-1
 135 298 l 1,22,-1
 135 290 l 1,23,24
 137 278 137 278 141.5 247.5 c 128,-1,25
 146 217 146 217 151 183.5 c 128,-1,26
 156 150 156 150 160.5 119.5 c 128,-1,27
 165 89 165 89 167 77 c 1,28,29
 170 70 170 70 173.5 51.5 c 128,-1,30
 177 33 177 33 179 11.5 c 128,-1,31
 181 -10 181 -10 181 -30 c 128,-1,32
 181 -50 181 -50 177.5 -60.5 c 128,-1,33
 174 -71 174 -71 166 -68 c 128,-1,34
 158 -65 158 -65 143 -41 c 1,0,1
121 375 m 0,35,36
 123 358 123 358 124.5 352.5 c 128,-1,37
 126 347 126 347 127.5 344 c 128,-1,38
 129 341 129 341 131 335 c 128,-1,39
 133 329 133 329 135 313 c 1,40,41
 153 332 153 332 176 334.5 c 128,-1,42
 199 337 199 337 225.5 335 c 128,-1,43
 252 333 252 333 281 332 c 128,-1,44
 310 331 310 331 340 341.5 c 128,-1,45
 370 352 370 352 400 379.5 c 128,-1,46
 430 407 430 407 458 463 c 0,47,48
 490 526 490 526 494.5 574.5 c 128,-1,49
 499 623 499 623 484.5 658 c 128,-1,50
 470 693 470 693 439.5 714 c 128,-1,51
 409 735 409 735 371 744.5 c 128,-1,52
 333 754 333 754 290.5 752 c 128,-1,53
 248 750 248 750 209 738 c 128,-1,54
 170 726 170 726 138.5 704 c 128,-1,55
 107 682 107 682 90 651 c 0,56,57
 87 647 87 647 88.5 626.5 c 128,-1,58
 90 606 90 606 93 577.5 c 128,-1,59
 96 549 96 549 100.5 516 c 128,-1,60
 105 483 105 483 109.5 453.5 c 128,-1,61
 114 424 114 424 117 402.5 c 128,-1,62
 120 381 120 381 121 375 c 0,35,36
EndSplineSet
EndChar

StartChar: Q
Encoding: 81 81 52
Width: 614
Flags: W
LayerCount: 2
Fore
SplineSet
520 -118 m 0,0,1
 497 -97 497 -97 478 -74 c 128,-1,2
 459 -51 459 -51 441 -27.5 c 128,-1,3
 423 -4 423 -4 404 19 c 128,-1,4
 385 42 385 42 362 63 c 1,5,6
 355 66 355 66 330 61 c 128,-1,7
 305 56 305 56 275.5 49.5 c 128,-1,8
 246 43 246 43 219 37 c 128,-1,9
 192 31 192 31 181 32 c 1,10,11
 129 25 129 25 93 57 c 128,-1,12
 57 89 57 89 34.5 146 c 128,-1,13
 12 203 12 203 1.5 277 c 128,-1,14
 -9 351 -9 351 -9.5 427 c 128,-1,15
 -10 503 -10 503 -1 574.5 c 128,-1,16
 8 646 8 646 23 697 c 128,-1,17
 38 748 38 748 59 771.5 c 128,-1,18
 80 795 80 795 105 776 c 0,19,20
 105 775 105 775 97.5 738.5 c 128,-1,21
 90 702 90 702 80 644 c 128,-1,22
 70 586 70 586 61.5 514 c 128,-1,23
 53 442 53 442 51.5 370 c 128,-1,24
 50 298 50 298 59.5 234 c 128,-1,25
 69 170 69 170 95 128.5 c 128,-1,26
 121 87 121 87 166.5 74.5 c 128,-1,27
 212 62 212 62 284 94 c 2,28,29
 284 94 284 94 289.5 96.5 c 128,-1,30
 295 99 295 99 301.5 102.5 c 128,-1,31
 308 106 308 106 314.5 110 c 128,-1,32
 321 114 321 114 323 118 c 0,33,34
 326 123 326 123 323 126 c 0,35,36
 313 138 313 138 296 162.5 c 128,-1,37
 279 187 279 187 261.5 218.5 c 128,-1,38
 244 250 244 250 227.5 284.5 c 128,-1,39
 211 319 211 319 200.5 352 c 128,-1,40
 190 385 190 385 188 412.5 c 128,-1,41
 186 440 186 440 197 457 c 0,42,43
 205 469 205 469 213.5 460.5 c 128,-1,44
 222 452 222 452 230.5 432.5 c 128,-1,45
 239 413 239 413 247 386 c 128,-1,46
 255 359 255 359 262.5 333 c 128,-1,47
 270 307 270 307 275.5 286.5 c 128,-1,48
 281 266 281 266 284 260 c 256,49,50
 287 254 287 254 295.5 238 c 128,-1,51
 304 222 304 222 314 204.5 c 128,-1,52
 324 187 324 187 333 171.5 c 128,-1,53
 342 156 342 156 346 150 c 1,54,55
 371 142 371 142 393 162.5 c 128,-1,56
 415 183 415 183 430 223 c 128,-1,57
 445 263 445 263 451.5 316 c 128,-1,58
 458 369 458 369 452 425 c 128,-1,59
 446 481 446 481 426 534.5 c 128,-1,60
 406 588 406 588 368.5 628 c 128,-1,61
 331 668 331 668 273.5 689.5 c 128,-1,62
 216 711 216 711 135 704 c 1,63,64
 134 707 134 707 134 712.5 c 128,-1,65
 134 718 134 718 135.5 724 c 128,-1,66
 137 730 137 730 139 735 c 128,-1,67
 141 740 141 740 143 741 c 0,68,69
 208 749 208 749 268.5 726 c 128,-1,70
 329 703 329 703 377.5 660 c 128,-1,71
 426 617 426 617 460 558.5 c 128,-1,72
 494 500 494 500 507 436 c 128,-1,73
 520 372 520 372 509 308 c 128,-1,74
 498 244 498 244 457 189 c 0,75,76
 456 188 456 188 446.5 176 c 128,-1,77
 437 164 437 164 426 148.5 c 128,-1,78
 415 133 415 133 406.5 116 c 128,-1,79
 398 99 398 99 401 87 c 1,80,81
 409 79 409 79 425 57 c 128,-1,82
 441 35 441 35 460.5 11 c 128,-1,83
 480 -13 480 -13 500 -34 c 128,-1,84
 520 -55 520 -55 535 -61.5 c 128,-1,85
 550 -68 550 -68 557 -55.5 c 128,-1,86
 564 -43 564 -43 559 0 c 1,87,88
 579 5 579 5 589 -6.5 c 128,-1,89
 599 -18 599 -18 600.5 -36.5 c 128,-1,90
 602 -55 602 -55 596 -76 c 128,-1,91
 590 -97 590 -97 579 -111.5 c 128,-1,92
 568 -126 568 -126 553 -130 c 128,-1,93
 538 -134 538 -134 520 -118 c 0,0,1
EndSplineSet
EndChar

StartChar: R
Encoding: 82 82 53
Width: 636
Flags: W
LayerCount: 2
Fore
SplineSet
126 8 m 256,0,1
 124 9 124 9 121 15 c 128,-1,2
 118 21 118 21 118 24 c 0,3,4
 107 100 107 100 104.5 154 c 128,-1,5
 102 208 102 208 102 252.5 c 128,-1,6
 102 297 102 297 102 338 c 128,-1,7
 102 379 102 379 97.5 429.5 c 128,-1,8
 93 480 93 480 81 546.5 c 128,-1,9
 69 613 69 613 45 709 c 1,10,11
 42 716 42 716 49 725.5 c 128,-1,12
 56 735 56 735 67 738 c 128,-1,13
 78 741 78 741 90 732.5 c 128,-1,14
 102 724 102 724 108 694 c 0,15,16
 109 689 109 689 111.5 676.5 c 128,-1,17
 114 664 114 664 116 650 c 128,-1,18
 118 636 118 636 120 624 c 128,-1,19
 122 612 122 612 123 607 c 1,20,-1
 132 607 l 1,21,22
 187 701 187 701 235 743.5 c 128,-1,23
 283 786 283 786 321.5 791.5 c 128,-1,24
 360 797 360 797 386 771.5 c 128,-1,25
 412 746 412 746 422.5 703.5 c 128,-1,26
 433 661 433 661 425 607.5 c 128,-1,27
 417 554 417 554 387 503.5 c 128,-1,28
 357 453 357 453 303.5 411.5 c 128,-1,29
 250 370 250 370 168 352 c 1,30,-1
 168 344 l 1,31,32
 203 329 203 329 238.5 299 c 128,-1,33
 274 269 274 269 310 232.5 c 128,-1,34
 346 196 346 196 382 159 c 128,-1,35
 418 122 418 122 455 92.5 c 128,-1,36
 492 63 492 63 530 46.5 c 128,-1,37
 568 30 568 30 607 35 c 0,38,39
 609 35 609 35 621 48 c 128,-1,40
 633 61 633 61 648 77 c 128,-1,41
 663 93 663 93 677.5 106.5 c 128,-1,42
 692 120 692 120 700.5 122 c 128,-1,43
 709 124 709 124 707.5 108.5 c 128,-1,44
 706 93 706 93 689 50 c 1,45,46
 669 -5 669 -5 640.5 -26.5 c 128,-1,47
 612 -48 612 -48 578 -45 c 128,-1,48
 544 -42 544 -42 506 -19.5 c 128,-1,49
 468 3 468 3 429 36 c 128,-1,50
 390 69 390 69 352 108 c 128,-1,51
 314 147 314 147 279.5 183 c 128,-1,52
 245 219 245 219 216.5 248 c 128,-1,53
 188 277 188 277 168 289 c 1,54,-1
 165 8 l 2,55,56
 165 2 165 2 159.5 0.5 c 128,-1,57
 154 -1 154 -1 150 0 c 0,58,59
 145 2 145 2 136.5 4.5 c 128,-1,60
 128 7 128 7 126 8 c 256,0,1
153 407 m 1,61,62
 199 417 199 417 241 448 c 128,-1,63
 283 479 283 479 315.5 519 c 128,-1,64
 348 559 348 559 369 602 c 128,-1,65
 390 645 390 645 394 678.5 c 128,-1,66
 398 712 398 712 382.5 731 c 128,-1,67
 367 750 367 750 328 741 c 0,68,69
 297 734 297 734 273 718.5 c 128,-1,70
 249 703 249 703 230.5 682 c 128,-1,71
 212 661 212 661 197.5 635.5 c 128,-1,72
 183 610 183 610 171 583 c 1,73,74
 163 551 163 551 157 529 c 128,-1,75
 151 507 151 507 148 488 c 128,-1,76
 145 469 145 469 146 450.5 c 128,-1,77
 147 432 147 432 153 407 c 1,61,62
EndSplineSet
EndChar

StartChar: S
Encoding: 83 83 54
Width: 504
Flags: W
LayerCount: 2
Fore
SplineSet
291 8 m 0,0,1
 271 13 271 13 244 30 c 128,-1,2
 217 47 217 47 190.5 71 c 128,-1,3
 164 95 164 95 141.5 123.5 c 128,-1,4
 119 152 119 152 108 180.5 c 128,-1,5
 97 209 97 209 101.5 236 c 128,-1,6
 106 263 106 263 133 284 c 0,7,8
 137 287 137 287 149.5 292 c 128,-1,9
 162 297 162 297 174.5 299 c 128,-1,10
 187 301 187 301 194.5 296 c 128,-1,11
 202 291 202 291 197 275 c 1,12,13
 162 260 162 260 153 236 c 128,-1,14
 144 212 144 212 153.5 185 c 128,-1,15
 163 158 163 158 186.5 131 c 128,-1,16
 210 104 210 104 240 82.5 c 128,-1,17
 270 61 270 61 302.5 47 c 128,-1,18
 335 33 335 33 363 33 c 128,-1,19
 391 33 391 33 410.5 48.5 c 128,-1,20
 430 64 430 64 433 102 c 0,21,22
 436 151 436 151 426.5 197 c 128,-1,23
 417 243 417 243 386 284 c 0,24,25
 360 317 360 317 332.5 338 c 128,-1,26
 305 359 305 359 277.5 375 c 128,-1,27
 250 391 250 391 222.5 405 c 128,-1,28
 195 419 195 419 169.5 437.5 c 128,-1,29
 144 456 144 456 122 481.5 c 128,-1,30
 100 507 100 507 82 546 c 0,31,32
 59 597 59 597 68.5 641.5 c 128,-1,33
 78 686 78 686 108.5 717.5 c 128,-1,34
 139 749 139 749 184.5 764.5 c 128,-1,35
 230 780 230 780 279 774 c 0,36,37
 309 770 309 770 334 751 c 128,-1,38
 359 732 359 732 375.5 706.5 c 128,-1,39
 392 681 392 681 398 653 c 128,-1,40
 404 625 404 625 396 603.5 c 128,-1,41
 388 582 388 582 363.5 571.5 c 128,-1,42
 339 561 339 561 295 569 c 1,43,44
 290 586 290 586 299 595 c 128,-1,45
 308 604 308 604 320 611.5 c 128,-1,46
 332 619 332 619 342 626.5 c 128,-1,47
 352 634 352 634 350 648 c 0,48,49
 342 697 342 697 313 718.5 c 128,-1,50
 284 740 284 740 248.5 739.5 c 128,-1,51
 213 739 213 739 179 719.5 c 128,-1,52
 145 700 145 700 126.5 667 c 128,-1,53
 108 634 108 634 113 590.5 c 128,-1,54
 118 547 118 547 161 498 c 0,55,56
 193 461 193 461 222 442.5 c 128,-1,57
 251 424 251 424 279.5 409.5 c 128,-1,58
 308 395 308 395 338 377 c 128,-1,59
 368 359 368 359 401 323 c 0,60,61
 429 292 429 292 448 252.5 c 128,-1,62
 467 213 467 213 473.5 172.5 c 128,-1,63
 480 132 480 132 473.5 95.5 c 128,-1,64
 467 59 467 59 445.5 34 c 128,-1,65
 424 9 424 9 386 0.5 c 128,-1,66
 348 -8 348 -8 291 8 c 0,0,1
EndSplineSet
EndChar

StartChar: T
Encoding: 84 84 55
Width: 656
Flags: W
LayerCount: 2
Fore
SplineSet
402 15 m 0,0,1
 393 31 393 31 389 50 c 128,-1,2
 385 69 385 69 384.5 89 c 128,-1,3
 384 109 384 109 387 128.5 c 128,-1,4
 390 148 390 148 394 166 c 1,5,6
 395 226 395 226 399.5 290.5 c 128,-1,7
 404 355 404 355 404.5 421 c 128,-1,8
 405 487 405 487 396.5 552.5 c 128,-1,9
 388 618 388 618 364 681 c 1,10,11
 332 685 332 685 293 679.5 c 128,-1,12
 254 674 254 674 214 664 c 128,-1,13
 174 654 174 654 137 643.5 c 128,-1,14
 100 633 100 633 73 626 c 1,15,16
 66 616 66 616 54.5 616.5 c 128,-1,17
 43 617 43 617 34 624 c 128,-1,18
 25 631 25 631 21.5 642 c 128,-1,19
 18 653 18 653 26 665 c 1,20,21
 43 671 43 671 94 682 c 128,-1,22
 145 693 145 693 214.5 705.5 c 128,-1,23
 284 718 284 718 365 730 c 128,-1,24
 446 742 446 742 525 750.5 c 128,-1,25
 604 759 604 759 673 762 c 128,-1,26
 742 765 742 765 787 759 c 128,-1,27
 832 753 832 753 846 736 c 128,-1,28
 860 719 860 719 829 688 c 1,29,-1
 822 688 l 1,30,31
 818 690 818 690 805.5 696 c 128,-1,32
 793 702 793 702 790 705 c 1,33,34
 696 707 696 707 604 706 c 128,-1,35
 512 705 512 705 420 688 c 1,36,37
 420 686 420 686 421.5 676.5 c 128,-1,38
 423 667 423 667 425 655.5 c 128,-1,39
 427 644 427 644 428.5 634 c 128,-1,40
 430 624 430 624 430 622 c 0,41,42
 438 536 438 536 441 462 c 128,-1,43
 444 388 444 388 444.5 316 c 128,-1,44
 445 244 445 244 443.5 169.5 c 128,-1,45
 442 95 442 95 441 8 c 1,46,47
 438 0 438 0 432.5 -1.5 c 128,-1,48
 427 -3 427 -3 421 -0.5 c 128,-1,49
 415 2 415 2 409.5 7 c 128,-1,50
 404 12 404 12 402 15 c 0,0,1
EndSplineSet
EndChar

StartChar: U
Encoding: 85 85 56
Width: 835
Flags: W
LayerCount: 2
Fore
SplineSet
102 8 m 0,0,1
 86 18 86 18 78.5 42.5 c 128,-1,2
 71 67 71 67 68 94.5 c 128,-1,3
 65 122 65 122 64 148 c 128,-1,4
 63 174 63 174 62 189 c 0,5,6
 59 249 59 249 55.5 298.5 c 128,-1,7
 52 348 52 348 47 394 c 128,-1,8
 42 440 42 440 36 485.5 c 128,-1,9
 30 531 30 531 24 583 c 0,10,11
 24 585 24 585 23.5 590.5 c 128,-1,12
 23 596 23 596 23 602.5 c 128,-1,13
 23 609 23 609 23.5 614.5 c 128,-1,14
 24 620 24 620 24 623 c 1,15,16
 34 637 34 637 44 631.5 c 128,-1,17
 54 626 54 626 61.5 613.5 c 128,-1,18
 69 601 69 601 74 586 c 128,-1,19
 79 571 79 571 79 567 c 2,20,-1
 102 150 l 2,21,22
 105 101 105 101 116.5 82.5 c 128,-1,23
 128 64 128 64 145 67 c 128,-1,24
 162 70 162 70 183 90 c 128,-1,25
 204 110 204 110 225.5 139.5 c 128,-1,26
 247 169 247 169 267.5 203 c 128,-1,27
 288 237 288 237 305 267 c 128,-1,28
 322 297 322 297 333 319 c 128,-1,29
 344 341 344 341 346 346 c 0,30,31
 351 357 351 357 362.5 384 c 128,-1,32
 374 411 374 411 386.5 441 c 128,-1,33
 399 471 399 471 410 498 c 128,-1,34
 421 525 421 525 425 536 c 0,35,36
 426 540 426 540 429.5 553.5 c 128,-1,37
 433 567 433 567 438 582 c 128,-1,38
 443 597 443 597 449.5 610.5 c 128,-1,39
 456 624 456 624 463.5 627.5 c 128,-1,40
 471 631 471 631 479.5 622 c 128,-1,41
 488 613 488 613 497 583 c 1,42,43
 495 556 495 556 495.5 506.5 c 128,-1,44
 496 457 496 457 502 398.5 c 128,-1,45
 508 340 508 340 521 280.5 c 128,-1,46
 534 221 534 221 557.5 174 c 128,-1,47
 581 127 581 127 616 99.5 c 128,-1,48
 651 72 651 72 701 79 c 0,49,50
 714 81 714 81 725.5 92.5 c 128,-1,51
 737 104 737 104 748.5 115.5 c 128,-1,52
 760 127 760 127 773 134 c 128,-1,53
 786 141 786 141 804 134 c 1,54,55
 808 88 808 88 787.5 59.5 c 128,-1,56
 767 31 767 31 733.5 21 c 128,-1,57
 700 11 700 11 661 19.5 c 128,-1,58
 622 28 622 28 591 55 c 0,59,60
 552 88 552 88 529 136.5 c 128,-1,61
 506 185 506 185 492 239.5 c 128,-1,62
 478 294 478 294 470.5 349 c 128,-1,63
 463 404 463 404 457 449 c 1,64,-1
 449 465 l 1,65,66
 447 461 447 461 437 435.5 c 128,-1,67
 427 410 427 410 410 372 c 128,-1,68
 393 334 393 334 371 287.5 c 128,-1,69
 349 241 349 241 323 195 c 128,-1,70
 297 149 297 149 268.5 107.5 c 128,-1,71
 240 66 240 66 211.5 38.5 c 128,-1,72
 183 11 183 11 155 1 c 128,-1,73
 127 -9 127 -9 102 8 c 0,0,1
EndSplineSet
EndChar

StartChar: V
Encoding: 86 86 57
Width: 583
Flags: W
LayerCount: 2
Fore
SplineSet
331 39 m 0,0,1
 305 96 305 96 278 155.5 c 128,-1,2
 251 215 251 215 221 274.5 c 128,-1,3
 191 334 191 334 158 390.5 c 128,-1,4
 125 447 125 447 87 497 c 0,5,6
 84 501 84 501 74 509.5 c 128,-1,7
 64 518 64 518 52.5 529.5 c 128,-1,8
 41 541 41 541 30.5 553 c 128,-1,9
 20 565 20 565 16 575 c 0,10,11
 6 601 6 601 14 607.5 c 128,-1,12
 22 614 22 614 37 609 c 128,-1,13
 52 604 52 604 69 589.5 c 128,-1,14
 86 575 86 575 95 559 c 0,15,16
 125 505 125 505 154.5 444 c 128,-1,17
 184 383 184 383 214.5 322.5 c 128,-1,18
 245 262 245 262 277.5 205 c 128,-1,19
 310 148 310 148 347 102 c 1,20,21
 348 103 348 103 351 106 c 128,-1,22
 354 109 354 109 354 111 c 0,23,24
 355 114 355 114 358 121.5 c 128,-1,25
 361 129 361 129 363.5 138 c 128,-1,26
 366 147 366 147 368 155 c 128,-1,27
 370 163 370 163 371 166 c 0,28,29
 373 177 373 177 377.5 200.5 c 128,-1,30
 382 224 382 224 387 253.5 c 128,-1,31
 392 283 392 283 398.5 315.5 c 128,-1,32
 405 348 405 348 410 377.5 c 128,-1,33
 415 407 415 407 419.5 430.5 c 128,-1,34
 424 454 424 454 426 465 c 1,35,36
 432 479 432 479 434.5 494.5 c 128,-1,37
 437 510 437 510 439 525 c 128,-1,38
 441 540 441 540 444.5 555 c 128,-1,39
 448 570 448 570 457 583 c 0,40,41
 461 589 461 589 478.5 596 c 128,-1,42
 496 603 496 603 514 607.5 c 128,-1,43
 532 612 532 612 544.5 610.5 c 128,-1,44
 557 609 557 609 552 599 c 0,45,46
 549 594 549 594 542.5 583 c 128,-1,47
 536 572 536 572 528.5 559 c 128,-1,48
 521 546 521 546 514.5 535 c 128,-1,49
 508 524 508 524 505 520 c 0,50,51
 500 511 500 511 492.5 479 c 128,-1,52
 485 447 485 447 476.5 402 c 128,-1,53
 468 357 468 357 457.5 303.5 c 128,-1,54
 447 250 447 250 436 199.5 c 128,-1,55
 425 149 425 149 412.5 105.5 c 128,-1,56
 400 62 400 62 386.5 37 c 128,-1,57
 373 12 373 12 359 10 c 128,-1,58
 345 8 345 8 331 39 c 0,0,1
EndSplineSet
EndChar

StartChar: W
Encoding: 87 87 58
Width: 906
Flags: W
LayerCount: 2
Fore
SplineSet
614 8 m 0,0,1
 563 30 563 30 523.5 71.5 c 128,-1,2
 484 113 484 113 453.5 163 c 128,-1,3
 423 213 423 213 400.5 267.5 c 128,-1,4
 378 322 378 322 361 371 c 1,5,-1
 354 378 l 1,6,7
 350 376 350 376 339.5 354.5 c 128,-1,8
 329 333 329 333 314 301 c 128,-1,9
 299 269 299 269 279.5 229.5 c 128,-1,10
 260 190 260 190 238.5 152.5 c 128,-1,11
 217 115 217 115 194 82 c 128,-1,12
 171 49 171 49 148 30 c 128,-1,13
 125 11 125 11 103 9.5 c 128,-1,14
 81 8 81 8 62 32 c 0,15,16
 60 34 60 34 57 40 c 128,-1,17
 54 46 54 46 54 47 c 2,18,-1
 24 465 l 1,19,20
 19 479 19 479 15.5 496.5 c 128,-1,21
 12 514 12 514 24 527 c 1,22,23
 45 538 45 538 58.5 531 c 128,-1,24
 72 524 72 524 79 504 c 0,25,26
 85 485 85 485 85 455 c 128,-1,27
 85 425 85 425 83.5 393.5 c 128,-1,28
 82 362 82 362 79.5 332.5 c 128,-1,29
 77 303 77 303 79 284 c 0,30,31
 80 273 80 273 82 247.5 c 128,-1,32
 84 222 84 222 86.5 193 c 128,-1,33
 89 164 89 164 91 138 c 128,-1,34
 93 112 93 112 94 102 c 0,35,36
 94 99 94 99 97 90 c 128,-1,37
 100 81 100 81 102 79 c 0,38,39
 103 77 103 77 106.5 77 c 128,-1,40
 110 77 110 77 110 79 c 1,41,42
 152 115 152 115 182.5 160.5 c 128,-1,43
 213 206 213 206 237.5 256 c 128,-1,44
 262 306 262 306 284 357.5 c 128,-1,45
 306 409 306 409 331 457 c 1,46,47
 342 475 342 475 358.5 470.5 c 128,-1,48
 375 466 375 466 386 449 c 0,49,50
 409 410 409 410 420.5 369 c 128,-1,51
 432 328 432 328 444 286.5 c 128,-1,52
 456 245 456 245 474 204 c 128,-1,53
 492 163 492 163 527 126 c 0,54,55
 580 69 580 69 624 56.5 c 128,-1,56
 668 44 668 44 703 62 c 128,-1,57
 738 80 738 80 764 123 c 128,-1,58
 790 166 790 166 806.5 220.5 c 128,-1,59
 823 275 823 275 829 334.5 c 128,-1,60
 835 394 835 394 831 445.5 c 128,-1,61
 827 497 827 497 812 534.5 c 128,-1,62
 797 572 797 572 771 583 c 1,63,64
 769 585 769 585 764.5 585 c 128,-1,65
 760 585 760 585 760 583 c 2,66,-1
 760 544 l 2,67,68
 760 542 760 542 754.5 543.5 c 128,-1,69
 749 545 749 545 742.5 548 c 128,-1,70
 736 551 736 551 730.5 556 c 128,-1,71
 725 561 725 561 724 567 c 1,72,-1
 724 646 l 1,73,74
 767 657 767 657 798 629.5 c 128,-1,75
 829 602 829 602 848 551.5 c 128,-1,76
 867 501 867 501 873 434 c 128,-1,77
 879 367 879 367 872.5 298.5 c 128,-1,78
 866 230 866 230 846.5 166.5 c 128,-1,79
 827 103 827 103 795 59.5 c 128,-1,80
 763 16 763 16 717.5 -0.5 c 128,-1,81
 672 -17 672 -17 614 8 c 0,0,1
EndSplineSet
EndChar

StartChar: X
Encoding: 88 88 59
Width: 559
Flags: W
LayerCount: 2
Fore
SplineSet
141 24 m 0,0,1
 139 29 139 29 139 43.5 c 128,-1,2
 139 58 139 58 141 63 c 0,3,4
 150 78 150 78 165.5 97.5 c 128,-1,5
 181 117 181 117 198 139.5 c 128,-1,6
 215 162 215 162 231 186.5 c 128,-1,7
 247 211 247 211 257 235 c 128,-1,8
 267 259 267 259 269 281.5 c 128,-1,9
 271 304 271 304 259 323 c 0,10,11
 231 365 231 365 205 405 c 128,-1,12
 179 445 179 445 151 483 c 128,-1,13
 123 521 123 521 92 556 c 128,-1,14
 61 591 61 591 24 623 c 0,15,16
 18 628 18 628 15 631.5 c 128,-1,17
 12 635 12 635 11.5 640 c 128,-1,18
 11 645 11 645 12 652 c 128,-1,19
 13 659 13 659 15 670 c 1,20,21
 28 679 28 679 42.5 675 c 128,-1,22
 57 671 57 671 71.5 659 c 128,-1,23
 86 647 86 647 99.5 630 c 128,-1,24
 113 613 113 613 124 596 c 128,-1,25
 135 579 135 579 143.5 564.5 c 128,-1,26
 152 550 152 550 157 544 c 0,27,28
 164 533 164 533 182.5 506 c 128,-1,29
 201 479 201 479 221 449 c 128,-1,30
 241 419 241 419 259 392 c 128,-1,31
 277 365 277 365 284 354 c 0,32,33
 285 352 285 352 291 346 c 128,-1,34
 297 340 297 340 299 339 c 1,35,36
 300 337 300 337 303 337 c 128,-1,37
 306 337 306 337 307 339 c 2,38,-1
 464 662 l 2,39,40
 473 680 473 680 487 694.5 c 128,-1,41
 501 709 501 709 514 712.5 c 128,-1,42
 527 716 527 716 534 705.5 c 128,-1,43
 541 695 541 695 536 662 c 1,44,45
 502 621 502 621 475.5 575.5 c 128,-1,46
 449 530 449 530 426 482.5 c 128,-1,47
 403 435 403 435 382 387 c 128,-1,48
 361 339 361 339 338 292 c 1,49,-1
 338 275 l 1,50,-1
 464 87 l 1,51,-1
 472 79 l 1,52,53
 475 85 475 85 480 102.5 c 128,-1,54
 485 120 485 120 491 137.5 c 128,-1,55
 497 155 497 155 504 167 c 128,-1,56
 511 179 511 179 519 173 c 0,57,58
 528 167 528 167 531 151.5 c 128,-1,59
 534 136 534 136 532.5 116 c 128,-1,60
 531 96 531 96 524.5 74.5 c 128,-1,61
 518 53 518 53 508.5 37.5 c 128,-1,62
 499 22 499 22 485.5 14.5 c 128,-1,63
 472 7 472 7 457 15 c 0,64,65
 447 20 447 20 434.5 39.5 c 128,-1,66
 422 59 422 59 408.5 85 c 128,-1,67
 395 111 395 111 381 139 c 128,-1,68
 367 167 367 167 353.5 189 c 128,-1,69
 340 211 340 211 328 222.5 c 128,-1,70
 316 234 316 234 307 228 c 1,71,72
 301 215 301 215 293 203.5 c 128,-1,73
 285 192 285 192 278.5 180 c 128,-1,74
 272 168 272 168 268 155 c 128,-1,75
 264 142 264 142 267 126 c 1,76,77
 259 112 259 112 248.5 95 c 128,-1,78
 238 78 238 78 226 61 c 128,-1,79
 214 44 214 44 201 28 c 128,-1,80
 188 12 188 12 173 0 c 0,81,82
 170 -3 170 -3 165 0 c 0,83,84
 160 4 160 4 151 13 c 128,-1,85
 142 22 142 22 141 24 c 0,0,1
EndSplineSet
EndChar

StartChar: Y
Encoding: 89 89 60
Width: 646
Flags: W
LayerCount: 2
Fore
SplineSet
465 15 m 0,0,1
 449 31 449 31 443 64 c 128,-1,2
 437 97 437 97 437.5 138.5 c 128,-1,3
 438 180 438 180 442.5 226.5 c 128,-1,4
 447 273 447 273 452.5 317 c 128,-1,5
 458 361 458 361 462 397.5 c 128,-1,6
 466 434 466 434 465 457 c 1,7,-1
 457 457 l 1,8,9
 419 395 419 395 383.5 368.5 c 128,-1,10
 348 342 348 342 315.5 341 c 128,-1,11
 283 340 283 340 254 359 c 128,-1,12
 225 378 225 378 200.5 406 c 128,-1,13
 176 434 176 434 156.5 466.5 c 128,-1,14
 137 499 137 499 123 524 c 1,15,-1
 17 683 l 1,16,17
 11 696 11 696 11 708.5 c 128,-1,18
 11 721 11 721 16.5 729 c 128,-1,19
 22 737 22 737 32 738 c 128,-1,20
 42 739 42 739 56 730 c 0,21,22
 69 721 69 721 81.5 697.5 c 128,-1,23
 94 674 94 674 109 642.5 c 128,-1,24
 124 611 124 611 142.5 576 c 128,-1,25
 161 541 161 541 186.5 510 c 128,-1,26
 212 479 212 479 245.5 455.5 c 128,-1,27
 279 432 279 432 324 425 c 0,28,29
 355 420 355 420 378.5 434.5 c 128,-1,30
 402 449 402 449 421.5 475.5 c 128,-1,31
 441 502 441 502 456 538 c 128,-1,32
 471 574 471 574 484 611 c 128,-1,33
 497 648 497 648 509 683.5 c 128,-1,34
 521 719 521 719 533 745 c 128,-1,35
 545 771 545 771 559 784 c 128,-1,36
 573 797 573 797 590 790 c 1,37,38
 585 740 585 740 575.5 676.5 c 128,-1,39
 566 613 566 613 556 544.5 c 128,-1,40
 546 476 546 476 537 405 c 128,-1,41
 528 334 528 334 522 267 c 128,-1,42
 516 200 516 200 514.5 141.5 c 128,-1,43
 513 83 513 83 520 39 c 0,44,45
 523 25 523 25 518 16.5 c 128,-1,46
 513 8 513 8 504 5 c 128,-1,47
 495 2 495 2 484.5 4 c 128,-1,48
 474 6 474 6 465 15 c 0,0,1
EndSplineSet
EndChar

StartChar: Z
Encoding: 90 90 61
Width: 780
Flags: W
LayerCount: 2
Fore
SplineSet
252 8 m 1,0,1
 200 28 200 28 177 55.5 c 128,-1,2
 154 83 154 83 151.5 114 c 128,-1,3
 149 145 149 145 162.5 180 c 128,-1,4
 176 215 176 215 197 251 c 128,-1,5
 218 287 218 287 242.5 323 c 128,-1,6
 267 359 267 359 287 393 c 1,7,8
 274 394 274 394 251.5 386 c 128,-1,9
 229 378 229 378 206 370 c 128,-1,10
 183 362 183 362 163 359.5 c 128,-1,11
 143 357 143 357 136 370 c 0,12,13
 124 390 124 390 133.5 401 c 128,-1,14
 143 412 143 412 165 419 c 128,-1,15
 187 426 187 426 218 431.5 c 128,-1,16
 249 437 249 437 280.5 446 c 128,-1,17
 312 455 312 455 341 470 c 128,-1,18
 370 485 370 485 388 512 c 0,19,20
 421 561 421 561 450.5 610.5 c 128,-1,21
 480 660 480 660 514 709 c 1,22,23
 493 711 493 711 447.5 698.5 c 128,-1,24
 402 686 402 686 346 668.5 c 128,-1,25
 290 651 290 651 230.5 632 c 128,-1,26
 171 613 171 613 122 603.5 c 128,-1,27
 73 594 73 594 41.5 598 c 128,-1,28
 10 602 10 602 10 630 c 0,29,30
 10 639 10 639 33 647 c 128,-1,31
 56 655 56 655 84.5 662.5 c 128,-1,32
 113 670 113 670 138 676 c 128,-1,33
 163 682 163 682 168 685 c 1,34,35
 267 711 267 711 364 735 c 128,-1,36
 461 759 461 759 561 779 c 0,37,38
 583 784 583 784 585.5 769 c 128,-1,39
 588 754 588 754 582 733.5 c 128,-1,40
 576 713 576 713 566.5 693 c 128,-1,41
 557 673 557 673 554 669 c 0,42,43
 546 658 546 658 528 631 c 128,-1,44
 510 604 510 604 490 574 c 128,-1,45
 470 544 470 544 452 517 c 128,-1,46
 434 490 434 490 428 480 c 0,47,48
 426 478 426 478 423.5 472 c 128,-1,49
 421 466 421 466 420 464 c 1,50,51
 421 464 421 464 434.5 465 c 128,-1,52
 448 466 448 466 468.5 468.5 c 128,-1,53
 489 471 489 471 513.5 475 c 128,-1,54
 538 479 538 479 560.5 485 c 128,-1,55
 583 491 583 491 600.5 499.5 c 128,-1,56
 618 508 618 508 625 519 c 1,57,58
 629 515 629 515 639 504.5 c 128,-1,59
 649 494 649 494 656.5 481.5 c 128,-1,60
 664 469 664 469 665.5 457.5 c 128,-1,61
 667 446 667 446 656 440 c 0,62,63
 627 425 627 425 591 424 c 128,-1,64
 555 423 555 423 517.5 423.5 c 128,-1,65
 480 424 480 424 444.5 419.5 c 128,-1,66
 409 415 409 415 381 393 c 1,67,68
 303 323 303 323 267 265.5 c 128,-1,69
 231 208 231 208 226.5 164.5 c 128,-1,70
 222 121 222 121 244 92.5 c 128,-1,71
 266 64 266 64 305.5 51.5 c 128,-1,72
 345 39 345 39 396.5 43 c 128,-1,73
 448 47 448 47 502.5 68.5 c 128,-1,74
 557 90 557 90 609 129.5 c 128,-1,75
 661 169 661 169 701 228 c 1,76,77
 703 244 703 244 703.5 251.5 c 128,-1,78
 704 259 704 259 702.5 263.5 c 128,-1,79
 701 268 701 268 698.5 273.5 c 128,-1,80
 696 279 696 279 693 292 c 0,81,82
 691 300 691 300 700.5 298 c 128,-1,83
 710 296 710 296 722.5 286 c 128,-1,84
 735 276 735 276 746 259 c 128,-1,85
 757 242 757 242 758 222 c 128,-1,86
 759 202 759 202 744.5 179 c 128,-1,87
 730 156 730 156 693 134 c 0,88,89
 648 107 648 107 594 76 c 128,-1,90
 540 45 540 45 482 22.5 c 128,-1,91
 424 0 424 0 365 -7 c 128,-1,92
 306 -14 306 -14 252 8 c 1,0,1
EndSplineSet
EndChar

StartChar: bracketleft
Encoding: 91 91 62
Width: 623
Flags: W
LayerCount: 2
Fore
SplineSet
497 -131 m 0,0,1
 483 -126 483 -126 466 -126.5 c 128,-1,2
 449 -127 449 -127 432.5 -128 c 128,-1,3
 416 -129 416 -129 401.5 -127 c 128,-1,4
 387 -125 387 -125 378 -114 c 1,5,6
 366 -114 366 -114 337 -112 c 128,-1,7
 308 -110 308 -110 275.5 -107.5 c 128,-1,8
 243 -105 243 -105 214 -102.5 c 128,-1,9
 185 -100 185 -100 173 -99 c 0,10,11
 153 -97 153 -97 122 -96.5 c 128,-1,12
 91 -96 91 -96 66 -89 c 128,-1,13
 41 -82 41 -82 30.5 -65 c 128,-1,14
 20 -48 20 -48 40 -12 c 1,15,16
 41 16 41 16 38.5 82.5 c 128,-1,17
 36 149 36 149 34.5 234 c 128,-1,18
 33 319 33 319 34 412 c 128,-1,19
 35 505 35 505 42 586 c 128,-1,20
 49 667 49 667 63.5 725.5 c 128,-1,21
 78 784 78 784 104 800 c 1,22,23
 134 799 134 799 170.5 804.5 c 128,-1,24
 207 810 207 810 244.5 815.5 c 128,-1,25
 282 821 282 821 317 823 c 128,-1,26
 352 825 352 825 379 816 c 0,27,28
 405 807 405 807 406 795 c 128,-1,29
 407 783 407 783 393.5 773 c 128,-1,30
 380 763 380 763 356 758.5 c 128,-1,31
 332 754 332 754 309 761 c 1,32,33
 302 760 302 760 280.5 758.5 c 128,-1,34
 259 757 259 757 233 755 c 128,-1,35
 207 753 207 753 181.5 750.5 c 128,-1,36
 156 748 156 748 143 745 c 0,37,38
 127 741 127 741 116.5 709 c 128,-1,39
 106 677 106 677 100 627 c 128,-1,40
 94 577 94 577 91.5 514 c 128,-1,41
 89 451 89 451 89 384 c 128,-1,42
 89 317 89 317 91 251.5 c 128,-1,43
 93 186 93 186 95 132 c 128,-1,44
 97 78 97 78 99 39.5 c 128,-1,45
 101 1 101 1 102 -12 c 1,46,47
 108 -24 108 -24 128 -31.5 c 128,-1,48
 148 -39 148 -39 170.5 -43 c 128,-1,49
 193 -47 193 -47 214.5 -49 c 128,-1,50
 236 -51 236 -51 245 -52 c 0,51,52
 295 -56 295 -56 339.5 -59.5 c 128,-1,53
 384 -63 384 -63 427 -65 c 128,-1,54
 470 -67 470 -67 514 -68 c 128,-1,55
 558 -69 558 -69 607 -67 c 1,56,-1
 607 -99 l 1,57,-1
 544 -146 l 2,58,59
 542 -147 542 -147 536 -147 c 128,-1,60
 530 -147 530 -147 528 -146 c 0,61,62
 527 -146 527 -146 522.5 -143.5 c 128,-1,63
 518 -141 518 -141 512.5 -138.5 c 128,-1,64
 507 -136 507 -136 502.5 -133.5 c 128,-1,65
 498 -131 498 -131 497 -131 c 0,0,1
EndSplineSet
EndChar

StartChar: backslash
Encoding: 92 92 63
Width: 534
Flags: W
LayerCount: 2
Fore
SplineSet
482 53 m 0,0,1
 460 39 460 39 446 50 c 128,-1,2
 432 61 432 61 423 80.5 c 128,-1,3
 414 100 414 100 409 121 c 128,-1,4
 404 142 404 142 401 150 c 0,5,6
 372 207 372 207 348 254 c 128,-1,7
 324 301 324 301 299 344.5 c 128,-1,8
 274 388 274 388 245.5 431 c 128,-1,9
 217 474 217 474 181 522 c 0,10,11
 167 541 167 541 146 560 c 128,-1,12
 125 579 125 579 104 599 c 128,-1,13
 83 619 83 619 65.5 640 c 128,-1,14
 48 661 48 661 40 684 c 0,15,16
 31 708 31 708 33 716.5 c 128,-1,17
 35 725 35 725 44.5 721.5 c 128,-1,18
 54 718 54 718 69 705.5 c 128,-1,19
 84 693 84 693 101 676 c 0,20,21
 141 636 141 636 199 570 c 1,22,23
 242 516 242 516 275.5 464.5 c 128,-1,24
 309 413 309 413 339 360.5 c 128,-1,25
 369 308 369 308 399 252.5 c 128,-1,26
 429 197 429 197 464 134 c 0,27,28
 468 127 468 127 476 116.5 c 128,-1,29
 484 106 484 106 489.5 94.5 c 128,-1,30
 495 83 495 83 494.5 72 c 128,-1,31
 494 61 494 61 482 53 c 0,0,1
EndSplineSet
EndChar

StartChar: bracketright
Encoding: 93 93 64
Width: 614
Flags: W
LayerCount: 2
Fore
SplineSet
180 -135 m 0,0,1
 179 -131 179 -131 179 -118.5 c 128,-1,2
 179 -106 179 -106 180 -103 c 1,3,4
 196 -96 196 -96 224 -90.5 c 128,-1,5
 252 -85 252 -85 285 -80 c 128,-1,6
 318 -75 318 -75 353 -70 c 128,-1,7
 388 -65 388 -65 417.5 -57.5 c 128,-1,8
 447 -50 447 -50 468 -40 c 128,-1,9
 489 -30 489 -30 495 -16 c 0,10,11
 501 0 501 0 500.5 20.5 c 128,-1,12
 500 41 500 41 497.5 63 c 128,-1,13
 495 85 495 85 491.5 105.5 c 128,-1,14
 488 126 488 126 487 142 c 0,15,16
 486 153 486 153 485.5 182 c 128,-1,17
 485 211 485 211 484 251.5 c 128,-1,18
 483 292 483 292 482 340 c 128,-1,19
 481 388 481 388 480 437 c 128,-1,20
 479 486 479 486 478 532 c 128,-1,21
 477 578 477 578 476.5 614 c 128,-1,22
 476 650 476 650 475.5 673 c 128,-1,23
 475 696 475 696 475 698 c 0,24,25
 474 710 474 710 472.5 728 c 128,-1,26
 471 746 471 746 466.5 763 c 128,-1,27
 462 780 462 780 453 791.5 c 128,-1,28
 444 803 444 803 428 801 c 0,29,30
 417 800 417 800 392.5 796.5 c 128,-1,31
 368 793 368 793 341.5 789 c 128,-1,32
 315 785 315 785 292 781.5 c 128,-1,33
 269 778 269 778 262 777 c 0,34,35
 233 772 233 772 202.5 762.5 c 128,-1,36
 172 753 172 753 141 744 c 128,-1,37
 110 735 110 735 79.5 730 c 128,-1,38
 49 725 49 725 19 730 c 1,39,40
 5 746 5 746 7.5 758 c 128,-1,41
 10 770 10 770 21 779 c 128,-1,42
 32 788 32 788 47 793.5 c 128,-1,43
 62 799 62 799 74 801 c 0,44,45
 90 804 90 804 123 810 c 128,-1,46
 156 816 156 816 191 822.5 c 128,-1,47
 226 829 226 829 255.5 834 c 128,-1,48
 285 839 285 839 294 841 c 0,49,50
 303 842 303 842 329 848.5 c 128,-1,51
 355 855 355 855 385.5 861 c 128,-1,52
 416 867 416 867 445 871 c 128,-1,53
 474 875 474 875 491 872 c 1,54,55
 496 861 496 861 502 814.5 c 128,-1,56
 508 768 508 768 514 699.5 c 128,-1,57
 520 631 520 631 526 547 c 128,-1,58
 532 463 532 463 537 377 c 128,-1,59
 542 291 542 291 546 209.5 c 128,-1,60
 550 128 550 128 552 64 c 128,-1,61
 554 0 554 0 553.5 -39 c 128,-1,62
 553 -78 553 -78 550 -79 c 1,63,64
 545 -79 545 -79 516 -85.5 c 128,-1,65
 487 -92 487 -92 446.5 -100.5 c 128,-1,66
 406 -109 406 -109 360.5 -118 c 128,-1,67
 315 -127 315 -127 275.5 -133 c 128,-1,68
 236 -139 236 -139 209 -140.5 c 128,-1,69
 182 -142 182 -142 180 -135 c 0,0,1
EndSplineSet
EndChar

StartChar: asciicircum
Encoding: 94 94 65
Width: 425
Flags: W
LayerCount: 2
Fore
SplineSet
82 619 m 0,0,1
 80 621 80 621 70.5 630 c 128,-1,2
 61 639 61 639 58 643 c 0,3,4
 57 644 57 644 77.5 659 c 128,-1,5
 98 674 98 674 123.5 694 c 128,-1,6
 149 714 149 714 173 733 c 128,-1,7
 197 752 197 752 203 761 c 0,8,9
 211 774 211 774 219.5 790 c 128,-1,10
 228 806 228 806 242 817 c 1,11,-1
 250 817 l 1,12,13
 262 809 262 809 277 790.5 c 128,-1,14
 292 772 292 772 307.5 748 c 128,-1,15
 323 724 323 724 336 698 c 128,-1,16
 349 672 349 672 357 649 c 128,-1,17
 365 626 365 626 365.5 608.5 c 128,-1,18
 366 591 366 591 356 586 c 0,19,20
 342 579 342 579 325.5 594.5 c 128,-1,21
 309 610 309 610 293.5 634 c 128,-1,22
 278 658 278 658 266 683 c 128,-1,23
 254 708 254 708 250 721 c 1,24,25
 238 727 238 727 226 718.5 c 128,-1,26
 214 710 214 710 201.5 695 c 128,-1,27
 189 680 189 680 175 661.5 c 128,-1,28
 161 643 161 643 146.5 630 c 128,-1,29
 132 617 132 617 116 612 c 128,-1,30
 100 607 100 607 82 619 c 0,0,1
EndSplineSet
EndChar

StartChar: underscore
Encoding: 95 95 66
Width: 653
Flags: W
LayerCount: 2
Fore
SplineSet
8 32 m 0,0,1
 3 43 3 43 8.5 57.5 c 128,-1,2
 14 72 14 72 24 79 c 1,3,4
 32 78 32 78 52 77.5 c 128,-1,5
 72 77 72 77 94.5 77 c 128,-1,6
 117 77 117 77 137.5 77.5 c 128,-1,7
 158 78 158 78 166 79 c 0,8,9
 179 80 179 80 207.5 83 c 128,-1,10
 236 86 236 86 272 89.5 c 128,-1,11
 308 93 308 93 347 97.5 c 128,-1,12
 386 102 386 102 422 106 c 128,-1,13
 458 110 458 110 486 113 c 128,-1,14
 514 116 514 116 528 118 c 1,15,16
 559 134 559 134 582.5 131.5 c 128,-1,17
 606 129 606 129 615.5 116.5 c 128,-1,18
 625 104 625 104 616.5 86 c 128,-1,19
 608 68 608 68 575 55 c 1,20,21
 554 56 554 56 505 51.5 c 128,-1,22
 456 47 456 47 394.5 41.5 c 128,-1,23
 333 36 333 36 267 30 c 128,-1,24
 201 24 201 24 145 21 c 128,-1,25
 89 18 89 18 51 20 c 128,-1,26
 13 22 13 22 8 32 c 0,0,1
EndSplineSet
EndChar

StartChar: grave
Encoding: 96 96 67
Width: 252
Flags: W
LayerCount: 2
Fore
SplineSet
181 575 m 0,0,1
 161 595 161 595 145.5 607 c 128,-1,2
 130 619 130 619 116.5 630.5 c 128,-1,3
 103 642 103 642 89 656 c 128,-1,4
 75 670 75 670 59 693 c 0,5,6
 54 700 54 700 51.5 712.5 c 128,-1,7
 49 725 49 725 51 736.5 c 128,-1,8
 53 748 53 748 60.5 754.5 c 128,-1,9
 68 761 68 761 82 757 c 0,10,11
 87 755 87 755 105 740 c 128,-1,12
 123 725 123 725 145.5 706.5 c 128,-1,13
 168 688 168 688 192.5 668.5 c 128,-1,14
 217 649 217 649 236 638 c 0,15,16
 247 632 247 632 244 617 c 128,-1,17
 241 602 241 602 230.5 589 c 128,-1,18
 220 576 220 576 206 570 c 128,-1,19
 192 564 192 564 181 575 c 0,0,1
EndSplineSet
EndChar

StartChar: a
Encoding: 97 97 68
Width: 524
Flags: W
LayerCount: 2
Fore
SplineSet
59 37 m 0,0,1
 39 57 39 57 27 98 c 128,-1,2
 15 139 15 139 10.5 191 c 128,-1,3
 6 243 6 243 9 301.5 c 128,-1,4
 12 360 12 360 22.5 415.5 c 128,-1,5
 33 471 33 471 50.5 519 c 128,-1,6
 68 567 68 567 93.5 598.5 c 128,-1,7
 119 630 119 630 151.5 639.5 c 128,-1,8
 184 649 184 649 224 628 c 0,9,10
 238 620 238 620 253.5 601 c 128,-1,11
 269 582 269 582 283 558.5 c 128,-1,12
 297 535 297 535 307.5 511.5 c 128,-1,13
 318 488 318 488 323 472 c 0,14,15
 324 467 324 467 323.5 441.5 c 128,-1,16
 323 416 323 416 322 380 c 128,-1,17
 321 344 321 344 322.5 300.5 c 128,-1,18
 324 257 324 257 329.5 215.5 c 128,-1,19
 335 174 335 174 347 138.5 c 128,-1,20
 359 103 359 103 379 82.5 c 128,-1,21
 399 62 399 62 429.5 60.5 c 128,-1,22
 460 59 460 59 504 85 c 1,23,24
 520 99 520 99 523 112.5 c 128,-1,25
 526 126 526 126 526 135.5 c 128,-1,26
 526 145 526 145 528 148 c 128,-1,27
 530 151 530 151 546 143 c 1,28,29
 566 117 566 117 559.5 87.5 c 128,-1,30
 553 58 553 58 530.5 35.5 c 128,-1,31
 508 13 508 13 474 3.5 c 128,-1,32
 440 -6 440 -6 404.5 8 c 128,-1,33
 369 22 369 22 337 65 c 128,-1,34
 305 108 305 108 286 190 c 1,35,36
 280 173 280 173 267.5 148 c 128,-1,37
 255 123 255 123 238 98 c 128,-1,38
 221 73 221 73 199.5 51 c 128,-1,39
 178 29 178 29 155 18 c 128,-1,40
 132 7 132 7 107.5 9.5 c 128,-1,41
 83 12 83 12 59 37 c 0,0,1
68 100 m 0,42,43
 85 64 85 64 108 61 c 128,-1,44
 131 58 131 58 155 79 c 128,-1,45
 179 100 179 100 202.5 140 c 128,-1,46
 226 180 226 180 242.5 230.5 c 128,-1,47
 259 281 259 281 267.5 336.5 c 128,-1,48
 276 392 276 392 270.5 443 c 128,-1,49
 265 494 265 494 244 536 c 128,-1,50
 223 578 223 578 180 602 c 0,51,52
 179 603 179 603 176.5 603 c 128,-1,53
 174 603 174 603 172 603 c 0,54,55
 141 589 141 589 118 555 c 128,-1,56
 95 521 95 521 78.5 475 c 128,-1,57
 62 429 62 429 53 376 c 128,-1,58
 44 323 44 323 43 272 c 128,-1,59
 42 221 42 221 48 175.5 c 128,-1,60
 54 130 54 130 68 100 c 0,42,43
EndSplineSet
EndChar

StartChar: b
Encoding: 98 98 69
Width: 512
Flags: W
LayerCount: 2
Fore
SplineSet
126 8 m 0,0,1
 117 13 117 13 110.5 27 c 128,-1,2
 104 41 104 41 102 47 c 1,3,4
 104 122 104 122 102 200.5 c 128,-1,5
 100 279 100 279 86 354 c 0,6,7
 85 360 85 360 78 392.5 c 128,-1,8
 71 425 71 425 62 466.5 c 128,-1,9
 53 508 53 508 44.5 549 c 128,-1,10
 36 590 36 590 31 614 c 0,11,12
 28 630 28 630 23.5 655.5 c 128,-1,13
 19 681 19 681 21 698.5 c 128,-1,14
 23 716 23 716 33.5 717 c 128,-1,15
 44 718 44 718 71 685 c 1,16,17
 71 680 71 680 72 666.5 c 128,-1,18
 73 653 73 653 74 638 c 128,-1,19
 75 623 75 623 76.5 609.5 c 128,-1,20
 78 596 78 596 79 591 c 0,21,22
 82 570 82 570 88 536.5 c 128,-1,23
 94 503 94 503 100.5 470 c 128,-1,24
 107 437 107 437 112 412.5 c 128,-1,25
 117 388 117 388 118 386 c 2,26,-1
 126 371 l 1,27,28
 131 393 131 393 141 420 c 128,-1,29
 151 447 151 447 166.5 471.5 c 128,-1,30
 182 496 182 496 203 513.5 c 128,-1,31
 224 531 224 531 252 536 c 0,32,33
 318 546 318 546 365.5 521.5 c 128,-1,34
 413 497 413 497 441.5 451.5 c 128,-1,35
 470 406 470 406 481 347 c 128,-1,36
 492 288 492 288 485 229.5 c 128,-1,37
 478 171 478 171 454 119.5 c 128,-1,38
 430 68 430 68 390 38 c 128,-1,39
 350 8 350 8 293.5 7 c 128,-1,40
 237 6 237 6 165 47 c 1,41,42
 164 35 164 35 162.5 24.5 c 128,-1,43
 161 14 161 14 156.5 7.5 c 128,-1,44
 152 1 152 1 145 0.5 c 128,-1,45
 138 0 138 0 126 8 c 0,0,1
236 71 m 0,46,47
 283 52 283 52 327.5 65 c 128,-1,48
 372 78 372 78 401 118 c 0,49,50
 440 172 440 172 449.5 228 c 128,-1,51
 459 284 459 284 447.5 333 c 128,-1,52
 436 382 436 382 409 419.5 c 128,-1,53
 382 457 382 457 348.5 474.5 c 128,-1,54
 315 492 315 492 279 485 c 128,-1,55
 243 478 243 478 214.5 438 c 128,-1,56
 186 398 186 398 169 320 c 128,-1,57
 152 242 152 242 157 118 c 1,58,59
 157 121 157 121 159 126.5 c 128,-1,60
 161 132 161 132 163.5 138.5 c 128,-1,61
 166 145 166 145 168.5 150.5 c 128,-1,62
 171 156 171 156 173 158 c 0,63,64
 176 163 176 163 185.5 169 c 128,-1,65
 195 175 195 175 197 173 c 2,66,-1
 205 166 l 1,67,68
 203 150 203 150 202 135.5 c 128,-1,69
 201 121 201 121 203.5 108.5 c 128,-1,70
 206 96 206 96 213.5 86.5 c 128,-1,71
 221 77 221 77 236 71 c 0,46,47
EndSplineSet
EndChar

StartChar: c
Encoding: 99 99 70
Width: 410
Flags: W
LayerCount: 2
Fore
SplineSet
134 15 m 0,0,1
 108 35 108 35 85.5 76 c 128,-1,2
 63 117 63 117 48 167.5 c 128,-1,3
 33 218 33 218 27 273 c 128,-1,4
 21 328 21 328 26 376.5 c 128,-1,5
 31 425 31 425 49.5 461.5 c 128,-1,6
 68 498 68 498 102 512 c 0,7,8
 130 523 130 523 150.5 507.5 c 128,-1,9
 171 492 171 492 184 466.5 c 128,-1,10
 197 441 197 441 201.5 414 c 128,-1,11
 206 387 206 387 201 374.5 c 128,-1,12
 196 362 196 362 181.5 372.5 c 128,-1,13
 167 383 167 383 142 433 c 0,14,15
 131 456 131 456 118.5 448.5 c 128,-1,16
 106 441 106 441 95.5 413 c 128,-1,17
 85 385 85 385 78.5 342.5 c 128,-1,18
 72 300 72 300 71.5 254 c 128,-1,19
 71 208 71 208 78.5 164.5 c 128,-1,20
 86 121 86 121 104 90.5 c 128,-1,21
 122 60 122 60 152.5 48.5 c 128,-1,22
 183 37 183 37 228 55 c 0,23,24
 237 59 237 59 257 80 c 128,-1,25
 277 101 277 101 300.5 127 c 128,-1,26
 324 153 324 153 347 177 c 128,-1,27
 370 201 370 201 385.5 210 c 128,-1,28
 401 219 401 219 405 207.5 c 128,-1,29
 409 196 409 196 394 150 c 0,30,31
 383 115 383 115 354.5 79.5 c 128,-1,32
 326 44 326 44 289.5 20.5 c 128,-1,33
 253 -3 253 -3 212 -7.5 c 128,-1,34
 171 -12 171 -12 134 15 c 0,0,1
EndSplineSet
EndChar

StartChar: d
Encoding: 100 100 71
Width: 418
Flags: W
LayerCount: 2
Fore
SplineSet
79 24 m 0,0,1
 62 45 62 45 48.5 82 c 128,-1,2
 35 119 35 119 26 165 c 128,-1,3
 17 211 17 211 13 261.5 c 128,-1,4
 9 312 9 312 12 358.5 c 128,-1,5
 15 405 15 405 26 443.5 c 128,-1,6
 37 482 37 482 57.5 504.5 c 128,-1,7
 78 527 78 527 108.5 529 c 128,-1,8
 139 531 139 531 181 504 c 1,9,10
 216 483 216 483 244.5 452.5 c 128,-1,11
 273 422 273 422 292 386 c 1,12,13
 292 389 292 389 292.5 397 c 128,-1,14
 293 405 293 405 293 413.5 c 128,-1,15
 293 422 293 422 292.5 430 c 128,-1,16
 292 438 292 438 292 441 c 0,17,18
 291 448 291 448 288.5 476 c 128,-1,19
 286 504 286 504 283 535.5 c 128,-1,20
 280 567 280 567 278 595 c 128,-1,21
 276 623 276 623 276 630 c 0,22,23
 275 641 275 641 274.5 658 c 128,-1,24
 274 675 274 675 274 691.5 c 128,-1,25
 274 708 274 708 274.5 720 c 128,-1,26
 275 732 275 732 276 732 c 2,27,-1
 284 740 l 2,28,29
 294 751 294 751 303.5 744 c 128,-1,30
 313 737 313 737 320.5 721 c 128,-1,31
 328 705 328 705 334 683 c 128,-1,32
 340 661 340 661 344.5 640 c 128,-1,33
 349 619 349 619 351 603 c 128,-1,34
 353 587 353 587 354 583 c 0,35,36
 355 575 355 575 355.5 542 c 128,-1,37
 356 509 356 509 356 464 c 128,-1,38
 356 419 356 419 356 368.5 c 128,-1,39
 356 318 356 318 356.5 275 c 128,-1,40
 357 232 357 232 358 203 c 128,-1,41
 359 174 359 174 362 173 c 2,42,-1
 379 166 l 1,43,-1
 379 55 l 2,44,45
 379 45 379 45 369 46 c 128,-1,46
 359 47 359 47 347 52.5 c 128,-1,47
 335 58 335 58 325 66 c 128,-1,48
 315 74 315 74 315 79 c 2,49,-1
 315 158 l 1,50,51
 297 126 297 126 275.5 96.5 c 128,-1,52
 254 67 254 67 228 45 c 128,-1,53
 202 23 202 23 169 12.5 c 128,-1,54
 136 2 136 2 95 8 c 1,55,56
 93 10 93 10 87 16 c 128,-1,57
 81 22 81 22 79 24 c 0,0,1
95 71 m 0,58,59
 96 70 96 70 102.5 66.5 c 128,-1,60
 109 63 109 63 111 63 c 0,61,62
 160 57 160 57 197 83 c 128,-1,63
 234 109 234 109 257.5 151 c 128,-1,64
 281 193 281 193 292 242.5 c 128,-1,65
 303 292 303 292 300 331 c 1,66,67
 276 313 276 313 263.5 310 c 128,-1,68
 251 307 251 307 245.5 313.5 c 128,-1,69
 240 320 240 320 238.5 333 c 128,-1,70
 237 346 237 346 236 361.5 c 128,-1,71
 235 377 235 377 232.5 392.5 c 128,-1,72
 230 408 230 408 221 418 c 0,73,74
 183 463 183 463 154 476 c 128,-1,75
 125 489 125 489 105 478.5 c 128,-1,76
 85 468 85 468 72.5 439 c 128,-1,77
 60 410 60 410 54.5 371 c 128,-1,78
 49 332 49 332 50 287 c 128,-1,79
 51 242 51 242 56.5 200 c 128,-1,80
 62 158 62 158 72 123.5 c 128,-1,81
 82 89 82 89 95 71 c 0,58,59
EndSplineSet
EndChar

StartChar: e
Encoding: 101 101 72
Width: 449
Flags: W
LayerCount: 2
Fore
SplineSet
220 8 m 0,0,1
 182 24 182 24 162.5 49 c 128,-1,2
 143 74 143 74 134 104 c 128,-1,3
 125 134 125 134 123 168 c 128,-1,4
 121 202 121 202 118 237 c 1,5,6
 95 233 95 233 73 233.5 c 128,-1,7
 51 234 51 234 34.5 237.5 c 128,-1,8
 18 241 18 241 11 247.5 c 128,-1,9
 4 254 4 254 9.5 261.5 c 128,-1,10
 15 269 15 269 37 277 c 128,-1,11
 59 285 59 285 102 292 c 0,12,13
 108 292 108 292 119.5 298 c 128,-1,14
 131 304 131 304 133 307 c 0,15,16
 140 317 140 317 146 341.5 c 128,-1,17
 152 366 152 366 158.5 396 c 128,-1,18
 165 426 165 426 174.5 456.5 c 128,-1,19
 184 487 184 487 198.5 509 c 128,-1,20
 213 531 213 531 233.5 540 c 128,-1,21
 254 549 254 549 284 536 c 0,22,23
 287 534 287 534 292.5 528.5 c 128,-1,24
 298 523 298 523 304 517 c 128,-1,25
 310 511 310 511 315.5 505.5 c 128,-1,26
 321 500 321 500 323 497 c 1,27,28
 327 448 327 448 317 414 c 128,-1,29
 307 380 307 380 290 356.5 c 128,-1,30
 273 333 273 333 252 317 c 128,-1,31
 231 301 231 301 212 286.5 c 128,-1,32
 193 272 193 272 179.5 257 c 128,-1,33
 166 242 166 242 165 220 c 0,34,35
 163 194 163 194 163 172.5 c 128,-1,36
 163 151 163 151 168 132 c 128,-1,37
 173 113 173 113 185 96 c 128,-1,38
 197 79 197 79 220 63 c 0,39,40
 237 51 237 51 262 57 c 128,-1,41
 287 63 287 63 313 78 c 128,-1,42
 339 93 339 93 364 112 c 128,-1,43
 389 131 389 131 407 144.5 c 128,-1,44
 425 158 425 158 433 162 c 128,-1,45
 441 166 441 166 433 150 c 1,46,47
 419 117 419 117 400 84 c 128,-1,48
 381 51 381 51 355 28 c 128,-1,49
 329 5 329 5 295.5 -2.5 c 128,-1,50
 262 -10 262 -10 220 8 c 0,0,1
188 371 m 0,51,52
 187 366 187 366 184 351 c 128,-1,53
 181 336 181 336 181 331 c 1,54,55
 182 330 182 330 184.5 330 c 128,-1,56
 187 330 187 330 188 331 c 0,57,58
 191 333 191 333 197 337.5 c 128,-1,59
 203 342 203 342 209 346.5 c 128,-1,60
 215 351 215 351 220.5 355.5 c 128,-1,61
 226 360 226 360 228 362 c 0,62,63
 258 392 258 392 270.5 417.5 c 128,-1,64
 283 443 283 443 283 459 c 128,-1,65
 283 475 283 475 272.5 480.5 c 128,-1,66
 262 486 262 486 247.5 477 c 128,-1,67
 233 468 233 468 217 442.5 c 128,-1,68
 201 417 201 417 188 371 c 0,51,52
EndSplineSet
EndChar

StartChar: f
Encoding: 102 102 73
Width: 473
Flags: W
LayerCount: 2
Fore
SplineSet
158 284 m 1,0,1
 135 287 135 287 106 281.5 c 128,-1,2
 77 276 77 276 55 268 c 0,3,4
 45 264 45 264 35.5 273 c 128,-1,5
 26 282 26 282 22 294.5 c 128,-1,6
 18 307 18 307 21 318 c 128,-1,7
 24 329 24 329 39 331 c 0,8,9
 43 331 43 331 61 330 c 128,-1,10
 79 329 79 329 99.5 329.5 c 128,-1,11
 120 330 120 330 137.5 333.5 c 128,-1,12
 155 337 155 337 158 346 c 1,13,14
 157 388 157 388 155 436 c 128,-1,15
 153 484 153 484 153 533.5 c 128,-1,16
 153 583 153 583 157.5 631.5 c 128,-1,17
 162 680 162 680 173 725 c 0,18,19
 180 751 180 751 193.5 761 c 128,-1,20
 207 771 207 771 237 764 c 0,21,22
 261 759 261 759 287 739.5 c 128,-1,23
 313 720 313 720 335.5 694 c 128,-1,24
 358 668 358 668 374.5 638.5 c 128,-1,25
 391 609 391 609 394 583 c 0,26,27
 395 573 395 573 385.5 565 c 128,-1,28
 376 557 376 557 364 558 c 128,-1,29
 352 559 352 559 341.5 573.5 c 128,-1,30
 331 588 331 588 331 623 c 0,31,32
 331 625 331 625 328 630.5 c 128,-1,33
 325 636 325 636 323 638 c 2,34,-1
 252 709 l 1,35,36
 232 717 232 717 221.5 706.5 c 128,-1,37
 211 696 211 696 206 679 c 128,-1,38
 201 662 201 662 199.5 643 c 128,-1,39
 198 624 198 624 197 614 c 0,40,41
 194 576 194 576 191.5 545 c 128,-1,42
 189 514 189 514 188.5 484 c 128,-1,43
 188 454 188 454 190 423 c 128,-1,44
 192 392 192 392 197 354 c 1,45,46
 201 353 201 353 225.5 362.5 c 128,-1,47
 250 372 250 372 283.5 383.5 c 128,-1,48
 317 395 317 395 353 405 c 128,-1,49
 389 415 389 415 415.5 416 c 128,-1,50
 442 417 442 417 453.5 405.5 c 128,-1,51
 465 394 465 394 449 362 c 0,52,53
 443 351 443 351 431 351.5 c 128,-1,54
 419 352 419 352 410 354 c 1,55,56
 403 352 403 352 386 346.5 c 128,-1,57
 369 341 369 341 350.5 334.5 c 128,-1,58
 332 328 332 328 315 322.5 c 128,-1,59
 298 317 298 317 292 315 c 0,60,61
 289 314 289 314 279.5 312 c 128,-1,62
 270 310 270 310 259.5 307 c 128,-1,63
 249 304 249 304 239.5 302 c 128,-1,64
 230 300 230 300 228 299 c 0,65,66
 225 298 225 298 221.5 297.5 c 128,-1,67
 218 297 218 297 214 295 c 256,68,69
 210 293 210 293 205 292 c 1,70,-1
 205 8 l 2,71,72
 205 0 205 0 197.5 -2 c 128,-1,73
 190 -4 190 -4 181.5 -1.5 c 128,-1,74
 173 1 173 1 165.5 7.5 c 128,-1,75
 158 14 158 14 158 24 c 2,76,-1
 158 284 l 1,0,1
EndSplineSet
EndChar

StartChar: g
Encoding: 103 103 74
Width: 435
Flags: W
LayerCount: 2
Fore
SplineSet
209 -575 m 0,0,1
 171 -557 171 -557 145 -521.5 c 128,-1,2
 119 -486 119 -486 103 -440.5 c 128,-1,3
 87 -395 87 -395 80 -344.5 c 128,-1,4
 73 -294 73 -294 72 -246 c 128,-1,5
 71 -198 71 -198 75 -157 c 128,-1,6
 79 -116 79 -116 85 -89 c 0,7,8
 87 -79 87 -79 95.5 -63.5 c 128,-1,9
 104 -48 104 -48 112 -32 c 128,-1,10
 120 -16 120 -16 125.5 -1 c 128,-1,11
 131 14 131 14 127 23 c 1,12,-1
 106 23 l 2,13,14
 89 23 89 23 75 35.5 c 128,-1,15
 61 48 61 48 50.5 64 c 128,-1,16
 40 80 40 80 33 96 c 128,-1,17
 26 112 26 112 23 120 c 1,18,19
 21 139 21 139 19.5 162 c 128,-1,20
 18 185 18 185 18.5 208 c 128,-1,21
 19 231 19 231 22 254.5 c 128,-1,22
 25 278 25 278 33 299 c 0,23,24
 42 325 42 325 59.5 362.5 c 128,-1,25
 77 400 77 400 100 436 c 128,-1,26
 123 472 123 472 151.5 500 c 128,-1,27
 180 528 180 528 211.5 536 c 128,-1,28
 243 544 243 544 277 525.5 c 128,-1,29
 311 507 311 507 345 449 c 1,30,31
 353 447 353 447 361 448.5 c 128,-1,32
 369 450 369 450 376 451.5 c 128,-1,33
 383 453 383 453 388.5 453 c 128,-1,34
 394 453 394 453 399 449 c 1,35,36
 400 437 400 437 401 405 c 128,-1,37
 402 373 402 373 402 335 c 128,-1,38
 402 297 402 297 398.5 260.5 c 128,-1,39
 395 224 395 224 387 202 c 1,40,41
 387 189 387 189 386 161 c 128,-1,42
 385 133 385 133 384 98.5 c 128,-1,43
 383 64 383 64 382 25.5 c 128,-1,44
 381 -13 381 -13 380.5 -47.5 c 128,-1,45
 380 -82 380 -82 379 -109.5 c 128,-1,46
 378 -137 378 -137 378 -150 c 1,47,48
 377 -156 377 -156 375.5 -174 c 128,-1,49
 374 -192 374 -192 372 -212 c 128,-1,50
 370 -232 370 -232 368.5 -250.5 c 128,-1,51
 367 -269 367 -269 367 -276 c 1,52,53
 366 -282 366 -282 361.5 -310 c 128,-1,54
 357 -338 357 -338 348 -375.5 c 128,-1,55
 339 -413 339 -413 326 -453.5 c 128,-1,56
 313 -494 313 -494 295.5 -525.5 c 128,-1,57
 278 -557 278 -557 256.5 -572.5 c 128,-1,58
 235 -588 235 -588 209 -575 c 0,0,1
178 -494 m 256,59,60
 199 -518 199 -518 216 -518.5 c 128,-1,61
 233 -519 233 -519 247 -503.5 c 128,-1,62
 261 -488 261 -488 272.5 -459.5 c 128,-1,63
 284 -431 284 -431 292.5 -397.5 c 128,-1,64
 301 -364 301 -364 307 -329 c 128,-1,65
 313 -294 313 -294 317 -265 c 128,-1,66
 321 -236 321 -236 323 -216.5 c 128,-1,67
 325 -197 325 -197 325 -195 c 0,68,69
 326 -185 326 -185 328 -164 c 128,-1,70
 330 -143 330 -143 331.5 -121.5 c 128,-1,71
 333 -100 333 -100 334 -82.5 c 128,-1,72
 335 -65 335 -65 335 -60 c 0,73,74
 336 -50 336 -50 336 -25.5 c 128,-1,75
 336 -1 336 -1 336 26 c 128,-1,76
 336 53 336 53 336 77.5 c 128,-1,77
 336 102 336 102 335 112 c 1,78,-1
 313 112 l 1,79,-1
 188 23 l 2,80,81
 160 3 160 3 142.5 -36.5 c 128,-1,82
 125 -76 125 -76 117 -125.5 c 128,-1,83
 109 -175 109 -175 110 -229.5 c 128,-1,84
 111 -284 111 -284 119 -334.5 c 128,-1,85
 127 -385 127 -385 142 -427.5 c 128,-1,86
 157 -470 157 -470 178 -494 c 256,59,60
85 97 m 1,87,88
 141 79 141 79 188.5 88.5 c 128,-1,89
 236 98 236 98 270 126.5 c 128,-1,90
 304 155 304 155 322.5 199 c 128,-1,91
 341 243 341 243 339.5 293 c 128,-1,92
 338 343 338 343 314.5 395.5 c 128,-1,93
 291 448 291 448 242 494 c 1,94,95
 214 501 214 501 188.5 479.5 c 128,-1,96
 163 458 163 458 141.5 419 c 128,-1,97
 120 380 120 380 104 331.5 c 128,-1,98
 88 283 88 283 80 236 c 128,-1,99
 72 189 72 189 72.5 151 c 128,-1,100
 73 113 73 113 85 97 c 1,87,88
EndSplineSet
EndChar

StartChar: h
Encoding: 104 104 75
Width: 527
Flags: W
LayerCount: 2
Fore
SplineSet
433 39 m 1,0,1
 439 225 439 225 417.5 338.5 c 128,-1,2
 396 452 396 452 359.5 501 c 128,-1,3
 323 550 323 550 279 539 c 128,-1,4
 235 528 235 528 195.5 466.5 c 128,-1,5
 156 405 156 405 127.5 298 c 128,-1,6
 99 191 99 191 95 47 c 1,7,8
 91 35 91 35 83 35.5 c 128,-1,9
 75 36 75 36 67 43 c 128,-1,10
 59 50 59 50 53 60.5 c 128,-1,11
 47 71 47 71 47 79 c 0,12,13
 47 83 47 83 48.5 98 c 128,-1,14
 50 113 50 113 51.5 130 c 128,-1,15
 53 147 53 147 54 162 c 128,-1,16
 55 177 55 177 55 181 c 0,17,18
 55 190 55 190 55.5 209.5 c 128,-1,19
 56 229 56 229 56 254 c 128,-1,20
 56 279 56 279 56 306.5 c 128,-1,21
 56 334 56 334 56 358.5 c 128,-1,22
 56 383 56 383 55.5 403 c 128,-1,23
 55 423 55 423 55 433 c 0,24,25
 55 438 55 438 54 454.5 c 128,-1,26
 53 471 53 471 52 489.5 c 128,-1,27
 51 508 51 508 49.5 525.5 c 128,-1,28
 48 543 48 543 47 551 c 0,29,30
 47 556 47 556 44.5 574.5 c 128,-1,31
 42 593 42 593 39.5 614.5 c 128,-1,32
 37 636 37 636 35 654.5 c 128,-1,33
 33 673 33 673 32 678 c 0,34,35
 29 710 29 710 40 715.5 c 128,-1,36
 51 721 51 721 71 693 c 1,37,38
 79 611 79 611 82 531.5 c 128,-1,39
 85 452 85 452 95 371 c 1,40,41
 104 401 104 401 117.5 434.5 c 128,-1,42
 131 468 131 468 149.5 498 c 128,-1,43
 168 528 168 528 193.5 551 c 128,-1,44
 219 574 219 574 252 583 c 0,45,46
 296 596 296 596 328 586 c 128,-1,47
 360 576 360 576 382.5 550.5 c 128,-1,48
 405 525 405 525 419 487 c 128,-1,49
 433 449 433 449 442 405 c 128,-1,50
 451 361 451 361 455 314.5 c 128,-1,51
 459 268 459 268 462 226 c 128,-1,52
 465 184 465 184 467 149.5 c 128,-1,53
 469 115 469 115 473 94 c 0,54,55
 476 78 476 78 488 75.5 c 128,-1,56
 500 73 500 73 510 70.5 c 128,-1,57
 520 68 520 68 521.5 59.5 c 128,-1,58
 523 51 523 51 505 24 c 0,59,60
 498 14 498 14 485.5 9 c 128,-1,61
 473 4 473 4 460.5 4.5 c 128,-1,62
 448 5 448 5 439.5 13.5 c 128,-1,63
 431 22 431 22 433 39 c 1,0,1
EndSplineSet
EndChar

StartChar: i
Encoding: 105 105 76
Width: 111
Flags: W
LayerCount: 2
Fore
SplineSet
24 24 m 0,0,1
 22 30 22 30 21 64.5 c 128,-1,2
 20 99 20 99 19.5 148 c 128,-1,3
 19 197 19 197 20 254.5 c 128,-1,4
 21 312 21 312 22.5 362.5 c 128,-1,5
 24 413 24 413 26.5 450 c 128,-1,6
 29 487 29 487 32 497 c 1,7,8
 38 500 38 500 45 497 c 128,-1,9
 52 494 52 494 57.5 489 c 128,-1,10
 63 484 63 484 67 477 c 128,-1,11
 71 470 71 470 71 465 c 2,12,-1
 71 24 l 2,13,14
 71 13 71 13 65 7.5 c 128,-1,15
 59 2 59 2 50.5 2 c 128,-1,16
 42 2 42 2 34.5 7.5 c 128,-1,17
 27 13 27 13 24 24 c 0,0,1
32 653 m 0,18,19
 31 656 31 656 30.5 661.5 c 128,-1,20
 30 667 30 667 30 673.5 c 128,-1,21
 30 680 30 680 30.5 685.5 c 128,-1,22
 31 691 31 691 32 693 c 1,23,24
 40 697 40 697 50 700 c 128,-1,25
 60 703 60 703 71 701 c 1,26,27
 88 679 88 679 92.5 665.5 c 128,-1,28
 97 652 97 652 93 644.5 c 128,-1,29
 89 637 89 637 79.5 635.5 c 128,-1,30
 70 634 70 634 60 636 c 128,-1,31
 50 638 50 638 41.5 642.5 c 128,-1,32
 33 647 33 647 32 653 c 0,18,19
EndSplineSet
EndChar

StartChar: j
Encoding: 106 106 77
Width: 150
Flags: W
LayerCount: 2
Fore
SplineSet
-24 -488 m 0,0,1
 -41 -476 -41 -476 -59 -457.5 c 128,-1,2
 -77 -439 -77 -439 -91.5 -417 c 128,-1,3
 -106 -395 -106 -395 -114 -370.5 c 128,-1,4
 -122 -346 -122 -346 -118 -323 c 1,5,6
 -112 -320 -112 -320 -98.5 -339.5 c 128,-1,7
 -85 -359 -85 -359 -67.5 -384.5 c 128,-1,8
 -50 -410 -50 -410 -29.5 -433 c 128,-1,9
 -9 -456 -9 -456 11.5 -459.5 c 128,-1,10
 32 -463 32 -463 51.5 -439 c 128,-1,11
 71 -415 71 -415 87 -346 c 0,12,13
 89 -339 89 -339 91.5 -325 c 128,-1,14
 94 -311 94 -311 96.5 -297.5 c 128,-1,15
 99 -284 99 -284 100.5 -273 c 128,-1,16
 102 -262 102 -262 102 -260 c 2,17,-1
 102 -7 l 1,18,19
 99 5 99 5 93.5 34 c 128,-1,20
 88 63 88 63 81 99.5 c 128,-1,21
 74 136 74 136 67.5 175.5 c 128,-1,22
 61 215 61 215 55.5 249.5 c 128,-1,23
 50 284 50 284 47.5 308.5 c 128,-1,24
 45 333 45 333 48 339 c 0,25,26
 56 358 56 358 66.5 361 c 128,-1,27
 77 364 77 364 86 356.5 c 128,-1,28
 95 349 95 349 100 335 c 128,-1,29
 105 321 105 321 102 307 c 1,30,31
 104 293 104 293 107.5 263.5 c 128,-1,32
 111 234 111 234 115.5 197 c 128,-1,33
 120 160 120 160 124 118.5 c 128,-1,34
 128 77 128 77 132 40 c 128,-1,35
 136 3 136 3 138.5 -27 c 128,-1,36
 141 -57 141 -57 142 -71 c 0,37,38
 142 -78 142 -78 142.5 -103.5 c 128,-1,39
 143 -129 143 -129 143 -160.5 c 128,-1,40
 143 -192 143 -192 142.5 -222 c 128,-1,41
 142 -252 142 -252 142 -267 c 0,42,43
 141 -285 141 -285 137.5 -314.5 c 128,-1,44
 134 -344 134 -344 126 -375.5 c 128,-1,45
 118 -407 118 -407 105 -437 c 128,-1,46
 92 -467 92 -467 74 -485.5 c 128,-1,47
 56 -504 56 -504 31.5 -507 c 128,-1,48
 7 -510 7 -510 -24 -488 c 0,0,1
16 520 m 0,49,50
 -11 536 -11 536 -11.5 546.5 c 128,-1,51
 -12 557 -12 557 0.5 561 c 128,-1,52
 13 565 13 565 32 563.5 c 128,-1,53
 51 562 51 562 63.5 555 c 128,-1,54
 76 548 76 548 75.5 535.5 c 128,-1,55
 75 523 75 523 48 505 c 1,56,57
 44 507 44 507 31.5 512.5 c 128,-1,58
 19 518 19 518 16 520 c 0,49,50
EndSplineSet
EndChar

StartChar: k
Encoding: 107 107 78
Width: 612
Flags: W
LayerCount: 2
Fore
SplineSet
60 22 m 0,0,1
 82 181 82 181 72.5 336 c 128,-1,2
 63 491 63 491 14 644 c 0,3,4
 9 657 9 657 14 666 c 128,-1,5
 19 675 19 675 28 676.5 c 128,-1,6
 37 678 37 678 46 670.5 c 128,-1,7
 55 663 55 663 60 644 c 1,8,9
 74 562 74 562 83.5 479.5 c 128,-1,10
 93 397 93 397 105 313 c 1,11,12
 130 293 130 293 157.5 304 c 128,-1,13
 185 315 185 315 213 344 c 128,-1,14
 241 373 241 373 267.5 413.5 c 128,-1,15
 294 454 294 454 317.5 492 c 128,-1,16
 341 530 341 530 359.5 560 c 128,-1,17
 378 590 378 590 390 598 c 0,18,19
 412 614 412 614 412 600.5 c 128,-1,20
 412 587 412 587 397 557 c 128,-1,21
 382 527 382 527 357 486.5 c 128,-1,22
 332 446 332 446 304.5 407.5 c 128,-1,23
 277 369 277 369 251.5 339 c 128,-1,24
 226 309 226 309 211 299 c 0,25,26
 209 297 209 297 203.5 294 c 128,-1,27
 198 291 198 291 192 287 c 128,-1,28
 186 283 186 283 180 279.5 c 128,-1,29
 174 276 174 276 172 275 c 1,30,-1
 172 267 l 2,31,32
 172 266 172 266 179 261.5 c 128,-1,33
 186 257 186 257 195.5 251 c 128,-1,34
 205 245 205 245 215 239 c 128,-1,35
 225 233 225 233 231 229 c 0,36,37
 250 219 250 219 277.5 202 c 128,-1,38
 305 185 305 185 336.5 166.5 c 128,-1,39
 368 148 368 148 401.5 131 c 128,-1,40
 435 114 435 114 468 103 c 128,-1,41
 501 92 501 92 530.5 90 c 128,-1,42
 560 88 560 88 582.5 100 c 128,-1,43
 605 112 605 112 619 141 c 128,-1,44
 633 170 633 170 634 221 c 1,45,-1
 654 221 l 2,46,47
 659 221 659 221 662 207 c 128,-1,48
 665 193 665 193 664.5 172.5 c 128,-1,49
 664 152 664 152 658 128.5 c 128,-1,50
 652 105 652 105 638 85.5 c 128,-1,51
 624 66 624 66 600.5 54 c 128,-1,52
 577 42 577 42 542 45 c 0,53,54
 493 49 493 49 440 70 c 128,-1,55
 387 91 387 91 335 119.5 c 128,-1,56
 283 148 283 148 234.5 180 c 128,-1,57
 186 212 186 212 146 237 c 0,58,59
 143 239 143 239 132.5 241.5 c 128,-1,60
 122 244 122 244 120 245 c 1,61,-1
 113 245 l 1,62,63
 107 186 107 186 106.5 124.5 c 128,-1,64
 106 63 106 63 93 7 c 0,65,66
 92 6 92 6 86 5 c 128,-1,67
 80 4 80 4 73.5 4.5 c 128,-1,68
 67 5 67 5 62.5 9 c 128,-1,69
 58 13 58 13 60 22 c 0,0,1
EndSplineSet
EndChar

StartChar: l
Encoding: 108 108 79
Width: 141
Flags: W
LayerCount: 2
Fore
SplineSet
62 15 m 1,0,1
 58 31 58 31 56 59 c 128,-1,2
 54 87 54 87 54 121.5 c 128,-1,3
 54 156 54 156 54.5 194 c 128,-1,4
 55 232 55 232 56 268 c 128,-1,5
 57 304 57 304 56.5 335 c 128,-1,6
 56 366 56 366 54 386 c 0,7,8
 53 401 53 401 51.5 430.5 c 128,-1,9
 50 460 50 460 48 497 c 128,-1,10
 46 534 46 534 43.5 575 c 128,-1,11
 41 616 41 616 40 653.5 c 128,-1,12
 39 691 39 691 39 722.5 c 128,-1,13
 39 754 39 754 41 771 c 1,14,15
 56 784 56 784 65.5 764.5 c 128,-1,16
 75 745 75 745 80 708.5 c 128,-1,17
 85 672 85 672 86.5 626 c 128,-1,18
 88 580 88 580 88 539 c 128,-1,19
 88 498 88 498 87 470 c 128,-1,20
 86 442 86 442 86 441 c 0,21,22
 91 347 91 347 92.5 255.5 c 128,-1,23
 94 164 94 164 102 71 c 1,24,25
 112 52 112 52 112.5 30.5 c 128,-1,26
 113 9 113 9 106.5 -4 c 128,-1,27
 100 -17 100 -17 88 -15 c 128,-1,28
 76 -13 76 -13 62 15 c 1,0,1
EndSplineSet
EndChar

StartChar: m
Encoding: 109 109 80
Width: 890
Flags: W
LayerCount: 2
Fore
SplineSet
701 15 m 0,0,1
 699 18 699 18 696 24 c 128,-1,2
 693 30 693 30 691 36.5 c 128,-1,3
 689 43 689 43 687 48 c 128,-1,4
 685 53 685 53 685 55 c 0,5,6
 686 67 686 67 688.5 92 c 128,-1,7
 691 117 691 117 693.5 148 c 128,-1,8
 696 179 696 179 698.5 214 c 128,-1,9
 701 249 701 249 701 280.5 c 128,-1,10
 701 312 701 312 698.5 338 c 128,-1,11
 696 364 696 364 689 378 c 0,12,13
 678 401 678 401 656.5 412 c 128,-1,14
 635 423 635 423 610 425 c 0,15,16
 553 430 553 430 515.5 405 c 128,-1,17
 478 380 478 380 454 338.5 c 128,-1,18
 430 297 430 297 416.5 246 c 128,-1,19
 403 195 403 195 393.5 148.5 c 128,-1,20
 384 102 384 102 375.5 67.5 c 128,-1,21
 367 33 367 33 354 24 c 0,22,23
 344 17 344 17 337.5 19 c 128,-1,24
 331 21 331 21 326.5 28.5 c 128,-1,25
 322 36 322 36 319 45.5 c 128,-1,26
 316 55 316 55 315 63 c 1,27,28
 316 100 316 100 320.5 153 c 128,-1,29
 325 206 325 206 327 262 c 128,-1,30
 329 318 329 318 326.5 369.5 c 128,-1,31
 324 421 324 421 311 456 c 0,32,33
 296 498 296 498 279 506 c 128,-1,34
 262 514 262 514 244 498 c 128,-1,35
 226 482 226 482 208.5 447 c 128,-1,36
 191 412 191 412 175 368 c 128,-1,37
 159 324 159 324 145 276 c 128,-1,38
 131 228 131 228 120.5 185.5 c 128,-1,39
 110 143 110 143 103 112 c 128,-1,40
 96 81 96 81 95 71 c 0,41,42
 92 51 92 51 79 50 c 128,-1,43
 66 49 66 49 54 59 c 128,-1,44
 42 69 42 69 37.5 86 c 128,-1,45
 33 103 33 103 47 118 c 1,46,47
 48 135 48 135 48 170 c 128,-1,48
 48 205 48 205 47 249 c 128,-1,49
 46 293 46 293 45.5 342 c 128,-1,50
 45 391 45 391 45 436 c 128,-1,51
 45 481 45 481 46.5 517.5 c 128,-1,52
 48 554 48 554 51 574 c 0,53,54
 53 586 53 586 60 587.5 c 128,-1,55
 67 589 67 589 75 585 c 128,-1,56
 83 581 83 581 89.5 573 c 128,-1,57
 96 565 96 565 98 558 c 0,58,59
 103 538 103 538 104.5 518.5 c 128,-1,60
 106 499 106 499 107 479.5 c 128,-1,61
 108 460 108 460 109 440.5 c 128,-1,62
 110 421 110 421 115 401 c 1,63,64
 124 420 124 420 139 447 c 128,-1,65
 154 474 154 474 173 499 c 128,-1,66
 192 524 192 524 213.5 543 c 128,-1,67
 235 562 235 562 256.5 566 c 128,-1,68
 278 570 278 570 298 554.5 c 128,-1,69
 318 539 318 539 335 496 c 0,70,71
 340 482 340 482 344.5 460.5 c 128,-1,72
 349 439 349 439 354 416 c 128,-1,73
 359 393 359 393 366 371.5 c 128,-1,74
 373 350 373 350 382 338 c 1,75,76
 399 348 399 348 411.5 365 c 128,-1,77
 424 382 424 382 436.5 400.5 c 128,-1,78
 449 419 449 419 463.5 436 c 128,-1,79
 478 453 478 453 500 464 c 1,80,81
 574 489 574 489 622.5 479 c 128,-1,82
 671 469 671 469 700 436.5 c 128,-1,83
 729 404 729 404 741.5 355.5 c 128,-1,84
 754 307 754 307 755.5 255 c 128,-1,85
 757 203 757 203 750 153.5 c 128,-1,86
 743 104 743 104 733 71 c 1,87,-1
 740 63 l 2,88,89
 745 58 745 58 763.5 70 c 128,-1,90
 782 82 782 82 804 97 c 128,-1,91
 826 112 826 112 846 124.5 c 128,-1,92
 866 137 866 137 874 134 c 1,93,-1
 874 118 l 1,94,95
 866 111 866 111 854.5 96.5 c 128,-1,96
 843 82 843 82 828.5 66 c 128,-1,97
 814 50 814 50 797.5 34.5 c 128,-1,98
 781 19 781 19 764.5 10 c 128,-1,99
 748 1 748 1 731.5 1 c 128,-1,100
 715 1 715 1 701 15 c 0,0,1
EndSplineSet
EndChar

StartChar: n
Encoding: 110 110 81
Width: 567
Flags: W
LayerCount: 2
Fore
SplineSet
24 8 m 0,0,1
 22 10 22 10 19 16 c 128,-1,2
 16 22 16 22 15 24 c 1,3,4
 18 37 18 37 21.5 82.5 c 128,-1,5
 25 128 25 128 29.5 188 c 128,-1,6
 34 248 34 248 40.5 313 c 128,-1,7
 47 378 47 378 55 429 c 128,-1,8
 63 480 63 480 74 507.5 c 128,-1,9
 85 535 85 535 99 521 c 1,10,11
 129 499 129 499 155 465.5 c 128,-1,12
 181 432 181 432 205 393 c 128,-1,13
 229 354 229 354 251.5 312.5 c 128,-1,14
 274 271 274 271 298.5 233.5 c 128,-1,15
 323 196 323 196 350.5 165.5 c 128,-1,16
 378 135 378 135 410 118 c 1,17,-1
 417 118 l 1,18,19
 419 142 419 142 421.5 177.5 c 128,-1,20
 424 213 424 213 427 255 c 128,-1,21
 430 297 430 297 433 341.5 c 128,-1,22
 436 386 436 386 440.5 428.5 c 128,-1,23
 445 471 445 471 450 507 c 128,-1,24
 455 543 455 543 461 568 c 0,25,26
 462 570 462 570 465.5 576.5 c 128,-1,27
 469 583 469 583 473.5 589.5 c 128,-1,28
 478 596 478 596 483 600 c 128,-1,29
 488 604 488 604 493 600 c 2,30,-1
 540 552 l 2,31,32
 543 549 543 549 536.5 539.5 c 128,-1,33
 530 530 530 530 521 518.5 c 128,-1,34
 512 507 512 507 503 496.5 c 128,-1,35
 494 486 494 486 493 481 c 0,36,37
 486 455 486 455 481 418.5 c 128,-1,38
 476 382 476 382 473 340.5 c 128,-1,39
 470 299 470 299 468 255 c 128,-1,40
 466 211 466 211 464.5 169.5 c 128,-1,41
 463 128 463 128 462.5 91 c 128,-1,42
 462 54 462 54 461 27 c 1,43,44
 425 28 425 28 392 49 c 128,-1,45
 359 70 359 70 328.5 104.5 c 128,-1,46
 298 139 298 139 269.5 182.5 c 128,-1,47
 241 226 241 226 214.5 270.5 c 128,-1,48
 188 315 188 315 163 358 c 128,-1,49
 138 401 138 401 115 434 c 1,50,-1
 106 434 l 2,51,52
 102 434 102 434 99.5 412.5 c 128,-1,53
 97 391 97 391 95 357 c 128,-1,54
 93 323 93 323 91 279.5 c 128,-1,55
 89 236 89 236 85.5 192.5 c 128,-1,56
 82 149 82 149 77 109.5 c 128,-1,57
 72 70 72 70 65 43 c 128,-1,58
 58 16 58 16 48 5 c 128,-1,59
 38 -6 38 -6 24 8 c 0,0,1
EndSplineSet
EndChar

StartChar: o
Encoding: 111 111 82
Width: 346
Flags: W
LayerCount: 2
Fore
SplineSet
79 8 m 1,0,1
 50 30 50 30 36 56.5 c 128,-1,2
 22 83 22 83 17.5 112.5 c 128,-1,3
 13 142 13 142 17.5 173.5 c 128,-1,4
 22 205 22 205 31 237 c 0,5,6
 37 257 37 257 42.5 285 c 128,-1,7
 48 313 48 313 56 341.5 c 128,-1,8
 64 370 64 370 75 394.5 c 128,-1,9
 86 419 86 419 102 433 c 0,10,11
 112 442 112 442 128 446.5 c 128,-1,12
 144 451 144 451 161 451.5 c 128,-1,13
 178 452 178 452 194 451 c 128,-1,14
 210 450 210 450 220 449 c 0,15,16
 264 446 264 446 288 419.5 c 128,-1,17
 312 393 312 393 320 354 c 128,-1,18
 328 315 328 315 322.5 267 c 128,-1,19
 317 219 317 219 300.5 172.5 c 128,-1,20
 284 126 284 126 259 85 c 128,-1,21
 234 44 234 44 204.5 18.5 c 128,-1,22
 175 -7 175 -7 142.5 -12 c 128,-1,23
 110 -17 110 -17 79 8 c 1,0,1
94 63 m 0,24,25
 119 43 119 43 148 54 c 128,-1,26
 177 65 177 65 203.5 95 c 128,-1,27
 230 125 230 125 251 167.5 c 128,-1,28
 272 210 272 210 281 252.5 c 128,-1,29
 290 295 290 295 284 331.5 c 128,-1,30
 278 368 278 368 252 386 c 0,31,32
 215 411 215 411 182 401.5 c 128,-1,33
 149 392 149 392 124 362.5 c 128,-1,34
 99 333 99 333 82.5 289 c 128,-1,35
 66 245 66 245 61 201 c 128,-1,36
 56 157 56 157 63.5 119 c 128,-1,37
 71 81 71 81 94 63 c 0,24,25
EndSplineSet
EndChar

StartChar: p
Encoding: 112 112 83
Width: 386
Flags: W
LayerCount: 2
Fore
SplineSet
7 -338 m 0,0,1
 -10 -326 -10 -326 -8 -307 c 1,2,3
 -5 -233 -5 -233 2 -160 c 128,-1,4
 9 -87 9 -87 18 -15 c 128,-1,5
 27 57 27 57 36.5 129.5 c 128,-1,6
 46 202 46 202 55 276 c 0,7,8
 56 282 56 282 54 295.5 c 128,-1,9
 52 309 52 309 50 325 c 128,-1,10
 48 341 48 341 47.5 357.5 c 128,-1,11
 47 374 47 374 51 386 c 128,-1,12
 55 398 55 398 65 403 c 128,-1,13
 75 408 75 408 94 402 c 0,14,15
 97 401 97 401 103.5 395 c 128,-1,16
 110 389 110 389 110 386 c 1,17,18
 135 433 135 433 166 445.5 c 128,-1,19
 197 458 197 458 228 445.5 c 128,-1,20
 259 433 259 433 286 400 c 128,-1,21
 313 367 313 367 331.5 323 c 128,-1,22
 350 279 350 279 356.5 229 c 128,-1,23
 363 179 363 179 352 132 c 128,-1,24
 341 85 341 85 309.5 46 c 128,-1,25
 278 7 278 7 220 -15 c 0,26,27
 173 -33 173 -33 139.5 -24 c 128,-1,28
 106 -15 106 -15 71 16 c 1,29,30
 56 -67 56 -67 51.5 -152.5 c 128,-1,31
 47 -238 47 -238 39 -323 c 1,32,33
 34 -337 34 -337 28 -342.5 c 128,-1,34
 22 -348 22 -348 7 -338 c 0,0,1
126 32 m 0,35,36
 127 31 127 31 129.5 28 c 128,-1,37
 132 25 132 25 133 25 c 0,38,39
 197 18 197 18 237 37.5 c 128,-1,40
 277 57 277 57 296.5 91.5 c 128,-1,41
 316 126 316 126 318.5 170 c 128,-1,42
 321 214 321 214 311 256 c 128,-1,43
 301 298 301 298 282 333 c 128,-1,44
 263 368 263 368 239 385 c 128,-1,45
 215 402 215 402 189 395 c 128,-1,46
 163 388 163 388 141 347 c 0,47,48
 105 280 105 280 89.5 214.5 c 128,-1,49
 74 149 74 149 79 72 c 1,50,51
 101 97 101 97 110.5 96.5 c 128,-1,52
 120 96 120 96 123 84 c 128,-1,53
 126 72 126 72 125 55 c 128,-1,54
 124 38 124 38 126 32 c 0,35,36
EndSplineSet
EndChar

StartChar: q
Encoding: 113 113 84
Width: 373
Flags: W
LayerCount: 2
Fore
SplineSet
367 -503 m 0,0,1
 325 -482 325 -482 299.5 -443.5 c 128,-1,2
 274 -405 274 -405 259.5 -357 c 128,-1,3
 245 -309 245 -309 239.5 -254.5 c 128,-1,4
 234 -200 234 -200 233 -147 c 128,-1,5
 232 -94 232 -94 233 -45 c 128,-1,6
 234 4 234 4 233 41 c 1,7,8
 216 1 216 1 183 -15.5 c 128,-1,9
 150 -32 150 -32 116 -22 c 128,-1,10
 82 -12 82 -12 55.5 24.5 c 128,-1,11
 29 61 29 61 24 126 c 0,12,13
 22 152 22 152 24.5 190 c 128,-1,14
 27 228 27 228 35 271 c 128,-1,15
 43 314 43 314 55.5 358 c 128,-1,16
 68 402 68 402 86 441 c 128,-1,17
 104 480 104 480 126.5 509.5 c 128,-1,18
 149 539 149 539 177 552 c 0,19,20
 203 564 203 564 225 552.5 c 128,-1,21
 247 541 247 541 264.5 515 c 128,-1,22
 282 489 282 489 295 453.5 c 128,-1,23
 308 418 308 418 316.5 382.5 c 128,-1,24
 325 347 325 347 328 316 c 128,-1,25
 331 285 331 285 329 269 c 0,26,27
 329 268 329 268 325.5 255 c 128,-1,28
 322 242 322 242 317.5 223.5 c 128,-1,29
 313 205 313 205 308 183.5 c 128,-1,30
 303 162 303 162 298.5 143.5 c 128,-1,31
 294 125 294 125 291.5 112.5 c 128,-1,32
 289 100 289 100 290 99 c 0,33,34
 340 78 340 78 378.5 45.5 c 128,-1,35
 417 13 417 13 446 -26 c 128,-1,36
 475 -65 475 -65 495 -107.5 c 128,-1,37
 515 -150 515 -150 527.5 -191.5 c 128,-1,38
 540 -233 540 -233 545.5 -271 c 128,-1,39
 551 -309 551 -309 551 -339 c 1,40,41
 546 -367 546 -367 530 -403 c 128,-1,42
 514 -439 514 -439 490 -467.5 c 128,-1,43
 466 -496 466 -496 434.5 -509 c 128,-1,44
 403 -522 403 -522 367 -503 c 0,0,1
354 -451 m 1,45,46
 393 -479 393 -479 421.5 -476.5 c 128,-1,47
 450 -474 450 -474 468 -449 c 128,-1,48
 486 -424 486 -424 493.5 -382 c 128,-1,49
 501 -340 501 -340 497.5 -290 c 128,-1,50
 494 -240 494 -240 479.5 -186.5 c 128,-1,51
 465 -133 465 -133 439.5 -85.5 c 128,-1,52
 414 -38 414 -38 376.5 -1.5 c 128,-1,53
 339 35 339 35 290 52 c 1,54,55
 285 19 285 19 279 -24 c 128,-1,56
 273 -67 273 -67 269 -114 c 128,-1,57
 265 -161 265 -161 266 -209.5 c 128,-1,58
 267 -258 267 -258 275.5 -303 c 128,-1,59
 284 -348 284 -348 303 -386.5 c 128,-1,60
 322 -425 322 -425 354 -451 c 1,45,46
96 41 m 1,61,62
 140 21 140 21 172.5 31.5 c 128,-1,63
 205 42 205 42 226.5 72 c 128,-1,64
 248 102 248 102 259.5 146.5 c 128,-1,65
 271 191 271 191 274.5 240.5 c 128,-1,66
 278 290 278 290 273 339.5 c 128,-1,67
 268 389 268 389 256.5 427.5 c 128,-1,68
 245 466 245 466 228 489.5 c 128,-1,69
 211 513 211 513 189.5 511.5 c 128,-1,70
 168 510 168 510 143 477.5 c 128,-1,71
 118 445 118 445 91 373 c 0,72,73
 86 358 86 358 77 321 c 128,-1,74
 68 284 68 284 63.5 236 c 128,-1,75
 59 188 59 188 64.5 136 c 128,-1,76
 70 84 70 84 96 41 c 1,61,62
233 54 m 1,77,-1
 240 54 l 1,78,-1
 240 60 l 1,79,-1
 233 54 l 1,77,-1
EndSplineSet
EndChar

StartChar: r
Encoding: 114 114 85
Width: 455
Flags: W
LayerCount: 2
Fore
SplineSet
343 27 m 0,0,1
 303 50 303 50 280.5 73.5 c 128,-1,2
 258 97 258 97 238 119.5 c 128,-1,3
 218 142 218 142 192 162.5 c 128,-1,4
 166 183 166 183 120 199 c 1,5,6
 113 179 113 179 109 152 c 128,-1,7
 105 125 105 125 102.5 97.5 c 128,-1,8
 100 70 100 70 98.5 45.5 c 128,-1,9
 97 21 97 21 95 8 c 1,10,11
 82 -8 82 -8 70 -6 c 128,-1,12
 58 -4 58 -4 48.5 6.5 c 128,-1,13
 39 17 39 17 32.5 31.5 c 128,-1,14
 26 46 26 46 25 54 c 1,15,16
 48 108 48 108 56.5 163 c 128,-1,17
 65 218 65 218 64.5 276 c 128,-1,18
 64 334 64 334 58 396 c 128,-1,19
 52 458 52 458 48 526 c 1,20,21
 53 534 53 534 61.5 539 c 128,-1,22
 70 544 70 544 80 540 c 1,23,24
 93 555 93 555 114 573.5 c 128,-1,25
 135 592 135 592 159.5 607.5 c 128,-1,26
 184 623 184 623 210.5 633 c 128,-1,27
 237 643 237 643 260 641.5 c 128,-1,28
 283 640 283 640 300.5 624 c 128,-1,29
 318 608 318 608 326 572 c 1,30,31
 334 520 334 520 323 475 c 128,-1,32
 312 430 312 430 287.5 389.5 c 128,-1,33
 263 349 263 349 226 313.5 c 128,-1,34
 189 278 189 278 144 245 c 1,35,36
 141 239 141 239 146.5 233.5 c 128,-1,37
 152 228 152 228 160.5 223.5 c 128,-1,38
 169 219 169 219 178 216 c 128,-1,39
 187 213 187 213 191 212 c 1,40,41
 211 198 211 198 235 174.5 c 128,-1,42
 259 151 259 151 285.5 126.5 c 128,-1,43
 312 102 312 102 339.5 82 c 128,-1,44
 367 62 367 62 394 56.5 c 128,-1,45
 421 51 421 51 446.5 64 c 128,-1,46
 472 77 472 77 495 119 c 1,47,-1
 511 119 l 1,48,49
 515 89 515 89 501.5 63.5 c 128,-1,50
 488 38 488 38 463.5 24 c 128,-1,51
 439 10 439 10 407 9 c 128,-1,52
 375 8 375 8 343 27 c 0,0,1
112 356 m 0,53,54
 113 352 113 352 114 341.5 c 128,-1,55
 115 331 115 331 116.5 319.5 c 128,-1,56
 118 308 118 308 119 298 c 128,-1,57
 120 288 120 288 120 284 c 1,58,59
 163 301 163 301 195 337 c 128,-1,60
 227 373 227 373 247 414.5 c 128,-1,61
 267 456 267 456 273.5 497.5 c 128,-1,62
 280 539 280 539 273 566 c 128,-1,63
 266 593 266 593 243.5 599.5 c 128,-1,64
 221 606 221 606 183 579 c 0,65,66
 147 553 147 553 130.5 528.5 c 128,-1,67
 114 504 114 504 108.5 477.5 c 128,-1,68
 103 451 103 451 106 421.5 c 128,-1,69
 109 392 109 392 112 356 c 0,53,54
EndSplineSet
EndChar

StartChar: s
Encoding: 115 115 86
Width: 371
Flags: W
LayerCount: 2
Fore
SplineSet
176 -5 m 0,0,1
 167 0 167 0 151.5 7.5 c 128,-1,2
 136 15 136 15 119 25 c 128,-1,3
 102 35 102 35 86.5 46.5 c 128,-1,4
 71 58 71 58 61 71.5 c 128,-1,5
 51 85 51 85 50 100 c 128,-1,6
 49 115 49 115 61 131 c 0,7,8
 63 133 63 133 74.5 120.5 c 128,-1,9
 86 108 86 108 104 90.5 c 128,-1,10
 122 73 122 73 145 54.5 c 128,-1,11
 168 36 168 36 192 26.5 c 128,-1,12
 216 17 216 17 240 20.5 c 128,-1,13
 264 24 264 24 284 50 c 0,14,15
 292 61 292 61 295.5 75.5 c 128,-1,16
 299 90 299 90 298 105 c 128,-1,17
 297 120 297 120 293.5 134.5 c 128,-1,18
 290 149 290 149 284 161 c 0,19,20
 271 189 271 189 243.5 218 c 128,-1,21
 216 247 216 247 184.5 277 c 128,-1,22
 153 307 153 307 123 338 c 128,-1,23
 93 369 93 369 76 401 c 128,-1,24
 59 433 59 433 59.5 465.5 c 128,-1,25
 60 498 60 498 89 532 c 0,26,27
 112 558 112 558 146.5 558 c 128,-1,28
 181 558 181 558 214.5 543 c 128,-1,29
 248 528 248 528 273.5 504.5 c 128,-1,30
 299 481 299 481 305 459 c 0,31,32
 308 450 308 450 307 439.5 c 128,-1,33
 306 429 306 429 301 422 c 128,-1,34
 296 415 296 415 286.5 412.5 c 128,-1,35
 277 410 277 410 262 416 c 0,36,37
 245 422 245 422 235.5 442 c 128,-1,38
 226 462 226 462 215.5 481.5 c 128,-1,39
 205 501 205 501 188.5 512.5 c 128,-1,40
 172 524 172 524 140 514 c 0,41,42
 104 502 104 502 101 477.5 c 128,-1,43
 98 453 98 453 115.5 421.5 c 128,-1,44
 133 390 133 390 163.5 355.5 c 128,-1,45
 194 321 194 321 225.5 290 c 128,-1,46
 257 259 257 259 282 234.5 c 128,-1,47
 307 210 307 210 313 199 c 0,48,49
 325 176 325 176 334.5 141.5 c 128,-1,50
 344 107 344 107 341 74 c 128,-1,51
 338 41 338 41 319 16.5 c 128,-1,52
 300 -8 300 -8 255 -11 c 0,53,54
 249 -12 249 -12 238.5 -12.5 c 128,-1,55
 228 -13 228 -13 217 -13 c 128,-1,56
 206 -13 206 -13 194.5 -11 c 128,-1,57
 183 -9 183 -9 176 -5 c 0,0,1
EndSplineSet
EndChar

StartChar: t
Encoding: 116 116 87
Width: 473
Flags: W
LayerCount: 2
Fore
SplineSet
157 8 m 0,0,1
 157 27 157 27 158.5 59 c 128,-1,2
 160 91 160 91 161 129 c 128,-1,3
 162 167 162 167 162 207 c 128,-1,4
 162 247 162 247 160 282 c 128,-1,5
 158 317 158 317 153.5 343 c 128,-1,6
 149 369 149 369 141 378 c 1,7,8
 78 373 78 373 45 379 c 128,-1,9
 12 385 12 385 11.5 395 c 128,-1,10
 11 405 11 405 45 416.5 c 128,-1,11
 79 428 79 428 150 433 c 1,12,13
 150 445 150 445 150.5 475.5 c 128,-1,14
 151 506 151 506 151 540 c 128,-1,15
 151 574 151 574 150.5 604 c 128,-1,16
 150 634 150 634 150 646 c 1,17,18
 149 653 149 653 147 665 c 128,-1,19
 145 677 145 677 143 690.5 c 128,-1,20
 141 704 141 704 140 717.5 c 128,-1,21
 139 731 139 731 141 740 c 0,22,23
 143 752 143 752 151.5 756.5 c 128,-1,24
 160 761 160 761 169 760.5 c 128,-1,25
 178 760 178 760 185.5 754.5 c 128,-1,26
 193 749 193 749 193 740 c 2,27,-1
 193 441 l 2,28,29
 193 431 193 431 218 431.5 c 128,-1,30
 243 432 243 432 279 436 c 128,-1,31
 315 440 315 440 354.5 444.5 c 128,-1,32
 394 449 394 449 422.5 447 c 128,-1,33
 451 445 451 445 461 433.5 c 128,-1,34
 471 422 471 422 449 394 c 0,35,36
 447 392 447 392 441 389 c 128,-1,37
 435 386 435 386 433 386 c 0,38,39
 379 388 379 388 319 387 c 128,-1,40
 259 386 259 386 205 378 c 0,41,42
 187 375 187 375 185.5 344.5 c 128,-1,43
 184 314 184 314 190.5 270 c 128,-1,44
 197 226 197 226 205.5 176.5 c 128,-1,45
 214 127 214 127 216 86 c 128,-1,46
 218 45 218 45 207.5 19.5 c 128,-1,47
 197 -6 197 -6 165 0 c 0,48,49
 163 0 163 0 160 3 c 128,-1,50
 157 6 157 6 157 8 c 0,0,1
EndSplineSet
EndChar

StartChar: u
Encoding: 117 117 88
Width: 663
Flags: W
LayerCount: 2
Fore
SplineSet
512 8 m 0,0,1
 488 15 488 15 468 33.5 c 128,-1,2
 448 52 448 52 432 77.5 c 128,-1,3
 416 103 416 103 404 132.5 c 128,-1,4
 392 162 392 162 382.5 191.5 c 128,-1,5
 373 221 373 221 366 247 c 128,-1,6
 359 273 359 273 354 292 c 1,7,-1
 346 292 l 1,8,9
 334 266 334 266 309.5 229.5 c 128,-1,10
 285 193 285 193 255 159 c 128,-1,11
 225 125 225 125 191.5 100 c 128,-1,12
 158 75 158 75 128 70.5 c 128,-1,13
 98 66 98 66 74 88.5 c 128,-1,14
 50 111 50 111 39 173 c 1,15,16
 34 268 34 268 32 362 c 128,-1,17
 30 456 30 456 32 551 c 1,18,19
 35 555 35 555 42.5 561 c 128,-1,20
 50 567 50 567 58 569 c 128,-1,21
 66 571 66 571 72.5 566.5 c 128,-1,22
 79 562 79 562 79 544 c 2,23,-1
 79 213 l 2,24,25
 79 204 79 204 81.5 192 c 128,-1,26
 84 180 84 180 89.5 168.5 c 128,-1,27
 95 157 95 157 102 147.5 c 128,-1,28
 109 138 109 138 118 134 c 0,29,30
 154 119 154 119 183 134.5 c 128,-1,31
 212 150 212 150 235.5 184 c 128,-1,32
 259 218 259 218 278.5 264.5 c 128,-1,33
 298 311 298 311 314 356 c 128,-1,34
 330 401 330 401 343.5 439.5 c 128,-1,35
 357 478 357 478 370 497 c 1,36,37
 372 496 372 496 374.5 492.5 c 128,-1,38
 377 489 377 489 378 488 c 0,39,40
 381 484 381 484 390 472.5 c 128,-1,41
 399 461 399 461 401 457 c 1,42,43
 401 439 401 439 401.5 407.5 c 128,-1,44
 402 376 402 376 405 338.5 c 128,-1,45
 408 301 408 301 414 260.5 c 128,-1,46
 420 220 420 220 430.5 183 c 128,-1,47
 441 146 441 146 457.5 116.5 c 128,-1,48
 474 87 474 87 497.5 71.5 c 128,-1,49
 521 56 521 56 552.5 57.5 c 128,-1,50
 584 59 584 59 626 85 c 0,51,52
 647 98 647 98 651 109 c 128,-1,53
 655 120 655 120 654 131.5 c 128,-1,54
 653 143 653 143 652.5 155 c 128,-1,55
 652 167 652 167 666 184 c 1,56,57
 691 192 691 192 704 178 c 128,-1,58
 717 164 717 164 718.5 139 c 128,-1,59
 720 114 720 114 708.5 84.5 c 128,-1,60
 697 55 697 55 671.5 33 c 128,-1,61
 646 11 646 11 606.5 1.5 c 128,-1,62
 567 -8 567 -8 512 8 c 0,0,1
EndSplineSet
EndChar

StartChar: v
Encoding: 118 118 89
Width: 544
Flags: W
LayerCount: 2
Fore
SplineSet
324 24 m 0,0,1
 286 73 286 73 253.5 126.5 c 128,-1,2
 221 180 221 180 187 232.5 c 128,-1,3
 153 285 153 285 114 333 c 128,-1,4
 75 381 75 381 24 418 c 0,5,6
 1 434 1 434 1.5 444.5 c 128,-1,7
 2 455 2 455 15.5 458.5 c 128,-1,8
 29 462 29 462 49.5 458 c 128,-1,9
 70 454 70 454 87 441 c 1,10,11
 117 405 117 405 151 358.5 c 128,-1,12
 185 312 185 312 217.5 264.5 c 128,-1,13
 250 217 250 217 279.5 172 c 128,-1,14
 309 127 309 127 331 94 c 0,15,16
 333 90 333 90 337.5 87.5 c 128,-1,17
 342 85 342 85 347 87 c 1,18,19
 355 101 355 101 364 138.5 c 128,-1,20
 373 176 373 176 382.5 224 c 128,-1,21
 392 272 392 272 402.5 323 c 128,-1,22
 413 374 413 374 425.5 415 c 128,-1,23
 438 456 438 456 451.5 479.5 c 128,-1,24
 465 503 465 503 481 497 c 0,25,26
 485 495 485 495 497 488.5 c 128,-1,27
 509 482 509 482 512 480 c 0,28,29
 522 474 522 474 519 465.5 c 128,-1,30
 516 457 516 457 508 447.5 c 128,-1,31
 500 438 500 438 491 428 c 128,-1,32
 482 418 482 418 481 410 c 0,33,34
 480 405 480 405 477 389 c 128,-1,35
 474 373 474 373 470 352 c 128,-1,36
 466 331 466 331 461.5 307 c 128,-1,37
 457 283 457 283 453 262 c 128,-1,38
 449 241 449 241 445.5 225.5 c 128,-1,39
 442 210 442 210 441 205 c 0,40,41
 441 202 441 202 437 187.5 c 128,-1,42
 433 173 433 173 428 154 c 128,-1,43
 423 135 423 135 418 116 c 128,-1,44
 413 97 413 97 410 87 c 0,45,46
 405 70 405 70 397.5 50 c 128,-1,47
 390 30 390 30 379 17 c 128,-1,48
 368 4 368 4 354.5 3 c 128,-1,49
 341 2 341 2 324 24 c 0,0,1
EndSplineSet
EndChar

StartChar: w
Encoding: 119 119 90
Width: 787
Flags: W
LayerCount: 2
Fore
SplineSet
630 8 m 0,0,1
 576 40 576 40 543 84 c 128,-1,2
 510 128 510 128 486 177 c 128,-1,3
 462 226 462 226 440 278 c 128,-1,4
 418 330 418 330 386 378 c 0,5,6
 383 383 383 383 378 378 c 1,7,8
 358 342 358 342 344.5 302.5 c 128,-1,9
 331 263 331 263 318 223 c 128,-1,10
 305 183 305 183 289.5 144 c 128,-1,11
 274 105 274 105 252 71 c 0,12,13
 242 57 242 57 222.5 46 c 128,-1,14
 203 35 203 35 185.5 34.5 c 128,-1,15
 168 34 168 34 158 47.5 c 128,-1,16
 148 61 148 61 158 94 c 1,17,18
 131 169 131 169 112 237.5 c 128,-1,19
 93 306 93 306 71 378 c 0,20,21
 65 396 65 396 53 419.5 c 128,-1,22
 41 443 41 443 33 467 c 128,-1,23
 25 491 25 491 26 513.5 c 128,-1,24
 27 536 27 536 47 551 c 0,25,26
 55 557 55 557 69 528 c 128,-1,27
 83 499 83 499 100 452 c 128,-1,28
 117 405 117 405 134 347.5 c 128,-1,29
 151 290 151 290 166 239 c 128,-1,30
 181 188 181 188 191.5 152 c 128,-1,31
 202 116 202 116 205 111 c 1,32,33
 226 125 226 125 243 157 c 128,-1,34
 260 189 260 189 274.5 229.5 c 128,-1,35
 289 270 289 270 301.5 313.5 c 128,-1,36
 314 357 314 357 326 393.5 c 128,-1,37
 338 430 338 430 350 454.5 c 128,-1,38
 362 479 362 479 375.5 481 c 128,-1,39
 389 483 389 483 405 458 c 128,-1,40
 421 433 421 433 441 371 c 0,41,42
 469 282 469 282 513.5 202.5 c 128,-1,43
 558 123 558 123 630 63 c 1,44,45
 654 49 654 49 668 68 c 128,-1,46
 682 87 682 87 688 125.5 c 128,-1,47
 694 164 694 164 692.5 215.5 c 128,-1,48
 691 267 691 267 685.5 316.5 c 128,-1,49
 680 366 680 366 671.5 406.5 c 128,-1,50
 663 447 663 447 653 465 c 1,51,52
 643 480 643 480 635 485.5 c 128,-1,53
 627 491 627 491 624 496.5 c 128,-1,54
 621 502 621 502 625.5 511.5 c 128,-1,55
 630 521 630 521 646 544 c 1,56,57
 664 557 664 557 680.5 536 c 128,-1,58
 697 515 697 515 710.5 473 c 128,-1,59
 724 431 724 431 733.5 374 c 128,-1,60
 743 317 743 317 746 258 c 128,-1,61
 749 199 749 199 745 144.5 c 128,-1,62
 741 90 741 90 727.5 52.5 c 128,-1,63
 714 15 714 15 690 0.5 c 128,-1,64
 666 -14 666 -14 630 8 c 0,0,1
EndSplineSet
EndChar

StartChar: x
Encoding: 120 120 91
Width: 449
Flags: W
LayerCount: 2
Fore
SplineSet
89 -7 m 0,0,1
 84 -1 84 -1 86.5 8.5 c 128,-1,2
 89 18 89 18 94 27 c 128,-1,3
 99 36 99 36 104.5 44 c 128,-1,4
 110 52 110 52 113 56 c 0,5,6
 120 69 120 69 131.5 92.5 c 128,-1,7
 143 116 143 116 154 139 c 128,-1,8
 165 162 165 162 173 179.5 c 128,-1,9
 181 197 181 197 181 197 c 1,10,-1
 181 205 l 1,11,12
 181 205 181 205 168.5 226 c 128,-1,13
 156 247 156 247 138 276 c 128,-1,14
 120 305 120 305 101.5 335.5 c 128,-1,15
 83 366 83 366 71 386 c 0,16,17
 69 390 69 390 64 397 c 128,-1,18
 59 404 59 404 54 411.5 c 128,-1,19
 49 419 49 419 44.5 425 c 128,-1,20
 40 431 40 431 39 433 c 0,21,22
 36 437 36 437 30 451.5 c 128,-1,23
 24 466 24 466 22.5 479.5 c 128,-1,24
 21 493 21 493 27 500 c 128,-1,25
 33 507 33 507 54 497 c 0,26,27
 69 489 69 489 81.5 472.5 c 128,-1,28
 94 456 94 456 104.5 435.5 c 128,-1,29
 115 415 115 415 124 395 c 128,-1,30
 133 375 133 375 141 362 c 0,31,32
 145 356 145 356 154 340.5 c 128,-1,33
 163 325 163 325 173 307 c 128,-1,34
 183 289 183 289 192 273.5 c 128,-1,35
 201 258 201 258 205 252 c 1,36,37
 212 248 212 248 224 264 c 128,-1,38
 236 280 236 280 251 307.5 c 128,-1,39
 266 335 266 335 282.5 369.5 c 128,-1,40
 299 404 299 404 316 438 c 128,-1,41
 333 472 333 472 349.5 501 c 128,-1,42
 366 530 366 530 380.5 545 c 128,-1,43
 395 560 395 560 406.5 557.5 c 128,-1,44
 418 555 418 555 425 527 c 0,45,46
 426 525 426 525 426 519.5 c 128,-1,47
 426 514 426 514 425 512 c 0,48,49
 414 486 414 486 403 469.5 c 128,-1,50
 392 453 392 453 379.5 436.5 c 128,-1,51
 367 420 367 420 353 398 c 128,-1,52
 339 376 339 376 323 339 c 1,53,54
 308 310 308 310 290.5 281.5 c 128,-1,55
 273 253 273 253 263 224.5 c 128,-1,56
 253 196 253 196 254.5 168 c 128,-1,57
 256 140 256 140 279 112 c 0,58,59
 282 107 282 107 288.5 100 c 128,-1,60
 295 93 295 93 301 87 c 128,-1,61
 307 81 307 81 311.5 76.5 c 128,-1,62
 316 72 316 72 317 72 c 2,63,-1
 326 72 l 2,64,65
 331 72 331 72 335.5 83.5 c 128,-1,66
 340 95 340 95 343.5 111.5 c 128,-1,67
 347 128 347 128 351 147 c 128,-1,68
 355 166 355 166 360 180.5 c 128,-1,69
 365 195 365 195 371 202.5 c 128,-1,70
 377 210 377 210 386 205 c 1,71,72
 386 199 386 199 385 178.5 c 128,-1,73
 384 158 384 158 380.5 132 c 128,-1,74
 377 106 377 106 371 78.5 c 128,-1,75
 365 51 365 51 356 31 c 128,-1,76
 347 11 347 11 333.5 3 c 128,-1,77
 320 -5 320 -5 302 9 c 0,78,79
 288 19 288 19 278 34 c 128,-1,80
 268 49 268 49 258.5 64 c 128,-1,81
 249 79 249 79 239 93.5 c 128,-1,82
 229 108 229 108 215 119 c 1,83,84
 209 114 209 114 200.5 98 c 128,-1,85
 192 82 192 82 183 62 c 128,-1,86
 174 42 174 42 163 21.5 c 128,-1,87
 152 1 152 1 140.5 -11 c 128,-1,88
 129 -23 129 -23 116 -24 c 128,-1,89
 103 -25 103 -25 89 -7 c 0,0,1
EndSplineSet
EndChar

StartChar: y
Encoding: 121 121 92
Width: 583
Flags: W
LayerCount: 2
Fore
SplineSet
267 -614 m 0,0,1
 233 -597 233 -597 220.5 -544 c 128,-1,2
 208 -491 208 -491 212 -420 c 128,-1,3
 216 -349 216 -349 234.5 -270 c 128,-1,4
 253 -191 253 -191 282.5 -122 c 128,-1,5
 312 -53 312 -53 350.5 -4.5 c 128,-1,6
 389 44 389 44 433 55 c 1,7,8
 434 61 434 61 435 74.5 c 128,-1,9
 436 88 436 88 437 103 c 128,-1,10
 438 118 438 118 439 131.5 c 128,-1,11
 440 145 440 145 440 151 c 0,12,13
 441 173 441 173 441 207.5 c 128,-1,14
 441 242 441 242 441 274.5 c 128,-1,15
 441 307 441 307 441 330.5 c 128,-1,16
 441 354 441 354 440 355 c 2,17,-1
 433 362 l 1,18,19
 425 348 425 348 401 314 c 128,-1,20
 377 280 377 280 344 240 c 128,-1,21
 311 200 311 200 271 160.5 c 128,-1,22
 231 121 231 121 190 95.5 c 128,-1,23
 149 70 149 70 110 66.5 c 128,-1,24
 71 63 71 63 39 95 c 0,25,26
 23 110 23 110 17.5 141.5 c 128,-1,27
 12 173 12 173 12.5 211.5 c 128,-1,28
 13 250 13 250 18.5 292.5 c 128,-1,29
 24 335 24 335 31 373.5 c 128,-1,30
 38 412 38 412 44.5 442.5 c 128,-1,31
 51 473 51 473 54 488 c 1,32,33
 59 500 59 500 69.5 503.5 c 128,-1,34
 80 507 80 507 90 504.5 c 128,-1,35
 100 502 100 502 106.5 493.5 c 128,-1,36
 113 485 113 485 110 473 c 0,37,38
 99 431 99 431 90.5 392 c 128,-1,39
 82 353 82 353 76.5 314 c 128,-1,40
 71 275 71 275 69.5 235 c 128,-1,41
 68 195 68 195 71 151 c 1,42,43
 91 124 91 124 120 127.5 c 128,-1,44
 149 131 149 131 182 152.5 c 128,-1,45
 215 174 215 174 249 209 c 128,-1,46
 283 244 283 244 312 280 c 128,-1,47
 341 316 341 316 362.5 347.5 c 128,-1,48
 384 379 384 379 393 394 c 256,49,50
 402 409 402 409 407.5 428 c 128,-1,51
 413 447 413 447 419.5 465.5 c 128,-1,52
 426 484 426 484 434.5 501 c 128,-1,53
 443 518 443 518 457 528 c 1,54,-1
 488 497 l 1,55,-1
 488 87 l 1,56,57
 493 86 493 86 511.5 88 c 128,-1,58
 530 90 530 90 544 90 c 128,-1,59
 558 90 558 90 560.5 84.5 c 128,-1,60
 563 79 563 79 536 63 c 0,61,62
 522 55 522 55 508.5 46.5 c 128,-1,63
 495 38 495 38 480 32 c 1,64,65
 471 -53 471 -53 463 -117.5 c 128,-1,66
 455 -182 455 -182 445 -241 c 128,-1,67
 435 -300 435 -300 421 -362 c 128,-1,68
 407 -424 407 -424 386 -504 c 1,69,70
 378 -522 378 -522 368.5 -546.5 c 128,-1,71
 359 -571 359 -571 345.5 -590.5 c 128,-1,72
 332 -610 332 -610 313 -618.5 c 128,-1,73
 294 -627 294 -627 267 -614 c 0,0,1
299 -551 m 2,74,75
 309 -558 309 -558 323 -525 c 128,-1,76
 337 -492 337 -492 351.5 -436.5 c 128,-1,77
 366 -381 366 -381 379.5 -313 c 128,-1,78
 393 -245 393 -245 403.5 -182 c 128,-1,79
 414 -119 414 -119 420 -71 c 128,-1,80
 426 -23 426 -23 425 -7 c 1,81,82
 380 -46 380 -46 346 -97.5 c 128,-1,83
 312 -149 312 -149 290.5 -207.5 c 128,-1,84
 269 -266 269 -266 261 -327.5 c 128,-1,85
 253 -389 253 -389 259 -449 c 0,86,87
 260 -458 260 -458 262.5 -472.5 c 128,-1,88
 265 -487 265 -487 267.5 -501 c 128,-1,89
 270 -515 270 -515 272 -525 c 128,-1,90
 274 -535 274 -535 275 -536 c 2,91,-1
 299 -551 l 2,74,75
EndSplineSet
EndChar

StartChar: z
Encoding: 122 122 93
Width: 685
Flags: W
LayerCount: 2
Fore
SplineSet
160 49 m 0,0,1
 134 67 134 67 128 88.5 c 128,-1,2
 122 110 122 110 128.5 133 c 128,-1,3
 135 156 135 156 150 180.5 c 128,-1,4
 165 205 165 205 181.5 229 c 128,-1,5
 198 253 198 253 211.5 274.5 c 128,-1,6
 225 296 225 296 228 315 c 1,7,8
 222 318 222 318 215 318 c 128,-1,9
 208 318 208 318 200.5 318 c 128,-1,10
 193 318 193 318 186 319 c 128,-1,11
 179 320 179 320 174 326 c 0,12,13
 162 339 162 339 162.5 354 c 128,-1,14
 163 369 163 369 178 381 c 0,15,16
 188 388 188 388 199 386 c 128,-1,17
 210 384 210 384 221.5 378.5 c 128,-1,18
 233 373 233 373 244.5 368.5 c 128,-1,19
 256 364 256 364 267 366 c 0,20,21
 272 367 272 367 286.5 380.5 c 128,-1,22
 301 394 301 394 319.5 414.5 c 128,-1,23
 338 435 338 435 358.5 459 c 128,-1,24
 379 483 379 483 396.5 504.5 c 128,-1,25
 414 526 414 526 427 542.5 c 128,-1,26
 440 559 440 559 444 564 c 1,27,28
 409 583 409 583 361.5 587.5 c 128,-1,29
 314 592 314 592 263.5 589 c 128,-1,30
 213 586 213 586 163.5 579 c 128,-1,31
 114 572 114 572 75 569 c 0,32,33
 54 567 54 567 48.5 574 c 128,-1,34
 43 581 43 581 48.5 590.5 c 128,-1,35
 54 600 54 600 66 609 c 128,-1,36
 78 618 78 618 92 620 c 0,37,38
 137 626 137 626 181.5 627.5 c 128,-1,39
 226 629 226 629 270.5 627.5 c 128,-1,40
 315 626 315 626 359.5 623 c 128,-1,41
 404 620 404 620 449 618 c 1,42,43
 497 617 497 617 507.5 603.5 c 128,-1,44
 518 590 518 590 506 568.5 c 128,-1,45
 494 547 494 547 466 520 c 128,-1,46
 438 493 438 493 409 465 c 128,-1,47
 380 437 380 437 357 409.5 c 128,-1,48
 334 382 334 382 332 361 c 1,49,50
 351 349 351 349 394 347.5 c 128,-1,51
 437 346 437 346 485 349.5 c 128,-1,52
 533 353 533 353 576 359 c 128,-1,53
 619 365 619 365 639 368 c 1,54,55
 648 368 648 368 654 361.5 c 128,-1,56
 660 355 660 355 662 346.5 c 128,-1,57
 664 338 664 338 662 329.5 c 128,-1,58
 660 321 660 321 651 316 c 0,59,60
 631 305 631 305 603 300.5 c 128,-1,61
 575 296 575 296 543 295 c 128,-1,62
 511 294 511 294 475.5 296 c 128,-1,63
 440 298 440 298 406 300.5 c 128,-1,64
 372 303 372 303 340.5 304.5 c 128,-1,65
 309 306 309 306 284 304 c 1,66,67
 222 231 222 231 202 183.5 c 128,-1,68
 182 136 182 136 192.5 109.5 c 128,-1,69
 203 83 203 83 237 74.5 c 128,-1,70
 271 66 271 66 317 71 c 128,-1,71
 363 76 363 76 414 91.5 c 128,-1,72
 465 107 465 107 508.5 128.5 c 128,-1,73
 552 150 552 150 582.5 174.5 c 128,-1,74
 613 199 613 199 618 222 c 1,75,76
 637 230 637 230 640.5 218.5 c 128,-1,77
 644 207 644 207 640.5 189.5 c 128,-1,78
 637 172 637 172 630 154.5 c 128,-1,79
 623 137 623 137 620 133 c 0,80,81
 600 110 600 110 565 90.5 c 128,-1,82
 530 71 530 71 487 56 c 128,-1,83
 444 41 444 41 396 32 c 128,-1,84
 348 23 348 23 303.5 21.5 c 128,-1,85
 259 20 259 20 221.5 26.5 c 128,-1,86
 184 33 184 33 160 49 c 0,0,1
EndSplineSet
EndChar

StartChar: braceleft
Encoding: 123 123 94
Width: 567
Flags: W
LayerCount: 2
Fore
SplineSet
329 -134 m 0,0,1
 281 -120 281 -120 247.5 -96.5 c 128,-1,2
 214 -73 214 -73 203 -23 c 1,3,4
 203 -16 203 -16 203.5 8 c 128,-1,5
 204 32 204 32 205 65 c 128,-1,6
 206 98 206 98 207.5 135 c 128,-1,7
 209 172 209 172 210 205 c 128,-1,8
 211 238 211 238 212 262 c 128,-1,9
 213 286 213 286 213 292 c 0,10,11
 214 324 214 324 212.5 341.5 c 128,-1,12
 211 359 211 359 201 368 c 128,-1,13
 191 377 191 377 170 381.5 c 128,-1,14
 149 386 149 386 111 394 c 1,15,16
 98 384 98 384 81 385 c 128,-1,17
 64 386 64 386 50 395 c 128,-1,18
 36 404 36 404 27.5 418.5 c 128,-1,19
 19 433 19 433 24 449 c 0,20,21
 28 464 28 464 38.5 476.5 c 128,-1,22
 49 489 49 489 55 504 c 1,23,24
 70 494 70 494 84.5 497 c 128,-1,25
 99 500 99 500 111.5 511 c 128,-1,26
 124 522 124 522 134.5 539.5 c 128,-1,27
 145 557 145 557 152.5 575 c 128,-1,28
 160 593 160 593 163 610 c 128,-1,29
 166 627 166 627 165 638 c 0,30,31
 158 693 158 693 143 728 c 128,-1,32
 128 763 128 763 118 783 c 128,-1,33
 108 803 108 803 109 811 c 128,-1,34
 110 819 110 819 135 822 c 128,-1,35
 160 825 160 825 215.5 825.5 c 128,-1,36
 271 826 271 826 371 831 c 0,37,38
 381 831 381 831 389 833.5 c 128,-1,39
 397 836 397 836 405 838.5 c 128,-1,40
 413 841 413 841 422 841.5 c 128,-1,41
 431 842 431 842 442 838 c 0,42,43
 451 835 451 835 454.5 828 c 128,-1,44
 458 821 458 821 459 813 c 128,-1,45
 460 805 460 805 459 796.5 c 128,-1,46
 458 788 458 788 457 783 c 0,47,48
 456 776 456 776 440.5 773.5 c 128,-1,49
 425 771 425 771 401 770.5 c 128,-1,50
 377 770 377 770 347.5 770.5 c 128,-1,51
 318 771 318 771 289.5 769.5 c 128,-1,52
 261 768 261 768 236 764.5 c 128,-1,53
 211 761 211 761 197 752 c 1,54,55
 204 710 204 710 211.5 681 c 128,-1,56
 219 652 219 652 223.5 630.5 c 128,-1,57
 228 609 228 609 227 591.5 c 128,-1,58
 226 574 226 574 216.5 555 c 128,-1,59
 207 536 207 536 187.5 513 c 128,-1,60
 168 490 168 490 134 457 c 1,61,62
 172 443 172 443 207 432 c 128,-1,63
 242 421 242 421 284 425 c 1,64,65
 290 415 290 415 289.5 383.5 c 128,-1,66
 289 352 289 352 285 309 c 128,-1,67
 281 266 281 266 274.5 217 c 128,-1,68
 268 168 268 168 262.5 123 c 128,-1,69
 257 78 257 78 253 42.5 c 128,-1,70
 249 7 249 7 250 -8 c 1,71,72
 255 -25 255 -25 269.5 -41 c 128,-1,73
 284 -57 284 -57 303.5 -69.5 c 128,-1,74
 323 -82 323 -82 346 -90 c 128,-1,75
 369 -98 369 -98 390.5 -98.5 c 128,-1,76
 412 -99 412 -99 431 -90.5 c 128,-1,77
 450 -82 450 -82 462 -62 c 1,78,79
 492 -53 492 -53 510 -58.5 c 128,-1,80
 528 -64 528 -64 533 -77.5 c 128,-1,81
 538 -91 538 -91 530.5 -108.5 c 128,-1,82
 523 -126 523 -126 502 -141 c 1,83,84
 477 -140 477 -140 456 -141 c 128,-1,85
 435 -142 435 -142 415 -143 c 128,-1,86
 395 -144 395 -144 374 -142.5 c 128,-1,87
 353 -141 353 -141 329 -134 c 0,0,1
EndSplineSet
EndChar

StartChar: bar
Encoding: 124 124 95
Width: 181
Flags: W
LayerCount: 2
Fore
SplineSet
102 8 m 0,0,1
 95 18 95 18 94.5 28.5 c 128,-1,2
 94 39 94 39 96 49.5 c 128,-1,3
 98 60 98 60 100.5 71 c 128,-1,4
 103 82 103 82 102 94 c 0,5,6
 97 239 97 239 75 386.5 c 128,-1,7
 53 534 53 534 8 670 c 0,8,9
 4 682 4 682 12.5 692 c 128,-1,10
 21 702 21 702 34 706.5 c 128,-1,11
 47 711 47 711 60.5 708.5 c 128,-1,12
 74 706 74 706 79 693 c 1,13,14
 78 612 78 612 85 527 c 128,-1,15
 92 442 92 442 104 356 c 128,-1,16
 116 270 116 270 132 186 c 128,-1,17
 148 102 148 102 166 24 c 1,18,19
 163 15 163 15 155.5 7 c 128,-1,20
 148 -1 148 -1 138.5 -4.5 c 128,-1,21
 129 -8 129 -8 119.5 -5.5 c 128,-1,22
 110 -3 110 -3 102 8 c 0,0,1
EndSplineSet
EndChar

StartChar: braceright
Encoding: 125 125 96
Width: 591
Flags: W
LayerCount: 2
Fore
SplineSet
339 -199 m 0,0,1
 337 -197 337 -197 337 -190 c 128,-1,2
 337 -183 337 -183 338.5 -175 c 128,-1,3
 340 -167 340 -167 342 -160.5 c 128,-1,4
 344 -154 344 -154 346 -152 c 0,5,6
 362 -139 362 -139 376 -131.5 c 128,-1,7
 390 -124 390 -124 403 -117 c 128,-1,8
 416 -110 416 -110 429 -100.5 c 128,-1,9
 442 -91 442 -91 457 -73 c 0,10,11
 501 -19 501 -19 509.5 20 c 128,-1,12
 518 59 518 59 504 87 c 128,-1,13
 490 115 490 115 462 134.5 c 128,-1,14
 434 154 434 154 404 169 c 128,-1,15
 374 184 374 184 350.5 197 c 128,-1,16
 327 210 327 210 323 226 c 0,17,18
 319 244 319 244 325.5 258 c 128,-1,19
 332 272 332 272 344.5 284 c 128,-1,20
 357 296 357 296 372 307 c 128,-1,21
 387 318 387 318 399 330 c 128,-1,22
 411 342 411 342 417 355 c 128,-1,23
 423 368 423 368 418 384 c 1,24,25
 360 380 360 380 325 394 c 128,-1,26
 290 408 290 408 272 434 c 128,-1,27
 254 460 254 460 250 495.5 c 128,-1,28
 246 531 246 531 250.5 569.5 c 128,-1,29
 255 608 255 608 264.5 647 c 128,-1,30
 274 686 274 686 283 720 c 128,-1,31
 292 754 292 754 297.5 780.5 c 128,-1,32
 303 807 303 807 299 819 c 1,33,34
 291 820 291 820 262.5 814.5 c 128,-1,35
 234 809 234 809 198 802.5 c 128,-1,36
 162 796 162 796 124 791 c 128,-1,37
 86 786 86 786 58 787.5 c 128,-1,38
 30 789 30 789 18.5 799.5 c 128,-1,39
 7 810 7 810 24 835 c 0,40,41
 31 846 31 846 47 851 c 1,42,43
 80 849 80 849 118.5 850.5 c 128,-1,44
 157 852 157 852 196 857.5 c 128,-1,45
 235 863 235 863 271.5 873 c 128,-1,46
 308 883 308 883 338 898 c 0,47,48
 349 903 349 903 359 895 c 128,-1,49
 369 887 369 887 376 874 c 128,-1,50
 383 861 383 861 386 847 c 128,-1,51
 389 833 389 833 386 827 c 0,52,53
 385 825 385 825 379 818 c 128,-1,54
 373 811 373 811 366 803 c 128,-1,55
 359 795 359 795 353 788 c 128,-1,56
 347 781 347 781 346 780 c 0,57,58
 341 773 341 773 336 750 c 128,-1,59
 331 727 331 727 326 695 c 128,-1,60
 321 663 321 663 317 627.5 c 128,-1,61
 313 592 313 592 310.5 560 c 128,-1,62
 308 528 308 528 307 503.5 c 128,-1,63
 306 479 306 479 308 471 c 0,64,65
 311 448 311 448 326.5 446 c 128,-1,66
 342 444 342 444 364 450 c 128,-1,67
 386 456 386 456 410.5 465.5 c 128,-1,68
 435 475 435 475 456 475.5 c 128,-1,69
 477 476 477 476 490.5 461.5 c 128,-1,70
 504 447 504 447 504 407 c 0,71,72
 504 405 504 405 498.5 393.5 c 128,-1,73
 493 382 493 382 489 376 c 0,74,75
 488 375 488 375 485 371.5 c 128,-1,76
 482 368 482 368 481 368 c 0,77,78
 474 357 474 357 463 340 c 128,-1,79
 452 323 452 323 442 306.5 c 128,-1,80
 432 290 432 290 425 278 c 128,-1,81
 418 266 418 266 418 266 c 1,82,-1
 418 258 l 1,83,84
 476 207 476 207 505.5 158 c 128,-1,85
 535 109 535 109 542.5 64 c 128,-1,86
 550 19 550 19 540 -20.5 c 128,-1,87
 530 -60 530 -60 509.5 -92.5 c 128,-1,88
 489 -125 489 -125 462.5 -149 c 128,-1,89
 436 -173 436 -173 411 -187.5 c 128,-1,90
 386 -202 386 -202 366 -205.5 c 128,-1,91
 346 -209 346 -209 339 -199 c 0,0,1
EndSplineSet
EndChar

StartChar: asciitilde
Encoding: 126 126 97
Width: 749
Flags: W
LayerCount: 2
Fore
SplineSet
356 549 m 1,0,1
 317 558 317 558 295 577 c 128,-1,2
 273 596 273 596 260 621 c 128,-1,3
 247 646 247 646 237.5 675 c 128,-1,4
 228 704 228 704 213 733 c 1,5,6
 210 736 210 736 205 733 c 0,7,8
 175 709 175 709 157.5 694.5 c 128,-1,9
 140 680 140 680 128 665 c 128,-1,10
 116 650 116 650 106.5 630 c 128,-1,11
 97 610 97 610 84 576 c 1,12,13
 41 564 41 564 29.5 573.5 c 128,-1,14
 18 583 18 583 26.5 605 c 128,-1,15
 35 627 35 627 58 657 c 128,-1,16
 81 687 81 687 107.5 714.5 c 128,-1,17
 134 742 134 742 157 763 c 128,-1,18
 180 784 180 784 190 789 c 0,19,20
 211 799 211 799 225.5 786.5 c 128,-1,21
 240 774 240 774 252 749.5 c 128,-1,22
 264 725 264 725 276 694 c 128,-1,23
 288 663 288 663 304 636.5 c 128,-1,24
 320 610 320 610 342.5 594 c 128,-1,25
 365 578 365 578 398 583.5 c 128,-1,26
 431 589 431 589 477 621.5 c 128,-1,27
 523 654 523 654 586 725 c 0,28,29
 594 734 594 734 601 749 c 128,-1,30
 608 764 608 764 614.5 778.5 c 128,-1,31
 621 793 621 793 627 803.5 c 128,-1,32
 633 814 633 814 641 814.5 c 128,-1,33
 649 815 649 815 658.5 802.5 c 128,-1,34
 668 790 668 790 680 757 c 0,35,36
 686 740 686 740 673.5 733.5 c 128,-1,37
 661 727 661 727 649 725 c 1,38,39
 629 704 629 704 609 679.5 c 128,-1,40
 589 655 589 655 568 631.5 c 128,-1,41
 547 608 547 608 524 588 c 128,-1,42
 501 568 501 568 475 555.5 c 128,-1,43
 449 543 449 543 419.5 540 c 128,-1,44
 390 537 390 537 356 549 c 1,0,1
EndSplineSet
EndChar

StartChar: cent
Encoding: 162 162 99
Width: 410
Flags: W
LayerCount: 2
Fore
SplineSet
223 -101 m 256,0,1
 215 -90 215 -90 211 -63.5 c 128,-1,2
 207 -37 207 -37 205 -8 c 1,3,4
 167 -8 167 -8 134 15 c 1,5,6
 110 33 110 33 95.5 67.5 c 128,-1,7
 81 102 81 102 75.5 145 c 128,-1,8
 70 188 70 188 73.5 235.5 c 128,-1,9
 77 283 77 283 88.5 328 c 128,-1,10
 100 373 100 373 119 411 c 128,-1,11
 138 449 138 449 165 473 c 1,12,13
 160 496 160 496 153.5 518 c 128,-1,14
 147 540 147 540 139 565 c 0,15,16
 135 577 135 577 144.5 581 c 128,-1,17
 154 585 154 585 168.5 582.5 c 128,-1,18
 183 580 183 580 197.5 571 c 128,-1,19
 212 562 212 562 217 549 c 1,20,-1
 217 501 l 1,21,22
 241 504 241 504 259 485.5 c 128,-1,23
 277 467 277 467 287.5 441.5 c 128,-1,24
 298 416 298 416 301 391.5 c 128,-1,25
 304 367 304 367 299 357 c 128,-1,26
 294 347 294 347 279.5 358.5 c 128,-1,27
 265 370 265 370 242 418 c 1,28,29
 231 437 231 437 218 435 c 1,30,31
 220 347 220 347 229 262 c 128,-1,32
 238 177 238 177 252 90 c 1,33,34
 265 101 265 101 284.5 121 c 128,-1,35
 304 141 304 141 324.5 161.5 c 128,-1,36
 345 182 345 182 363.5 198.5 c 128,-1,37
 382 215 382 215 393.5 218 c 128,-1,38
 405 221 405 221 406.5 206.5 c 128,-1,39
 408 192 408 192 394 150 c 0,40,41
 387 130 387 130 374.5 109 c 128,-1,42
 362 88 362 88 345.5 69 c 128,-1,43
 329 50 329 50 308.5 34 c 128,-1,44
 288 18 288 18 266 8 c 1,45,46
 271 -15 271 -15 276.5 -38.5 c 128,-1,47
 282 -62 282 -62 287 -86 c 1,48,49
 284 -95 284 -95 276.5 -103 c 128,-1,50
 269 -111 269 -111 259.5 -114 c 128,-1,51
 250 -117 250 -117 240.5 -114.5 c 128,-1,52
 231 -112 231 -112 223 -101 c 256,0,1
179 401 m 1,53,54
 164 377 164 377 151 342.5 c 128,-1,55
 138 308 138 308 129.5 270.5 c 128,-1,56
 121 233 121 233 119 196 c 128,-1,57
 117 159 117 159 124 130 c 128,-1,58
 131 101 131 101 149.5 85 c 128,-1,59
 168 69 168 69 201 73 c 1,60,61
 199 121 199 121 198 163.5 c 128,-1,62
 197 206 197 206 195 245.5 c 128,-1,63
 193 285 193 285 189.5 323.5 c 128,-1,64
 186 362 186 362 179 401 c 1,53,54
EndSplineSet
EndChar

StartChar: sterling
Encoding: 163 163 100
Width: 483
Flags: W
LayerCount: 2
Fore
SplineSet
233 286 m 1,0,1
 204 288 204 288 174 289.5 c 128,-1,2
 144 291 144 291 114 293 c 1,3,4
 109 246 109 246 103 199.5 c 128,-1,5
 97 153 97 153 86 102 c 1,6,7
 80 85 80 85 92.5 81.5 c 128,-1,8
 105 78 105 78 128.5 81.5 c 128,-1,9
 152 85 152 85 182 92.5 c 128,-1,10
 212 100 212 100 242.5 106.5 c 128,-1,11
 273 113 273 113 299 115 c 128,-1,12
 325 117 325 117 340 109 c 1,13,14
 350 110 350 110 368.5 105 c 128,-1,15
 387 100 387 100 407.5 94.5 c 128,-1,16
 428 89 428 89 446.5 84.5 c 128,-1,17
 465 80 465 80 475 82 c 1,18,19
 458 51 458 51 455.5 35.5 c 128,-1,20
 453 20 453 20 453.5 14.5 c 128,-1,21
 454 9 454 9 451 12.5 c 128,-1,22
 448 16 448 16 429.5 24 c 128,-1,23
 411 32 411 32 371 41.5 c 128,-1,24
 331 51 331 51 258 59 c 0,25,26
 257 59 257 59 240.5 55.5 c 128,-1,27
 224 52 224 52 200 46 c 128,-1,28
 176 40 176 40 148 33 c 128,-1,29
 120 26 120 26 96 20.5 c 128,-1,30
 72 15 72 15 56 11 c 128,-1,31
 40 7 40 7 39 8 c 0,32,33
 20 15 20 15 15 24 c 128,-1,34
 10 33 10 33 15 55 c 0,35,36
 22 93 22 93 27 124 c 128,-1,37
 32 155 32 155 36 183 c 128,-1,38
 40 211 40 211 43.5 238 c 128,-1,39
 47 265 47 265 50 294 c 1,40,41
 31 294 31 294 12 294 c 128,-1,42
 -7 294 -7 294 -27 293 c 1,43,44
 -38 298 -38 298 -46 306.5 c 128,-1,45
 -54 315 -54 315 -57 328 c 0,46,47
 -61 342 -61 342 -52.5 350.5 c 128,-1,48
 -44 359 -44 359 -27.5 363.5 c 128,-1,49
 -11 368 -11 368 11.5 368.5 c 128,-1,50
 34 369 34 369 59 368 c 1,51,52
 65 406 65 406 71 451.5 c 128,-1,53
 77 497 77 497 86 557 c 1,54,55
 98 598 98 598 120.5 618 c 128,-1,56
 143 638 143 638 171 642 c 128,-1,57
 199 646 199 646 229.5 637.5 c 128,-1,58
 260 629 260 629 288.5 615.5 c 128,-1,59
 317 602 317 602 340.5 585.5 c 128,-1,60
 364 569 364 569 378 557 c 0,61,62
 414 524 414 524 431.5 502.5 c 128,-1,63
 449 481 449 481 452.5 468 c 128,-1,64
 456 455 456 455 448.5 451 c 128,-1,65
 441 447 441 447 427 451 c 128,-1,66
 413 455 413 455 396.5 465.5 c 128,-1,67
 380 476 380 476 365 492 c 0,68,69
 347 511 347 511 317 528.5 c 128,-1,70
 287 546 287 546 254 556 c 128,-1,71
 221 566 221 566 189 565.5 c 128,-1,72
 157 565 157 565 134 549 c 1,73,74
 129 498 129 498 126 452.5 c 128,-1,75
 123 407 123 407 119 361 c 1,76,77
 143 358 143 358 165 354.5 c 128,-1,78
 187 351 187 351 204 347.5 c 128,-1,79
 221 344 221 344 231 342 c 128,-1,80
 241 340 241 340 242 340 c 0,81,82
 267 335 267 335 273 323.5 c 128,-1,83
 279 312 279 312 273.5 301.5 c 128,-1,84
 268 291 268 291 255.5 285.5 c 128,-1,85
 243 280 243 280 233 286 c 1,0,1
EndSplineSet
EndChar

StartChar: currency
Encoding: 164 164 101
Width: 496
Flags: W
LayerCount: 2
Fore
SplineSet
95 48 m 0,0,1
 90 55 90 55 92.5 64 c 128,-1,2
 95 73 95 73 100 82 c 128,-1,3
 105 91 105 91 111 99 c 128,-1,4
 117 107 117 107 119 112 c 256,5,6
 121 117 121 117 125 124.5 c 128,-1,7
 129 132 129 132 134 140 c 1,8,9
 115 161 115 161 103.5 179.5 c 128,-1,10
 92 198 92 198 87.5 217.5 c 128,-1,11
 83 237 83 237 84.5 259 c 128,-1,12
 86 281 86 281 94 309 c 0,13,14
 95 312 95 312 96.5 321.5 c 128,-1,15
 98 331 98 331 99.5 342 c 128,-1,16
 101 353 101 353 103 363 c 128,-1,17
 105 373 105 373 106 377 c 1,18,19
 93 395 93 395 87 406 c 128,-1,20
 81 417 81 417 76.5 424 c 128,-1,21
 72 431 72 431 66 436 c 128,-1,22
 60 441 60 441 47 447 c 0,23,24
 42 450 42 450 36 464 c 128,-1,25
 30 478 30 478 29 492 c 128,-1,26
 28 506 28 506 34.5 513.5 c 128,-1,27
 41 521 41 521 62 511 c 0,28,29
 85 499 85 499 102.5 477.5 c 128,-1,30
 120 456 120 456 134 426 c 1,31,32
 151 459 151 459 163.5 479 c 128,-1,33
 176 499 176 499 191 508.5 c 128,-1,34
 206 518 206 518 227.5 520 c 128,-1,35
 249 522 249 522 284 521 c 0,36,37
 291 521 291 521 301 513.5 c 128,-1,38
 311 506 311 506 321 497 c 128,-1,39
 331 488 331 488 340 479.5 c 128,-1,40
 349 471 349 471 354 468 c 1,41,42
 367 492 367 492 379.5 509.5 c 128,-1,43
 392 527 392 527 403 534 c 128,-1,44
 414 541 414 541 422.5 535 c 128,-1,45
 431 529 431 529 437 507 c 0,46,47
 438 505 438 505 438 499.5 c 128,-1,48
 438 494 438 494 437 492 c 0,49,50
 427 467 427 467 417 451.5 c 128,-1,51
 407 436 407 436 395 421 c 1,52,53
 395 368 395 368 388.5 327 c 128,-1,54
 382 286 382 286 370 253.5 c 128,-1,55
 358 221 358 221 341 195 c 128,-1,56
 324 169 324 169 303 147 c 1,57,58
 317 135 317 135 334 120.5 c 128,-1,59
 351 106 351 106 362 95 c 0,60,61
 393 61 393 61 394.5 48.5 c 128,-1,62
 396 36 396 36 382 37 c 128,-1,63
 368 38 368 38 346 47 c 128,-1,64
 324 56 324 56 308 65 c 0,65,66
 294 73 294 73 283 86 c 128,-1,67
 272 99 272 99 264 114 c 1,68,69
 245 102 245 102 224.5 98.5 c 128,-1,70
 204 95 204 95 183 103 c 1,71,72
 174 85 174 85 164 67.5 c 128,-1,73
 154 50 154 50 143 40.5 c 128,-1,74
 132 31 132 31 120 31 c 128,-1,75
 108 31 108 31 95 48 c 0,0,1
174 175 m 1,76,77
 199 154 199 154 227 162.5 c 128,-1,78
 255 171 255 171 279.5 196.5 c 128,-1,79
 304 222 304 222 322.5 260 c 128,-1,80
 341 298 341 298 348.5 336.5 c 128,-1,81
 356 375 356 375 349 409 c 128,-1,82
 342 443 342 443 315 461 c 0,83,84
 278 486 278 486 246.5 479.5 c 128,-1,85
 215 473 215 473 191.5 447 c 128,-1,86
 168 421 168 421 154 382.5 c 128,-1,87
 140 344 140 344 136.5 304 c 128,-1,88
 133 264 133 264 142 228.5 c 128,-1,89
 151 193 151 193 174 175 c 1,76,77
332 127 m 2,90,-1
 376 84 l 2,91,92
 374 85 374 85 372 87 c 256,93,94
 370 89 370 89 367.5 90.5 c 128,-1,95
 365 92 365 92 362 95 c 0,96,97
 356 102 356 102 348.5 110 c 128,-1,98
 341 118 341 118 332 127 c 2,90,-1
EndSplineSet
EndChar

